<svg width="51" height="46" viewBox="0 0 51 46" fill="none" xmlns="http://www.w3.org/2000/svg">
<g opacity="0.5">
<path fill-rule="evenodd" clip-rule="evenodd" d="M25.5534 24.0418H21.3749V19.8746C21.3749 18.7223 20.4389 17.7909 19.2856 17.7909C18.1323 17.7909 17.1963 18.7223 17.1963 19.8746V26.1254C17.1963 27.2777 18.1323 28.2091 19.2856 28.2091H25.5534C26.7067 28.2091 27.6427 27.2777 27.6427 26.1254C27.6427 24.9732 26.7067 24.0418 25.5534 24.0418M19.2854 40.1899C11.5091 40.1899 5.18275 33.8807 5.18275 26.1254C5.18275 18.3702 11.5091 12.061 19.2854 12.061C27.0617 12.061 33.3881 18.3702 33.3881 26.1254C33.3881 33.8807 27.0617 40.1899 19.2854 40.1899M21.3497 7.49367C21.3539 7.44991 21.3748 7.41658 21.3748 7.37282V5.2892H23.4641C24.6174 5.2892 25.5534 4.35782 25.5534 3.20557C25.5534 2.05333 24.6174 1.12195 23.4641 1.12195H15.1069C13.9536 1.12195 13.0176 2.05333 13.0176 3.20557C13.0176 4.35782 13.9536 5.2892 15.1069 5.2892H17.1962V7.37282C17.1962 7.41658 17.2171 7.44991 17.2213 7.49367C7.82159 8.52298 0.481934 16.4824 0.481934 26.1254C0.481934 36.4665 8.91847 44.878 19.2855 44.878C29.6525 44.878 38.0891 36.4665 38.0891 26.1254C38.0891 16.4824 30.7494 8.52298 21.3497 7.49367M38.2498 13.4634C38.2498 12.2241 39.2571 11.2195 40.4998 11.2195H44.9998C46.2424 11.2195 47.2498 12.2241 47.2498 13.4634C47.2498 14.7027 46.2424 15.7073 44.9998 15.7073H40.4998C39.2571 15.7073 38.2498 14.7027 38.2498 13.4634ZM41.0623 26.9268C41.0623 25.6876 42.0696 24.6829 43.3123 24.6829H47.8123C49.0549 24.6829 50.0623 25.6876 50.0623 26.9268C50.0623 28.1661 49.0549 29.1707 47.8123 29.1707H43.3123C42.0696 29.1707 41.0623 28.1661 41.0623 26.9268ZM38.2498 39.8293C38.2498 38.59 39.2571 37.5854 40.4998 37.5854H44.9998C46.2424 37.5854 47.2498 38.59 47.2498 39.8293C47.2498 41.0685 46.2424 42.0732 44.9998 42.0732H40.4998C39.2571 42.0732 38.2498 41.0685 38.2498 39.8293Z" fill="white"/>
</g>
</svg>
