<svg width="40" height="25" viewBox="0 0 40 25" fill="none" xmlns="http://www.w3.org/2000/svg">
<path d="M31.0688 19.1437C30.66 19.1437 30.2826 19.301 30.031 19.584C29.7794 19.8356 29.5907 20.2129 29.5907 20.6218C29.5907 21.0306 29.748 21.4079 30.031 21.6595C30.2826 21.9111 30.66 22.0998 31.0688 22.0998C31.4776 22.0998 31.855 21.9425 32.1065 21.6595C32.3581 21.4079 32.5468 21.0306 32.5468 20.6218C32.5468 20.2129 32.3896 19.8356 32.1065 19.584C31.855 19.3324 31.4776 19.1437 31.0688 19.1437ZM28.3643 17.9173C29.0561 17.2254 30.031 16.7852 31.0688 16.7852C32.138 16.7852 33.0814 17.2254 33.7733 17.9173C34.4651 18.6091 34.9054 19.584 34.9054 20.6218C34.9054 21.691 34.4651 22.6344 33.7733 23.3262C33.0814 24.0181 32.1065 24.4583 31.0688 24.4583C29.9996 24.4583 29.0561 24.0181 28.3643 23.3262C27.6724 22.6344 27.2322 21.6595 27.2322 20.6218C27.2322 19.5525 27.6724 18.6091 28.3643 17.9173Z" fill="#0A5BAC"/>
<path d="M14.4018 19.1437C13.993 19.1437 13.6156 19.301 13.364 19.584C13.1124 19.8356 12.9237 20.2129 12.9237 20.6218C12.9237 21.0306 13.081 21.4079 13.364 21.6595C13.6156 21.9111 13.993 22.0998 14.4018 22.0998C14.8106 22.0998 15.188 21.9425 15.4395 21.6595C15.6911 21.4079 15.8798 21.0306 15.8798 20.6218C15.8798 20.2129 15.7226 19.8356 15.4395 19.584C15.188 19.3324 14.8106 19.1437 14.4018 19.1437ZM11.6973 17.9173C12.3891 17.2254 13.364 16.7852 14.4018 16.7852C15.471 16.7852 16.4144 17.2254 17.1063 17.9173C17.7981 18.6091 18.2384 19.584 18.2384 20.6218C18.2384 21.691 17.7981 22.6344 17.1063 23.3262C16.4144 24.0181 15.4395 24.4583 14.4018 24.4583C13.3326 24.4583 12.3891 24.0181 11.6973 23.3262C11.0055 22.6344 10.5652 21.6595 10.5652 20.6218C10.5652 19.5525 11.0055 18.6091 11.6973 17.9173Z" fill="#0A5BAC"/>
<path d="M7.38908 19.1437C6.98027 19.1437 6.6029 19.301 6.35132 19.584C6.09974 19.8356 5.91105 20.2129 5.91105 20.6218C5.91105 21.0306 6.06829 21.4079 6.35132 21.6595C6.6029 21.9111 6.98027 22.0998 7.38908 22.0998C7.7979 22.0998 8.17527 21.9425 8.42685 21.6595C8.67843 21.4079 8.86712 21.0306 8.86712 20.6218C8.86712 20.2129 8.70988 19.8356 8.42685 19.584C8.17527 19.3324 7.7979 19.1437 7.38908 19.1437ZM4.6846 17.9173C5.37645 17.2254 6.35132 16.7852 7.38908 16.7852C8.4583 16.7852 9.40172 17.2254 10.0936 17.9173C10.7854 18.6091 11.2257 19.584 11.2257 20.6218C11.2257 21.691 10.7854 22.6344 10.0936 23.3262C9.40172 24.0181 8.42685 24.4583 7.38908 24.4583C6.31987 24.4583 5.37645 24.0181 4.6846 23.3262C3.99276 22.6344 3.55249 21.6595 3.55249 20.6218C3.55249 19.5525 3.99276 18.6091 4.6846 17.9173Z" fill="#0A5BAC"/>
<path d="M33.7105 18.6725H35.1256V12.3201L32.5155 5.99919H30.3142H26.8864V18.4838H24.5278V5.18155C24.5278 4.80418 24.6851 4.42681 24.9052 4.14378C25.1882 3.82931 25.5656 3.64062 26.0059 3.64062H30.2827H33.0501C33.396 3.64062 33.7105 3.76641 33.9621 3.9551C34.1822 4.14378 34.3395 4.36392 34.4338 4.6155L37.327 11.5968L37.3584 11.6912L37.3899 11.7541C37.3899 11.817 37.4213 11.8799 37.4213 11.9428C37.4213 12.0371 37.4528 12.1 37.4528 12.1629V19.4902C37.4528 19.8675 37.2955 20.2449 37.0754 20.5279C36.7924 20.8424 36.415 21.0311 35.9747 21.0311H33.6791V18.6725H33.7105Z" fill="#0A5BAC"/>
<path d="M21.6498 6.99799L18.3999 4.26707L8.71068 2.45783L3.33455 3.72088L2.3626 9.5241L6.76677 12.4598L16.9419 14.3373L20.6475 12.8695L21.6498 6.92972V6.99799ZM19.6148 2.11647L23.4115 5.29116C23.6241 5.46185 23.8064 5.73494 23.8975 6.00803C23.9886 6.28112 24.019 6.58835 23.9886 6.92972L22.804 13.9277C22.7433 14.2349 22.6522 14.4739 22.4699 14.7129C22.3181 14.9177 22.0751 15.0884 21.8321 15.1908L17.4887 16.8976C17.3672 16.9317 17.2457 16.9659 17.1242 17C17.0027 17 16.8812 17 16.7597 17L6.25042 15.0542C6.1593 15.0542 6.06818 15.0201 5.97706 14.9859C5.88594 14.9518 5.79482 14.9177 5.73407 14.8494L0.722424 11.504C0.449062 11.3333 0.26682 11.0602 0.145326 10.7871C0.0238314 10.4799 -0.0369158 10.1386 0.0238314 9.79719L1.2084 2.7992C1.26915 2.45783 1.39064 2.18474 1.60326 1.94578C1.81587 1.70683 2.05886 1.53614 2.3626 1.46787L8.40695 0.0341365C8.4677 0.0341365 8.55882 0 8.64994 0H8.68031C8.77143 0 8.86255 0 8.95367 0.0341365L18.977 1.91165C19.0985 1.94578 19.22 1.97992 19.3111 2.01406C19.4326 2.08233 19.5237 2.11647 19.6148 2.21888V2.11647Z" fill="#0A5BAC"/>
<path d="M18 2.37956L16.1143 15L14 14.6204L15.8857 2L18 2.37956Z" fill="#0A5BAC"/>
<path d="M10 1.37956L7.6259 14L5 13.6204L7.3741 1L10 1.37956Z" fill="#0A5BAC"/>
<path d="M35.1887 21.0336C34.5283 21.0336 33.9937 20.499 33.9937 19.8386C33.9937 19.1782 34.5283 18.6436 35.1887 18.6436H38.8051C39.4655 18.6436 40.0001 19.1782 40.0001 19.8386C40.0001 20.499 39.4655 21.0336 38.8051 21.0336H35.1887Z" fill="#0A5BAC"/>
<path d="M2.13714 21.0336C1.47675 21.0336 0.942139 20.499 0.942139 19.8386C0.942139 19.1782 1.47675 18.6436 2.13714 18.6436H4.6215C5.28189 18.6436 5.8165 19.1782 5.8165 19.8386C5.8165 20.499 5.28189 21.0336 4.6215 21.0336H2.13714Z" fill="#0A5BAC"/>
<path d="M30.7858 3.89375V10.2461H36.0061V12.6047H29.9053C29.5279 12.6047 29.1505 12.4475 28.899 12.1959C28.6159 11.9129 28.4272 11.5355 28.4272 11.1267V3.8623H30.7858V3.89375Z" fill="#0A5BAC"/>
<path d="M10.0303 14.8042L7.67177 18.9238L5.62769 17.7602L8.0177 13.6406L10.0303 14.8042Z" fill="#0A5BAC"/>
<path d="M19.4962 13.6748L22.4209 18.7693L20.3768 19.9329L17.4521 14.8698L19.4962 13.6748Z" fill="#0A5BAC"/>
<path d="M24.1191 19.1437C23.7102 19.1437 23.3329 19.301 23.0813 19.584C22.8297 19.8356 22.641 20.2129 22.641 20.6218C22.641 21.0306 22.7983 21.4079 23.0813 21.6595C23.3329 21.9111 23.7102 22.0998 24.1191 22.0998C24.5279 22.0998 24.9053 21.9425 25.1568 21.6595C25.4084 21.4079 25.5971 21.0306 25.5971 20.6218C25.5971 20.2129 25.4399 19.8356 25.1568 19.584C24.9053 19.3324 24.5279 19.1437 24.1191 19.1437ZM21.4146 17.9173C22.1064 17.2254 23.0813 16.7852 24.1191 16.7852C25.1883 16.7852 26.1317 17.2254 26.8235 17.9173C27.5154 18.6091 27.9557 19.584 27.9557 20.6218C27.9557 21.691 27.5154 22.6344 26.8235 23.3262C26.1317 24.0181 25.1568 24.4583 24.1191 24.4583C23.0499 24.4583 22.1064 24.0181 21.4146 23.3262C20.7227 22.6344 20.2825 21.6595 20.2825 20.6218C20.2825 19.5525 20.7227 18.6091 21.4146 17.9173Z" fill="#0A5BAC"/>
<path d="M17.3893 21.0336C16.7289 21.0336 16.1943 20.499 16.1943 19.8386C16.1943 19.1782 16.7289 18.6436 17.3893 18.6436H20.88C21.5404 18.6436 22.075 19.1782 22.075 19.8386C22.075 20.499 21.5404 21.0336 20.88 21.0336H17.3893Z" fill="#0A5BAC"/>
</svg>
