<svg width="40" height="23" viewBox="0 0 40 23" fill="none" xmlns="http://www.w3.org/2000/svg">
<path d="M29.9792 16.5299C29.5443 16.5299 29.1428 16.6972 28.8751 16.9984C28.6074 17.266 28.4067 17.6676 28.4067 18.1025C28.4067 18.5375 28.5739 18.939 28.8751 19.2067C29.1428 19.4744 29.5443 19.6751 29.9792 19.6751C30.4142 19.6751 30.8157 19.5078 31.0834 19.2067C31.3511 18.939 31.5518 18.5375 31.5518 18.1025C31.5518 17.6676 31.3845 17.266 31.0834 16.9984C30.8157 16.7307 30.4142 16.5299 29.9792 16.5299ZM27.1017 15.225C27.8378 14.4889 28.8751 14.0205 29.9792 14.0205C31.1168 14.0205 32.1206 14.4889 32.8567 15.225C33.5928 15.9611 34.0613 16.9984 34.0613 18.1025C34.0613 19.2401 33.5928 20.2439 32.8567 20.98C32.1206 21.7161 31.0834 22.1845 29.9792 22.1845C28.8416 22.1845 27.8378 21.7161 27.1017 20.98C26.3656 20.2439 25.8972 19.2067 25.8972 18.1025C25.8972 16.9649 26.3656 15.9611 27.1017 15.225Z" fill="#0A5BAC"/>
<path d="M8.1306 16.5299C7.69563 16.5299 7.29412 16.6972 7.02645 16.9984C6.75878 17.266 6.55802 17.6676 6.55802 18.1025C6.55802 18.5375 6.72532 18.939 7.02645 19.2067C7.29412 19.4744 7.69563 19.6751 8.1306 19.6751C8.56557 19.6751 8.96708 19.5078 9.23475 19.2067C9.50243 18.939 9.70318 18.5375 9.70318 18.1025C9.70318 17.6676 9.53589 17.266 9.23475 16.9984C8.96708 16.7307 8.56557 16.5299 8.1306 16.5299ZM5.25311 15.225C5.98922 14.4889 7.02645 14.0205 8.1306 14.0205C9.26821 14.0205 10.272 14.4889 11.0081 15.225C11.7442 15.9611 12.2126 16.9984 12.2126 18.1025C12.2126 19.2401 11.7442 20.2439 11.0081 20.98C10.272 21.7161 9.23475 22.1845 8.1306 22.1845C6.99299 22.1845 5.98922 21.7161 5.25311 20.98C4.51701 20.2439 4.04858 19.2067 4.04858 18.1025C4.04858 16.9649 4.51701 15.9611 5.25311 15.225Z" fill="#0A5BAC"/>
<path d="M32.4219 16.0281H36.3701V9.47006L33.0577 5.55534H31.2509H27.6038V16.7976C27.6038 17.1991 27.4365 17.6006 27.2023 17.9018C26.9012 18.2364 26.4997 18.4371 26.0312 18.4371H10.2385V15.9277H25.0944V4.6854C25.0944 4.28389 25.2617 3.88238 25.4959 3.58125C25.797 3.24665 26.1985 3.0459 26.667 3.0459H31.2174H33.4926C34.2287 3.0459 34.4964 3.38049 34.7641 3.71508C34.7975 3.74854 34.7641 3.71508 34.7641 3.71508L34.7975 3.74854L38.545 8.16515L38.7457 8.39936L38.8126 8.66704C38.8126 8.73396 38.8461 8.80087 38.8461 8.86779C38.8461 8.96817 38.8796 9.03509 38.8796 9.10201V16.898C38.8796 17.2995 38.7123 17.701 38.4781 18.0021C38.1769 18.3367 37.7754 18.5375 37.307 18.5375H32.4554V16.0281H32.4219Z" fill="#0A5BAC"/>
<path d="M19.6405 6.62491L17.4657 4.61736L10.0043 2.5429L5.92225 2.94441L4.71772 7.26064L7.79596 9.56932L15.6254 11.7442L18.4025 11.075L19.6405 6.62491ZM19.0048 2.60981L21.7819 5.18617C21.9826 5.38692 22.1499 5.62114 22.2169 5.88881C22.2838 6.15648 22.2838 6.42416 22.2169 6.72529L20.6777 12.313C20.6108 12.5806 20.477 12.8149 20.2762 12.9822C20.0755 13.1829 19.8413 13.3167 19.5736 13.3837L15.9935 14.2201C15.8596 14.2536 15.7592 14.2536 15.6254 14.2536H15.5919C15.4581 14.2536 15.3577 14.2201 15.2239 14.1867L6.99294 11.9115C6.89257 11.878 6.79219 11.8445 6.72527 11.8111H6.69181C6.59143 11.7776 6.52451 11.7107 6.4576 11.6772L2.71017 8.86668C2.4425 8.66592 2.2752 8.43171 2.17482 8.13058C2.07445 7.8629 2.07445 7.52831 2.14136 7.22718L3.71395 1.60604C3.81432 1.30491 3.98162 1.03723 4.21583 0.836479C4.45005 0.635724 4.71772 0.535347 5.05231 0.501887L10.0043 0C10.1046 0 10.205 0 10.2719 0C10.3723 0 10.4727 0.0334592 10.5731 0.0669183L18.436 2.24176C18.5364 2.27522 18.6702 2.30868 18.7706 2.3756C18.8709 2.44252 18.9713 2.50944 19.0717 2.57635L19.0048 2.60981Z" fill="#0A5BAC"/>
<path d="M18.1683 3.4785L15.525 13.0144L13.116 12.3452L15.7592 2.84277L18.1683 3.4785Z" fill="#0A5BAC"/>
<path d="M11.7442 1.70434L9.10097 11.2067L6.65845 10.5376L9.30172 1.03516L11.7442 1.70434Z" fill="#0A5BAC"/>
<path d="M36.437 18.538C35.7343 18.538 35.1655 17.9692 35.1655 17.2666C35.1655 16.5639 35.7343 15.9951 36.437 15.9951H38.8126C39.5152 15.9951 40.084 16.5639 40.084 17.2666C40.084 17.9692 39.5152 18.538 38.8126 18.538H36.437Z" fill="#0A5BAC"/>
<path d="M1.27145 18.538C0.568806 18.538 0 17.9692 0 17.2666C0 16.5639 0.568806 15.9951 1.27145 15.9951H5.11925C5.82189 15.9951 6.3907 16.5639 6.3907 17.2666C6.3907 17.9692 5.82189 18.538 5.11925 18.538H1.27145Z" fill="#0A5BAC"/>
<path d="M32.0873 4.2832V8.80019L37.9427 10.2724L37.3404 12.7149L30.8828 11.0754C30.7155 11.042 30.5147 10.975 30.3474 10.8747C29.879 10.607 29.6113 10.2389 29.6113 9.63667V4.2832H32.1208H32.0873Z" fill="#0A5BAC"/>
<path d="M8.16406 16.494V10.7725H10.6735V16.494H8.16406Z" fill="#0A5BAC"/>
<path d="M19.7408 10.708L22.8525 16.1284L20.6776 17.3664L17.5659 11.9795L19.7408 10.708Z" fill="#0A5BAC"/>
</svg>
