<svg width="40" height="25" viewBox="0 0 40 25" fill="none" xmlns="http://www.w3.org/2000/svg">
<path d="M28.8566 18.7768C28.438 18.7768 28.0515 18.9378 27.7938 19.2277C27.5362 19.4853 27.3429 19.8718 27.3429 20.2905C27.3429 20.7092 27.504 21.0956 27.7938 21.3533C28.0515 21.6109 28.438 21.8042 28.8566 21.8042C29.2753 21.8042 29.6618 21.6431 29.9194 21.3533C30.1771 21.0956 30.3703 20.7092 30.3703 20.2905C30.3703 19.8718 30.2093 19.4853 29.9194 19.2277C29.6618 18.97 29.2753 18.7768 28.8566 18.7768ZM26.0869 17.5207C26.7954 16.8122 27.7938 16.3613 28.8566 16.3613C29.9516 16.3613 30.9178 16.8122 31.6264 17.5207C32.3349 18.2293 32.7858 19.2277 32.7858 20.2905C32.7858 21.3855 32.3349 22.3517 31.6264 23.0602C30.9178 23.7687 29.9194 24.2196 28.8566 24.2196C27.7616 24.2196 26.7954 23.7687 26.0869 23.0602C25.3784 22.3517 24.9275 21.3533 24.9275 20.2905C24.9275 19.1955 25.3784 18.2293 26.0869 17.5207Z" fill="#0A5BAC"/>
<path d="M13.7841 18.7768C13.3654 18.7768 12.979 18.9378 12.7213 19.2277C12.4637 19.4853 12.2704 19.8718 12.2704 20.2905C12.2704 20.7092 12.4315 21.0956 12.7213 21.3533C12.979 21.6109 13.3654 21.8042 13.7841 21.8042C14.2028 21.8042 14.5893 21.6431 14.8469 21.3533C15.1046 21.0956 15.2978 20.7092 15.2978 20.2905C15.2978 19.8718 15.1368 19.4853 14.8469 19.2277C14.5893 18.97 14.2028 18.7768 13.7841 18.7768ZM11.0144 17.5207C11.7229 16.8122 12.7213 16.3613 13.7841 16.3613C14.8791 16.3613 15.8453 16.8122 16.5538 17.5207C17.2624 18.2293 17.7133 19.2277 17.7133 20.2905C17.7133 21.3855 17.2624 22.3517 16.5538 23.0602C15.8453 23.7687 14.8469 24.2196 13.7841 24.2196C12.6891 24.2196 11.7229 23.7687 11.0144 23.0602C10.3059 22.3517 9.85498 21.3533 9.85498 20.2905C9.85498 19.1955 10.3059 18.2293 11.0144 17.5207Z" fill="#0A5BAC"/>
<path d="M6.60224 18.7768C6.18356 18.7768 5.79709 18.9378 5.53944 19.2277C5.28179 19.4853 5.08855 19.8718 5.08855 20.2905C5.08855 20.7092 5.24958 21.0956 5.53944 21.3533C5.79709 21.6109 6.18356 21.8042 6.60224 21.8042C7.02092 21.8042 7.40739 21.6431 7.66504 21.3533C7.92269 21.0956 8.11593 20.7092 8.11593 20.2905C8.11593 19.8718 7.9549 19.4853 7.66504 19.2277C7.40739 18.97 7.02092 18.7768 6.60224 18.7768ZM3.83252 17.5207C4.54105 16.8122 5.53944 16.3613 6.60224 16.3613C7.69725 16.3613 8.66343 16.8122 9.37196 17.5207C10.0805 18.2293 10.5314 19.2277 10.5314 20.2905C10.5314 21.3855 10.0805 22.3517 9.37196 23.0602C8.66343 23.7687 7.66504 24.2196 6.60224 24.2196C5.50723 24.2196 4.54105 23.7687 3.83252 23.0602C3.12398 22.3517 2.6731 21.3533 2.6731 20.2905C2.6731 19.1955 3.12398 18.2293 3.83252 17.5207Z" fill="#0A5BAC"/>
<path d="M31.2079 18.2949H35.0082V11.7893L32.3351 5.31585H30.0807H26.5702V19.0356C26.5702 19.4221 26.4092 19.8086 26.1837 20.0984C25.8939 20.4205 25.5074 20.6137 25.0565 20.6137H16.3931V18.1983H24.1869V4.47849C24.1869 4.09202 24.348 3.70554 24.5734 3.41569C24.8633 3.09363 25.2497 2.90039 25.7006 2.90039H30.0807H32.9148C33.2691 2.90039 33.5911 3.02921 33.8488 3.22245C34.0742 3.41569 34.2352 3.64113 34.3319 3.89878L37.2948 11.0485L37.327 11.1452L37.3592 11.2096C37.3592 11.274 37.3914 11.3384 37.3914 11.4028C37.3914 11.4994 37.4236 11.5638 37.4236 11.6282V19.1323C37.4236 19.5187 37.2626 19.9052 37.0372 20.1951C36.7473 20.5171 36.3608 20.7104 35.91 20.7104H31.2401V18.2949H31.2079Z" fill="#0A5BAC"/>
<path d="M20.0645 7.85829L17.8423 5.37842L9.98397 2.41546L5.44291 2.44766L3.67157 7.14975L6.82777 9.98389L15.0725 13.1079L18.2287 12.657L20.0323 7.82608L20.0645 7.85829ZM19.4848 3.60708L22.2223 6.66666C22.4155 6.8599 22.5121 7.11755 22.5765 7.3752C22.641 7.63284 22.6088 7.9227 22.5121 8.18035L20.2899 14.0097C20.1933 14.2673 20.0323 14.4927 19.8068 14.6538C19.6136 14.8148 19.3559 14.9114 19.0661 14.9758L15.1369 15.5233C15.0081 15.5555 14.8793 15.5555 14.7827 15.5233C14.6538 15.5233 14.525 15.4911 14.4284 15.4267L5.79717 12.1739C5.73276 12.1417 5.63614 12.1095 5.57173 12.0451C5.50732 11.9807 5.4107 11.9485 5.34629 11.884L1.61038 8.50241C1.38494 8.30917 1.22391 8.01932 1.1595 7.76167C1.09508 7.47181 1.09508 7.18196 1.22391 6.8921L3.44613 1.03059C3.54275 0.74074 3.73598 0.483091 3.99363 0.322061C4.25128 0.16103 4.54114 0.0644122 4.83099 0.0644122L10.1772 0C10.2738 0 10.3704 0 10.4349 0.0322061H10.4671C10.5637 0.0644122 10.6603 0.0644122 10.7247 0.0966183L18.9373 3.1884C19.0339 3.22061 19.1627 3.28502 19.2593 3.34943C19.3559 3.41385 19.4526 3.47826 19.517 3.57488L19.4848 3.60708Z" fill="#0A5BAC"/>
<path d="M18.5184 4.34712L14.7503 14.2988L12.4958 13.4292L16.264 3.50977L18.5184 4.34712Z" fill="#0A5BAC"/>
<path d="M11.7552 1.80318L8.01932 11.7549L5.76489 10.8853L9.5008 0.96582L11.7552 1.80318Z" fill="#0A5BAC"/>
<path d="M35.0725 20.7084C34.3961 20.7084 33.8486 20.1609 33.8486 19.4846C33.8486 18.8082 34.3961 18.2607 35.0725 18.2607H38.7762C39.4525 18.2607 40 18.8082 40 19.4846C40 20.1609 39.4525 20.7084 38.7762 20.7084H35.0725Z" fill="#0A5BAC"/>
<path d="M1.22383 20.7084C0.547503 20.7084 0 20.1609 0 19.4846C0 18.8082 0.547503 18.2607 1.22383 18.2607H3.76811C4.44444 18.2607 4.99194 18.8082 4.99194 19.4846C4.99194 20.1609 4.44444 20.7084 3.76811 20.7084H1.22383Z" fill="#0A5BAC"/>
<path d="M30.5634 3.15525V9.66088H35.9096V12.0763H29.6616C29.2752 12.0763 28.8887 11.9153 28.631 11.6577C28.3412 11.3678 28.1479 10.9813 28.1479 10.5627V3.12305H30.5634V3.15525Z" fill="#0A5BAC"/>
<path d="M10.2092 12.7854L6.89198 18.5503L4.79858 17.3586L8.14802 11.5938L10.2092 12.7854Z" fill="#0A5BAC"/>
<path d="M19.0016 13.1719L21.9968 18.3893L19.9034 19.5809L16.9082 14.3957L19.0016 13.1719Z" fill="#0A5BAC"/>
</svg>
