<svg width="40" height="25" viewBox="0 0 40 25" fill="none" xmlns="http://www.w3.org/2000/svg">
<path d="M30.8535 19.0033C30.4348 19.0033 30.0483 19.1644 29.7907 19.4542C29.533 19.7119 29.3398 20.0984 29.3398 20.517C29.3398 20.9357 29.5008 21.3222 29.7907 21.5798C30.0483 21.8375 30.4348 22.0307 30.8535 22.0307C31.2721 22.0307 31.6586 21.8697 31.9163 21.5798C32.1739 21.3222 32.3672 20.9357 32.3672 20.517C32.3672 20.0984 32.2061 19.7119 31.9163 19.4542C31.6586 19.1966 31.2721 19.0033 30.8535 19.0033ZM28.0837 17.7473C28.7923 17.0388 29.7907 16.5879 30.8535 16.5879C31.9485 16.5879 32.9147 17.0388 33.6232 17.7473C34.3317 18.4558 34.7826 19.4542 34.7826 20.517C34.7826 21.612 34.3317 22.5782 33.6232 23.2868C32.9147 23.9953 31.9163 24.4462 30.8535 24.4462C29.7585 24.4462 28.7923 23.9953 28.0837 23.2868C27.3752 22.5782 26.9243 21.5798 26.9243 20.517C26.9243 19.422 27.3752 18.4558 28.0837 17.7473Z" fill="#0A5BAC"/>
<path d="M13.7841 19.0033C13.3654 19.0033 12.979 19.1644 12.7213 19.4542C12.4637 19.7119 12.2704 20.0984 12.2704 20.517C12.2704 20.9357 12.4315 21.3222 12.7213 21.5798C12.979 21.8375 13.3654 22.0307 13.7841 22.0307C14.2028 22.0307 14.5893 21.8697 14.8469 21.5798C15.1046 21.3222 15.2978 20.9357 15.2978 20.517C15.2978 20.0984 15.1368 19.7119 14.8469 19.4542C14.5893 19.1966 14.2028 19.0033 13.7841 19.0033ZM11.0144 17.7473C11.7229 17.0388 12.7213 16.5879 13.7841 16.5879C14.8791 16.5879 15.8453 17.0388 16.5539 17.7473C17.2624 18.4558 17.7133 19.4542 17.7133 20.517C17.7133 21.612 17.2624 22.5782 16.5539 23.2868C15.8453 23.9953 14.8469 24.4462 13.7841 24.4462C12.6891 24.4462 11.7229 23.9953 11.0144 23.2868C10.3059 22.5782 9.85498 21.5798 9.85498 20.517C9.85498 19.422 10.3059 18.4558 11.0144 17.7473Z" fill="#0A5BAC"/>
<path d="M6.60224 19.0033C6.18356 19.0033 5.79709 19.1644 5.53944 19.4542C5.28179 19.7119 5.08855 20.0984 5.08855 20.517C5.08855 20.9357 5.24959 21.3222 5.53944 21.5798C5.79709 21.8375 6.18356 22.0307 6.60224 22.0307C7.02092 22.0307 7.4074 21.8697 7.66504 21.5798C7.92269 21.3222 8.11593 20.9357 8.11593 20.517C8.11593 20.0984 7.9549 19.7119 7.66504 19.4542C7.4074 19.1966 7.02092 19.0033 6.60224 19.0033ZM3.83252 17.7473C4.54105 17.0388 5.53944 16.5879 6.60224 16.5879C7.69725 16.5879 8.66343 17.0388 9.37197 17.7473C10.0805 18.4558 10.5314 19.4542 10.5314 20.517C10.5314 21.612 10.0805 22.5782 9.37197 23.2868C8.66343 23.9953 7.66504 24.4462 6.60224 24.4462C5.50723 24.4462 4.54105 23.9953 3.83252 23.2868C3.12398 22.5782 2.6731 21.5798 2.6731 20.517C2.6731 19.422 3.12398 18.4558 3.83252 17.7473Z" fill="#0A5BAC"/>
<path d="M33.5587 18.5176H35.008V12.0119L32.3349 5.53851H30.0805H26.57V18.3243H24.1545V4.70115C24.1545 4.31467 24.3156 3.9282 24.541 3.63834C24.8309 3.31628 25.2173 3.12305 25.6682 3.12305H30.0483H32.8824C33.2367 3.12305 33.5587 3.25187 33.8164 3.44511C34.0418 3.63834 34.2029 3.86379 34.2995 4.12144L37.2624 11.2712L37.2946 11.3678L37.3268 11.4322C37.3268 11.4966 37.3591 11.561 37.3591 11.6255C37.3591 11.7221 37.3913 11.7865 37.3913 11.8509V19.3549C37.3913 19.7414 37.2302 20.1279 37.0048 20.4177C36.7149 20.7398 36.3285 20.933 35.8776 20.933H33.5265V18.5176H33.5587Z" fill="#0A5BAC"/>
<path d="M20.773 8.21256L18.3898 5.57166L10.0806 2.44767L5.24969 2.47987L3.34953 7.50403L6.73118 10.5314L15.459 13.8164L18.8407 13.3333L20.773 8.18036V8.21256ZM20.0323 3.80032L22.9309 7.02093C23.1241 7.24638 23.2529 7.47182 23.2851 7.76168C23.3495 8.01932 23.3173 8.30918 23.2207 8.56683L20.9019 14.7182C20.8053 14.9758 20.6442 15.2013 20.4188 15.3623C20.1933 15.5234 19.9679 15.6522 19.678 15.6844L15.5234 16.2641C15.3946 16.2963 15.2658 16.2963 15.137 16.2641C15.0081 16.2641 14.8793 16.2319 14.7827 16.1675L5.70058 12.7214C5.60396 12.6892 5.53955 12.657 5.44293 12.5926C5.34631 12.5282 5.2819 12.496 5.21749 12.4316L1.25613 8.85668C1.03069 8.66345 0.869661 8.37359 0.805249 8.08374C0.740837 7.79388 0.740837 7.50403 0.869661 7.21417L3.1885 1.0306C3.28512 0.740741 3.47836 0.483092 3.73601 0.322061C3.99365 0.161031 4.28351 0.0644122 4.60557 0.0644122L10.2416 0C10.3383 0 10.4349 0 10.5315 0.0322061C10.6281 0.0322061 10.6925 0.0644122 10.7891 0.0966184L19.4526 3.38164C19.5814 3.41385 19.678 3.47826 19.7747 3.54267C19.8713 3.60709 19.9679 3.6715 20.0323 3.76812V3.80032Z" fill="#0A5BAC"/>
<path d="M19.0337 4.50728L15.0723 15.0065L12.8179 14.1369L16.7792 3.66992L19.0337 4.50728Z" fill="#0A5BAC"/>
<path d="M11.9162 1.83443L7.95487 12.3014L5.70044 11.4641L9.66179 0.99707L11.9162 1.83443Z" fill="#0A5BAC"/>
<path d="M35.0725 20.935C34.3961 20.935 33.8486 20.3875 33.8486 19.7111C33.8486 19.0348 34.3961 18.4873 35.0725 18.4873H38.7762C39.4525 18.4873 40 19.0348 40 19.7111C40 20.3875 39.4525 20.935 38.7762 20.935H35.0725Z" fill="#0A5BAC"/>
<path d="M1.22383 20.935C0.547504 20.935 0 20.3875 0 19.7111C0 19.0348 0.547504 18.4873 1.22383 18.4873H3.76812C4.44444 18.4873 4.99195 19.0348 4.99195 19.7111C4.99195 20.3875 4.44444 20.935 3.76812 20.935H1.22383Z" fill="#0A5BAC"/>
<path d="M30.5637 3.38182V9.88745H35.9099V12.3029H29.6619C29.2754 12.3029 28.8889 12.1419 28.6313 11.8842C28.3414 11.5944 28.1482 11.2079 28.1482 10.7892V3.34961H30.5637V3.38182Z" fill="#0A5BAC"/>
<path d="M10.2092 13.011L6.89198 18.7759L4.79858 17.5842L8.14802 11.8193L10.2092 13.011Z" fill="#0A5BAC"/>
<path d="M19.0016 13.3984L21.9968 18.6158L19.9034 19.8075L16.9082 14.6223L19.0016 13.3984Z" fill="#0A5BAC"/>
<path d="M23.736 19.0033C23.3174 19.0033 22.9309 19.1644 22.6732 19.4542C22.4156 19.7119 22.2223 20.0984 22.2223 20.517C22.2223 20.9357 22.3834 21.3222 22.6732 21.5798C22.9309 21.8375 23.3174 22.0307 23.736 22.0307C24.1547 22.0307 24.5412 21.8697 24.7988 21.5798C25.0565 21.3222 25.2497 20.9357 25.2497 20.517C25.2497 20.0984 25.0887 19.7119 24.7988 19.4542C24.5412 19.1966 24.1547 19.0033 23.736 19.0033ZM20.9663 17.7473C21.6748 17.0388 22.6732 16.5879 23.736 16.5879C24.831 16.5879 25.7972 17.0388 26.5058 17.7473C27.2143 18.4558 27.6652 19.4542 27.6652 20.517C27.6652 21.612 27.2143 22.5782 26.5058 23.2868C25.7972 23.9953 24.7988 24.4462 23.736 24.4462C22.641 24.4462 21.6748 23.9953 20.9663 23.2868C20.2578 22.5782 19.8069 21.5798 19.8069 20.517C19.8069 19.422 20.2578 18.4558 20.9663 17.7473Z" fill="#0A5BAC"/>
<path d="M16.8437 20.935C16.1674 20.935 15.6199 20.3875 15.6199 19.7111C15.6199 19.0348 16.1674 18.4873 16.8437 18.4873H20.4186C21.0949 18.4873 21.6424 19.0348 21.6424 19.7111C21.6424 20.3875 21.0949 20.935 20.4186 20.935H16.8437Z" fill="#0A5BAC"/>
</svg>
