<svg width="19" height="18" viewBox="0 0 19 18" fill="none" xmlns="http://www.w3.org/2000/svg">
<path fill-rule="evenodd" clip-rule="evenodd" d="M6.66667 3.4C6.53517 3.4 6.42857 3.50447 6.42857 3.63333V7.36667C6.42857 7.49553 6.53517 7.6 6.66667 7.6H13.3333C13.4648 7.6 13.5714 7.49553 13.5714 7.36667V3.63333C13.5714 3.50447 13.4648 3.4 13.3333 3.4H6.66667ZM5 3.63333C5 2.73127 5.74619 2 6.66667 2H13.3333C14.2538 2 15 2.73127 15 3.63333V7.36667C15 8.26873 14.2538 9 13.3333 9H6.66667C5.74619 9 5 8.26873 5 7.36667V3.63333Z" fill="#767676"/>
<path fill-rule="evenodd" clip-rule="evenodd" d="M1.66667 9.4C1.53517 9.4 1.42857 9.50447 1.42857 9.63333V13.3667C1.42857 13.4955 1.53517 13.6 1.66667 13.6H8.33333C8.46483 13.6 8.57143 13.4955 8.57143 13.3667V9.63333C8.57143 9.50447 8.46483 9.4 8.33333 9.4H1.66667ZM0 9.63333C0 8.73127 0.746192 8 1.66667 8H8.33333C9.25381 8 10 8.73127 10 9.63333V13.3667C10 14.2687 9.25381 15 8.33333 15H1.66667C0.746192 15 0 14.2687 0 13.3667V9.63333Z" fill="#767676"/>
<path fill-rule="evenodd" clip-rule="evenodd" d="M10.6667 9.4C10.5352 9.4 10.4286 9.50447 10.4286 9.63333V13.3667C10.4286 13.4955 10.5352 13.6 10.6667 13.6H17.3333C17.4648 13.6 17.5714 13.4955 17.5714 13.3667V9.63333C17.5714 9.50447 17.4648 9.4 17.3333 9.4H10.6667ZM9 9.63333C9 8.73127 9.74619 8 10.6667 8H17.3333C18.2538 8 19 8.73127 19 9.63333V13.3667C19 14.2687 18.2538 15 17.3333 15H10.6667C9.74619 15 9 14.2687 9 13.3667V9.63333Z" fill="#767676"/>
</svg>
