<svg width="36" height="33" viewBox="0 0 36 33" fill="none" xmlns="http://www.w3.org/2000/svg">
<g opacity="0.5">
<path d="M1.95684 13.1342H10.4252C10.965 13.1342 11.4374 13.3342 11.7748 13.7007C12.1122 14.034 12.3483 14.5338 12.3483 15.067V29.1632C12.3483 29.6964 12.1459 30.1629 11.7748 30.5295C11.4374 30.8627 10.9313 31.096 10.4252 31.096H1.95684C1.41702 31.096 0.944681 30.896 0.573556 30.5295C0.23617 30.1962 0 29.6964 0 29.1632V15.067C0 14.5338 0.202432 14.0673 0.573556 13.7007C0.910942 13.3675 1.41702 13.1342 1.95684 13.1342ZM9.1769 16.3H3.23891V27.8969H9.1769V16.3Z" fill="white"/>
<path d="M10.29 14.8003C15.5195 12.0344 16.363 8.13542 17.2064 4.13651C17.3751 2.13705 18.3873 0.870732 19.7368 0.30422C20.6478 -0.0956714 21.6937 -0.0956714 22.6721 0.270895C23.583 0.604138 24.4265 1.2373 25.1013 2.17038C26.2484 3.80327 26.8557 6.40256 25.911 9.90161C26.2821 9.86828 26.6195 9.83496 26.9906 9.83496C28.6101 9.70166 30.1621 9.60169 31.5116 9.70166C34.042 9.90161 35.7627 10.8347 35.6614 13.3673C35.8976 14.667 35.3241 15.3335 34.6155 15.9C35.3578 16.4665 36.0326 17.1663 35.9988 18.3993C35.9651 19.8989 35.1216 20.4654 34.2444 21.0319C34.1769 21.0986 34.0757 21.1319 34.0083 21.1652C34.5481 21.7317 35.1216 22.3316 35.1891 23.5312C35.2903 25.3307 34.3456 25.8973 33.3335 26.4971C33.0973 26.6304 32.8611 26.7637 32.7599 26.9303L32.8611 26.8637C32.8949 26.8303 32.9286 26.797 32.9286 26.8303C33.3672 27.6301 33.8058 28.4299 33.131 29.6629C32.7262 30.4627 32.1864 31.0292 31.5453 31.4291C30.8368 31.8956 30.0608 32.0956 29.2511 32.1289C26.4845 32.2289 22.4697 32.2955 19.1295 31.9623C16.5654 31.729 14.3049 31.2625 13.0903 30.4627L9.78394 28.2299L11.5721 25.6307L14.8785 27.8634C15.587 28.3299 17.3076 28.6632 19.3994 28.8298C22.6046 29.1297 26.4508 29.0964 29.1162 28.9631C29.3523 28.9631 29.5548 28.8964 29.7572 28.7631C29.9259 28.6298 30.1283 28.4632 30.2633 28.1966L30.1621 28.2633C30.1283 28.2966 30.0946 28.3299 30.0946 28.2966C29.5885 27.3635 29.0824 26.4304 30.1621 24.9975C30.6344 24.3643 31.1742 24.0644 31.6803 23.7645C31.849 23.6645 31.9839 23.6979 31.9839 23.6645C31.9839 23.6312 31.8152 23.4313 31.6465 23.298C31.0055 22.6315 30.432 21.9983 30.6681 20.6987C30.9043 19.399 31.6803 18.8992 32.4563 18.366C32.625 18.266 32.7599 18.4659 32.7599 18.2993C32.7599 18.166 32.4563 18.2327 32.2201 18.0327C31.4441 17.4662 30.7356 16.9664 30.7693 15.8666C30.8031 14.7003 31.4779 14.2004 32.1864 13.6672C32.2876 13.6006 32.5238 14.1005 32.4563 13.8005L32.3888 13.534L32.4225 13.2674C32.4563 12.9674 31.9502 12.8341 31.2079 12.7675C30.1283 12.6675 28.6776 12.8008 27.1931 12.9008C25.9785 13.0008 24.7639 13.1007 23.6168 13.1007H21.2213L22.1323 10.9347C23.583 7.46894 23.2794 5.13624 22.4359 3.93656C22.166 3.57 21.8624 3.3034 21.525 3.20343C21.2888 3.13678 21.0864 3.10346 20.9177 3.17011C20.614 3.3034 20.3779 3.70329 20.3441 4.4031V4.5364L20.3104 4.63637V4.70302C19.2982 9.40174 18.2861 14.0338 11.7745 17.4995L10.2563 14.7003L10.29 14.8003ZM34.0757 16.0333L34.042 15.9999C34.042 16.1999 34.042 16.1332 34.0757 16.0333ZM34.0757 15.9333C34.042 15.8666 34.042 15.8333 34.042 15.9999V16.0333L34.0757 16.0666V15.9666V15.9333ZM33.9745 21.1652C33.907 21.1985 33.8733 21.1985 33.8733 21.2319C33.8733 21.2652 33.8733 21.2985 33.8733 21.2985L33.907 21.2652C33.9408 21.2319 33.9408 21.1985 33.9745 21.1652ZM33.8733 21.2985C33.8733 21.3318 33.907 21.2985 33.907 21.2652L33.8733 21.2985ZM32.7937 26.897C32.6924 27.0303 32.8274 26.897 32.8949 26.8303L32.7937 26.897ZM30.3645 28.1633C30.4657 27.9967 30.3307 28.1633 30.2295 28.2633L30.3307 28.1966L30.3645 28.1633Z" fill="white"/>
</g>
</svg>
