<svg width="15" height="18" viewBox="0 0 15 18" fill="none" xmlns="http://www.w3.org/2000/svg">
<path fill-rule="evenodd" clip-rule="evenodd" d="M7.49972 10.8H4.68722C4.16972 10.8 3.74972 10.3968 3.74972 9.9C3.74972 9.4032 4.16972 9 4.68722 9H7.49972C8.01722 9 8.43722 9.4032 8.43722 9.9C8.43722 10.3968 8.01722 10.8 7.49972 10.8ZM4.68725 12.6H10.3123C10.8307 12.6 11.2498 13.0032 11.2498 13.5C11.2498 13.9968 10.8307 14.4 10.3123 14.4H4.68725C4.16975 14.4 3.74975 13.9968 3.74975 13.5C3.74975 13.0032 4.16975 12.6 4.68725 12.6ZM12.6038 16.2H2.39536C2.10849 16.2 1.87505 15.9984 1.87505 15.75V2.25005C1.87505 2.00165 2.10849 1.80005 2.39536 1.80005H7.50005V4.63505C7.50005 6.04985 8.64099 7.20005 10.0444 7.20005H13.1251V15.75C13.1251 15.9984 12.8916 16.2 12.6038 16.2ZM9.375 2.68018L11.9456 5.39998H10.0444C9.675 5.39998 9.375 5.05708 9.375 4.63498V2.68018ZM14.7562 5.6952L9.6525 0.2952C9.47437 0.1071 9.22313 0 8.95781 0H2.39531C1.07438 0 0 1.0098 0 2.25V15.75C0 16.9902 1.07438 18 2.39531 18H12.6038C13.9247 18 15 16.9902 15 15.75V6.3C15 6.0759 14.9128 5.8608 14.7562 5.6952Z" fill="#767676"/>
</svg>
