<svg width="18" height="18" viewBox="0 0 18 18" fill="none" xmlns="http://www.w3.org/2000/svg">
<path d="M17 9.25H1C0.861929 9.25 0.75 9.13807 0.75 9V1C0.75 0.861929 0.861929 0.75 1 0.75H17C17.1381 0.75 17.25 0.861929 17.25 1V9C17.25 9.13807 17.1381 9.25 17 9.25Z" stroke="#767676" stroke-width="1.5"/>
<path fill-rule="evenodd" clip-rule="evenodd" d="M0.25 12C0.25 11.5858 0.585786 11.25 1 11.25H17C17.4142 11.25 17.75 11.5858 17.75 12C17.75 12.4142 17.4142 12.75 17 12.75H1C0.585786 12.75 0.25 12.4142 0.25 12Z" fill="#767676"/>
<path fill-rule="evenodd" clip-rule="evenodd" d="M0.25 14.75C0.25 14.3358 0.585786 14 1 14H1.5C1.91421 14 2.25 14.3358 2.25 14.75C2.25 15.1642 1.91421 15.5 1.5 15.5H1C0.585786 15.5 0.25 15.1642 0.25 14.75ZM3.25 14.75C3.25 14.3358 3.58579 14 4 14H4.5C4.91421 14 5.25 14.3358 5.25 14.75C5.25 15.1642 4.91421 15.5 4.5 15.5H4C3.58579 15.5 3.25 15.1642 3.25 14.75ZM6.25 14.75C6.25 14.3358 6.58579 14 7 14H7.5C7.91421 14 8.25 14.3358 8.25 14.75C8.25 15.1642 7.91421 15.5 7.5 15.5H7C6.58579 15.5 6.25 15.1642 6.25 14.75ZM9.25 14.75C9.25 14.3358 9.58579 14 10 14H10.5C10.9142 14 11.25 14.3358 11.25 14.75C11.25 15.1642 10.9142 15.5 10.5 15.5H10C9.58579 15.5 9.25 15.1642 9.25 14.75ZM12.25 14.75C12.25 14.3358 12.5858 14 13 14H13.5C13.9142 14 14.25 14.3358 14.25 14.75C14.25 15.1642 13.9142 15.5 13.5 15.5H13C12.5858 15.5 12.25 15.1642 12.25 14.75ZM15.25 14.75C15.25 14.3358 15.5858 14 16 14H16.5C16.9142 14 17.25 14.3358 17.25 14.75C17.25 15.1642 16.9142 15.5 16.5 15.5H16C15.5858 15.5 15.25 15.1642 15.25 14.75ZM1.75 16.75C1.75 16.3358 2.08579 16 2.5 16H3C3.41421 16 3.75 16.3358 3.75 16.75C3.75 17.1642 3.41421 17.5 3 17.5H2.5C2.08579 17.5 1.75 17.1642 1.75 16.75ZM4.75 16.75C4.75 16.3358 5.08579 16 5.5 16H6C6.41421 16 6.75 16.3358 6.75 16.75C6.75 17.1642 6.41421 17.5 6 17.5H5.5C5.08579 17.5 4.75 17.1642 4.75 16.75ZM7.75 16.75C7.75 16.3358 8.08579 16 8.5 16H9C9.41421 16 9.75 16.3358 9.75 16.75C9.75 17.1642 9.41421 17.5 9 17.5H8.5C8.08579 17.5 7.75 17.1642 7.75 16.75ZM10.75 16.75C10.75 16.3358 11.0858 16 11.5 16H12C12.4142 16 12.75 16.3358 12.75 16.75C12.75 17.1642 12.4142 17.5 12 17.5H11.5C11.0858 17.5 10.75 17.1642 10.75 16.75ZM13.75 16.75C13.75 16.3358 14.0858 16 14.5 16H15C15.4142 16 15.75 16.3358 15.75 16.75C15.75 17.1642 15.4142 17.5 15 17.5H14.5C14.0858 17.5 13.75 17.1642 13.75 16.75Z" fill="#767676"/>
</svg>
