<svg width="18" height="18" viewBox="0 0 18 18" fill="none" xmlns="http://www.w3.org/2000/svg">
<path fill-rule="evenodd" clip-rule="evenodd" d="M1.50005 5.30336L1.5 12.5729L9.00005 16.3229L16.5 12.5729L16.5 5.30336L9.00005 1.667L1.50005 5.30336ZM16.7819 5.44002C16.7817 5.43993 16.7815 5.43983 16.7813 5.43973L16.7819 5.44002ZM9.22366 16.4347L9.22308 16.4345L9.22366 16.4347ZM0.563775 4.0903L8.56378 0.211514C8.83929 0.0779326 9.16082 0.0779331 9.43633 0.211514L17.4363 4.0903C17.7811 4.25747 18.0001 4.60695 18 4.99012L18 12.882C18 13.2607 17.786 13.607 17.4472 13.7764L9.44727 17.7764C9.16574 17.9171 8.83437 17.9171 8.55284 17.7764L0.552789 13.7764C0.214002 13.607 -3.80618e-06 13.2607 0 12.8819L4.86023e-05 4.99011C5.09621e-05 4.60695 0.218996 4.25747 0.563775 4.0903Z" fill="#767676"/>
<path fill-rule="evenodd" clip-rule="evenodd" d="M8.24887 8.8258L1 5.26503L1.64383 4L8.89269 7.56076C8.96025 7.59394 9.03975 7.59394 9.1073 7.56076L16.3562 4L17 5.26503L9.75113 8.8258C9.27828 9.05807 8.72172 9.05807 8.24887 8.8258Z" fill="#767676"/>
<path fill-rule="evenodd" clip-rule="evenodd" d="M8.25 17V8H9.75V17H8.25Z" fill="#767676"/>
</svg>
