<svg width="18" height="18" viewBox="0 0 18 18" fill="none" xmlns="http://www.w3.org/2000/svg">
<path fill-rule="evenodd" clip-rule="evenodd" d="M16 1.5H2C1.72386 1.5 1.5 1.72386 1.5 2V16C1.5 16.2761 1.72386 16.5 2 16.5H16C16.2761 16.5 16.5 16.2761 16.5 16V2C16.5 1.72386 16.2761 1.5 16 1.5ZM2 0C0.895431 0 0 0.89543 0 2V16C0 17.1046 0.89543 18 2 18H16C17.1046 18 18 17.1046 18 16V2C18 0.895431 17.1046 0 16 0H2Z" fill="#767676"/>
<path d="M8.57561 5.87805L7.58699 6.86667C7.50461 6.94905 7.40488 6.99024 7.2878 6.99024C7.00163 6.99024 6.85854 6.84715 6.85854 6.56098C6.85854 6.4439 6.89973 6.34417 6.98211 6.26179L8.66016 4.58374C8.7729 4.471 8.8878 4.41463 9.00488 4.41463C9.29106 4.41463 9.43415 4.55772 9.43415 4.8439V12.5707C9.43415 12.8569 9.29106 13 9.00488 13C8.7187 13 8.57561 12.8569 8.57561 12.5707V5.87805Z" fill="#767676"/>
<path d="M8.57561 5.87805H8.97561V4.91236L8.29277 5.59521L8.57561 5.87805ZM7.58699 6.86667L7.86983 7.14951L7.86983 7.14951L7.58699 6.86667ZM6.98211 6.26179L7.26496 6.54463L7.26496 6.54463L6.98211 6.26179ZM8.66016 4.58374L8.94301 4.86658L8.94301 4.86658L8.66016 4.58374ZM8.29277 5.59521L7.30415 6.58382L7.86983 7.14951L8.85845 6.16089L8.29277 5.59521ZM7.30415 6.58382C7.30036 6.58761 7.29804 6.58927 7.29735 6.58974C7.29672 6.59017 7.29691 6.58997 7.2977 6.58964C7.29849 6.58932 7.29866 6.58937 7.29769 6.58955C7.29665 6.58975 7.29354 6.59024 7.2878 6.59024V7.39024C7.51039 7.39024 7.71203 7.30732 7.86983 7.14951L7.30415 6.58382ZM7.2878 6.59024C7.2484 6.59024 7.2302 6.58518 7.22649 6.58394C7.22503 6.58346 7.22734 6.58407 7.23202 6.58688C7.23684 6.58977 7.24275 6.59414 7.2487 6.60008C7.25464 6.60603 7.25901 6.61194 7.2619 6.61676C7.26471 6.62144 7.26532 6.62375 7.26484 6.62229C7.2636 6.61858 7.25854 6.60038 7.25854 6.56098H6.45854C6.45854 6.76572 6.50999 6.99275 6.68301 7.16577C6.85603 7.33879 7.08306 7.39024 7.2878 7.39024V6.59024ZM7.25854 6.56098C7.25854 6.55525 7.25903 6.55213 7.25923 6.55109C7.25941 6.55012 7.25946 6.55029 7.25914 6.55108C7.25881 6.55187 7.25861 6.55206 7.25904 6.55143C7.25951 6.55074 7.26117 6.54842 7.26496 6.54463L6.69927 5.97895C6.54146 6.13675 6.45854 6.33839 6.45854 6.56098H7.25854ZM7.26496 6.54463L8.94301 4.86658L8.37732 4.3009L6.69927 5.97895L7.26496 6.54463ZM8.94301 4.86658C8.97558 4.834 8.99746 4.82074 9.00706 4.81603C9.01488 4.81219 9.01295 4.81463 9.00488 4.81463V4.01463C8.74796 4.01463 8.53724 4.14098 8.37732 4.3009L8.94301 4.86658ZM9.00488 4.81463C9.04428 4.81463 9.06248 4.8197 9.06619 4.82094C9.06765 4.82142 9.06534 4.8208 9.06067 4.818C9.05585 4.81511 9.04993 4.81074 9.04399 4.80479C9.03804 4.79885 9.03368 4.79294 9.03078 4.78812C9.02798 4.78344 9.02736 4.78113 9.02784 4.78259C9.02908 4.7863 9.03415 4.8045 9.03415 4.8439H9.83415C9.83415 4.63916 9.78269 4.41213 9.60967 4.23911C9.43666 4.06609 9.20963 4.01463 9.00488 4.01463V4.81463ZM9.03415 4.8439V12.5707H9.83415V4.8439H9.03415ZM9.03415 12.5707C9.03415 12.6101 9.02908 12.6283 9.02784 12.632C9.02736 12.6335 9.02798 12.6312 9.03078 12.6265C9.03368 12.6217 9.03804 12.6158 9.04399 12.6098C9.04993 12.6039 9.05584 12.5995 9.06067 12.5966C9.06534 12.5938 9.06765 12.5932 9.06619 12.5937C9.06248 12.5949 9.04428 12.6 9.00488 12.6V13.4C9.20963 13.4 9.43666 13.3485 9.60967 13.1755C9.78269 13.0025 9.83415 12.7755 9.83415 12.5707H9.03415ZM9.00488 12.6C8.96547 12.6 8.94728 12.5949 8.94356 12.5937C8.94211 12.5932 8.94441 12.5938 8.94909 12.5966C8.95391 12.5995 8.95983 12.6039 8.96577 12.6098C8.97171 12.6158 8.97608 12.6217 8.97897 12.6265C8.98178 12.6312 8.9824 12.6335 8.98191 12.632C8.98067 12.6283 8.97561 12.6101 8.97561 12.5707H8.17561C8.17561 12.7755 8.22707 13.0025 8.40008 13.1755C8.5731 13.3485 8.80013 13.4 9.00488 13.4V12.6ZM8.97561 12.5707V5.87805H8.17561V12.5707H8.97561Z" fill="#767676"/>
</svg>
