<svg width="18" height="18" viewBox="0 0 18 18" fill="none" xmlns="http://www.w3.org/2000/svg">
<path fill-rule="evenodd" clip-rule="evenodd" d="M2.30026 5L9 8.38142L15.6997 5L9 1.61858L2.30026 5ZM16.5914 4.54996L16.5908 4.5503L16.5914 4.54996ZM8.44958 0.129573L0.582961 4.09993C-0.194319 4.49223 -0.194321 5.50777 0.58296 5.90007L8.44958 9.87043C8.79189 10.0432 9.20811 10.0432 9.55042 9.87043L17.417 5.90007C18.1943 5.50777 18.1943 4.49223 17.417 4.09993L9.55042 0.129573C9.20811 -0.0431911 8.79189 -0.0431911 8.44958 0.129573Z" fill="#767676"/>
<path fill-rule="evenodd" clip-rule="evenodd" d="M0.0872468 12.435C0.27293 12.0268 0.694404 11.8798 1.02863 12.1066L9 16.1873L16.9714 12.1066C17.3056 11.8798 17.7271 12.0268 17.9128 12.435C18.0984 12.8432 17.978 13.358 17.6438 13.5847L9.33621 17.8936C9.12712 18.0355 8.87288 18.0355 8.66379 17.8936L0.356214 13.5847C0.0219843 13.358 -0.0984367 12.8432 0.0872468 12.435Z" fill="#767676"/>
<path fill-rule="evenodd" clip-rule="evenodd" d="M0.0872468 8.43504C0.27293 8.02685 0.694404 7.87978 1.02863 8.10655L9 12.1873L16.9714 8.10655C17.3056 7.87978 17.7271 8.02685 17.9128 8.43504C18.0984 8.84323 17.978 9.35797 17.6438 9.58474L9.33621 13.8936C9.12712 14.0355 8.87288 14.0355 8.66379 13.8936L0.356214 9.58474C0.0219843 9.35797 -0.0984367 8.84323 0.0872468 8.43504Z" fill="#767676"/>
</svg>
