<svg width="19" height="18" viewBox="0 0 19 18" fill="none" xmlns="http://www.w3.org/2000/svg">
<path fill-rule="evenodd" clip-rule="evenodd" d="M11.065 9.1144C11.3579 8.82151 11.3579 8.34663 11.065 8.05374L10.0694 7.05821C8.80023 5.789 6.74245 5.789 5.47325 7.05821L1.29815 11.2333C0.0289506 12.5025 0.0289528 14.5603 1.29816 15.8295L2.36812 16.8995C3.63732 18.1687 5.69511 18.1687 6.96431 16.8995L10.0157 13.8481C10.3086 13.5552 10.3086 13.0803 10.0157 12.7874C9.72279 12.4945 9.24792 12.4945 8.95503 12.7874L5.90365 15.8388C5.22024 16.5222 4.1122 16.5222 3.42878 15.8388L2.35882 14.7688C1.6754 14.0854 1.6754 12.9774 2.35881 12.294L6.53391 8.11887C7.21732 7.43545 8.32536 7.43545 9.00878 8.11887L10.0043 9.1144C10.2972 9.40729 10.7721 9.40729 11.065 9.1144Z" fill="#767676"/>
<path fill-rule="evenodd" clip-rule="evenodd" d="M7.57907 9.08311C7.28618 9.376 7.28618 9.85088 7.57907 10.1438L8.57461 11.1393C9.84381 12.4085 11.9016 12.4085 13.1708 11.1393L17.3459 6.96421C18.6151 5.69501 18.6151 3.63722 17.3459 2.36802L16.2759 1.29805C15.0067 0.0288495 12.9489 0.0288501 11.6797 1.29805L8.62836 4.34943C8.33546 4.64232 8.33546 5.11719 8.62836 5.41009C8.92125 5.70298 9.39612 5.70298 9.68902 5.41009L12.7404 2.35871C13.4238 1.6753 14.5318 1.6753 15.2153 2.35871L16.2852 3.42868C16.9686 4.1121 16.9686 5.22014 16.2852 5.90355L12.1101 10.0786C11.4267 10.7621 10.3187 10.7621 9.63527 10.0786L8.63973 9.08311C8.34684 8.79022 7.87197 8.79022 7.57907 9.08311Z" fill="#767676"/>
</svg>
