<svg width="44" height="44" viewBox="0 0 44 44" fill="none" xmlns="http://www.w3.org/2000/svg">
<g clip-path="url(#clip0)">
<path d="M5.58176 5.83447H31.0306C31.7347 5.83447 32.3718 6.138 32.8412 6.61016C33.3106 7.08232 33.6124 7.7231 33.6124 8.43134V40.4031C33.6124 41.1114 33.3106 41.7522 32.8412 42.2243C32.3718 42.6965 31.7347 43 31.0306 43H5.58176C4.87765 43 4.24059 42.6965 3.77118 42.2243C3.30176 41.7522 3 41.1114 3 40.4031V8.43134C3 7.7231 3.30176 7.08232 3.77118 6.61016C4.24059 6.138 4.87765 5.83447 5.58176 5.83447ZM31.0306 8.36389H5.58176C5.58176 8.36389 5.54824 8.36389 5.54824 8.39761L5.51471 8.43134V40.4031C5.51471 40.4031 5.51471 40.4369 5.54824 40.4369L5.58176 40.4706H31.0306C31.0641 40.4706 31.0641 40.4706 31.0641 40.4706V40.4369V8.46506C31.0641 8.43134 31.0641 8.43134 31.0641 8.43134H31.0306V8.36389Z" fill="white"/>
<path d="M9.16895 4.45177V2.59687C9.16895 1.88863 9.47071 1.24784 9.94012 0.775687C10.4095 0.30353 11.0466 0 11.7507 0H37.1995C37.9037 0 38.5407 0.30353 39.0101 0.775687C39.4795 1.24784 39.7813 1.88863 39.7813 2.59687V34.5687C39.7813 35.2769 39.4795 35.9177 39.0101 36.3898C38.5407 36.862 37.9037 37.1655 37.1995 37.1655H35.4225V34.6361H37.1995C37.2331 34.6361 37.2331 34.6361 37.2331 34.6361V34.6024V2.63059C37.2331 2.59687 37.2331 2.59687 37.2331 2.59687H37.1995H11.7507C11.7507 2.59687 11.7172 2.59687 11.7172 2.63059V2.66432V4.51922H9.20247L9.16895 4.45177Z" fill="white"/>
<path d="M8.63184 12.1077H28.2465V14.6371H8.63184V12.1077Z" fill="white"/>
<path d="M8.63184 17.5371H28.2465V20.0665H8.63184V17.5371Z" fill="white"/>
<path d="M8.63184 23.001H28.2465V25.5304H8.63184V23.001Z" fill="white"/>
<path d="M24.0248 28.9028C25.2319 28.9028 26.3719 29.4087 27.1766 30.2181C27.9813 31.0275 28.4843 32.1405 28.4843 33.3883C28.4843 34.6024 27.9813 35.7491 27.1766 36.5585C26.3719 37.3679 25.2654 37.8738 24.0248 37.8738C22.7843 37.8738 21.6778 37.3679 20.8731 36.5585C20.0684 35.7491 19.5654 34.6362 19.5654 33.3883C19.5654 32.1405 20.0684 31.0275 20.8731 30.2181C21.6778 29.4087 22.7843 28.9028 24.0248 28.9028ZM25.3995 32.0056C25.0643 31.6683 24.5613 31.4322 24.0248 31.4322C23.4884 31.4322 23.019 31.6346 22.6501 32.0056C22.3148 32.3428 22.0801 32.8487 22.0801 33.3883C22.0801 33.9279 22.2813 34.4001 22.6501 34.7711C22.9854 35.1083 23.4884 35.3444 24.0248 35.3444C24.5613 35.3444 25.0307 35.1421 25.3995 34.7711C25.7348 34.4338 25.9695 33.9279 25.9695 33.3883C25.9695 32.8487 25.7684 32.3766 25.3995 32.0056Z" fill="white"/>
</g>
<defs>
<clipPath id="clip0">
<rect width="44" height="44" fill="white"/>
</clipPath>
</defs>
</svg>
