<svg width="18" height="19" viewBox="0 0 18 19" fill="none" xmlns="http://www.w3.org/2000/svg">
<path fill-rule="evenodd" clip-rule="evenodd" d="M15.6901 12.9645L10.0001 15.6085V8.8925L16.0001 6.1055V12.5405C16.0001 12.7145 15.8821 12.8765 15.6901 12.9645ZM2.30308 12.9655C2.11408 12.8775 1.99808 12.7155 2.00008 12.5335V6.1055L8.00008 8.8925V15.6105L2.30308 12.9655ZM8.70708 2.0655C8.79808 2.0225 8.89908 2.0015 9.00008 2.0015C9.10008 2.0015 9.20108 2.0225 9.29208 2.0655L14.6211 4.5395L9.00008 7.1515L3.37808 4.5395L8.70708 2.0655ZM17.6561 4.2605C17.6531 4.2525 17.6541 4.2435 17.6501 4.2355C17.6471 4.2275 17.6391 4.2225 17.6341 4.2145C17.5881 4.1385 17.5321 4.0715 17.4791 4.0015C17.4481 3.9675 17.4231 3.9295 17.3891 3.9005C17.1541 3.6245 16.8771 3.3815 16.5331 3.2225L10.1331 0.249501C10.1321 0.249501 10.1311 0.249501 10.1311 0.248501C9.41208 -0.0834994 8.58708 -0.0824994 7.86608 0.249501L1.46908 3.2215C1.12508 3.3805 0.847083 3.6225 0.612083 3.8985C0.575083 3.9295 0.548083 3.9715 0.515083 4.0085C0.463083 4.0755 0.410083 4.1405 0.366083 4.2125C0.361083 4.2215 0.353083 4.2275 0.349083 4.2355C0.345083 4.2445 0.346083 4.2535 0.342083 4.2625C0.131083 4.6245 8.28435e-05 5.0315 8.28435e-05 5.4595V12.5265C-0.00791716 13.4765 0.564083 14.3605 1.45808 14.7785L7.85708 17.7505C8.21908 17.9195 8.60708 18.0035 8.99608 18.0035C9.38408 18.0035 9.77208 17.9195 10.1331 17.7515L16.5301 14.7795C17.4221 14.3675 17.9991 13.4895 18.0001 12.5415V5.4585C17.9991 5.0305 17.8681 4.6235 17.6561 4.2605Z" fill="#767676"/>
</svg>
