<svg width="45" height="46" viewBox="0 0 45 46" fill="none" xmlns="http://www.w3.org/2000/svg">
<path opacity="0.5" fill-rule="evenodd" clip-rule="evenodd" d="M39.9746 41.3972H32.4996V25.2873C32.4996 24.0146 31.3796 22.9859 29.9996 22.9859H14.9996C13.6171 22.9859 12.4996 24.0146 12.4996 25.2873V41.3972H4.99958L5.01458 22.0262L22.4946 5.56883L39.9996 22.1206L39.9746 41.3972ZM17.5004 41.3972H27.5004V27.5887H17.5004V41.3972ZM43.56 18.8088L24.2875 0.664532C23.345 -0.221511 21.655 -0.221511 20.7125 0.664532L1.4375 18.8111C0.525 19.6742 0 20.8801 0 22.1206V41.3972C0 43.9356 2.1175 46 4.72 46H15H30H40.2775C42.88 46 45 43.9356 45 41.3972V22.1206C45 20.8801 44.475 19.6742 43.56 18.8088V18.8088Z" fill="white"/>
</svg>
