<svg width="44" height="44" viewBox="0 0 44 44" fill="none" xmlns="http://www.w3.org/2000/svg">
<g clip-path="url(#clip0)">
<path d="M21.993 41.0376C24.7827 40.0098 27.3154 38.7618 29.4811 36.9999C31.7201 35.2013 33.5554 32.7787 34.9136 29.4751L34.9503 29.4017C36.2717 26.5386 37.1527 23.1983 37.6298 19.4176C38.0703 15.9672 38.107 12.1131 37.7767 7.89184C34.9136 8.18549 32.1606 8.00196 29.5912 7.34125C26.9116 6.64383 24.3789 5.39582 22.0664 3.5605C19.7539 5.39582 17.2212 6.64383 14.5416 7.34125C11.9722 8.00196 9.21921 8.18549 6.35613 7.89184C6.02577 12.1131 6.09918 15.9672 6.50295 19.4176C6.98013 23.1983 7.86108 26.5019 9.18251 29.4017L9.21921 29.4751C10.5406 32.7787 12.4127 35.1646 14.6517 36.9999C16.8174 38.7618 19.3501 40.0098 22.1398 41.0376H21.993ZM31.2062 39.1288C28.6735 41.1844 25.7003 42.6159 22.4702 43.7905L21.993 43.9741L21.5158 43.7905C18.2857 42.6159 15.3124 41.1844 12.7797 39.1288C10.2103 37.0366 8.08132 34.3203 6.57636 30.5396C5.14482 27.4196 4.19046 23.8223 3.67657 19.748C3.19939 15.747 3.16269 11.2321 3.63987 6.20335L3.78669 4.77181L5.21823 4.99205C8.26485 5.46923 11.1279 5.39582 13.7708 4.6984C16.4136 4.00098 18.8362 2.71626 21.112 0.770831L21.993 0L22.8739 0.770831C25.113 2.71626 27.5723 4.00098 30.2152 4.6984C32.858 5.39582 35.7211 5.46923 38.7677 4.99205L40.1993 4.77181L40.3461 6.20335C40.8233 11.2321 40.7866 15.7103 40.3094 19.748C39.7955 23.8223 38.8411 27.3828 37.4096 30.5396C35.9046 34.2836 33.7757 37.0366 31.2062 39.1288Z" fill="#0A5BAC"/>
<path d="M17.2941 20.5553V13.6546C17.2941 13.2508 17.4042 12.9204 17.6245 12.7002C17.8447 12.48 18.1751 12.3331 18.5788 12.3331H24.5619C24.9657 12.3331 25.2961 12.4432 25.5163 12.7002C25.7365 12.9204 25.8834 13.2508 25.8834 13.6546C25.8834 14.0583 25.7733 14.3887 25.5163 14.6089C25.2961 14.8292 24.9657 14.976 24.5619 14.976H19.9003V19.2339H21.9925C22.6532 19.2339 23.2405 19.344 23.8278 19.601C24.3784 19.8212 24.8923 20.1883 25.3695 20.6654C25.8467 21.1426 26.177 21.6565 26.3973 22.2071C26.6175 22.7577 26.7643 23.3817 26.7643 24.0424V25.7676C26.7643 26.4283 26.6542 27.0156 26.3973 27.6029C26.177 28.1535 25.81 28.6674 25.3328 29.1446C24.8556 29.6218 24.3417 29.9521 23.7911 30.1724C23.2405 30.3926 22.6165 30.5394 21.9925 30.5394H18.5421C18.1384 30.5394 17.808 30.4293 17.5878 30.1724C17.3675 29.9521 17.2574 29.6218 17.2574 29.218C17.2574 28.8142 17.3675 28.4839 17.5878 28.2636C17.808 28.0434 18.1384 27.8966 18.5421 27.8966H21.9558C22.2495 27.8966 22.5431 27.8599 22.7633 27.7497C23.0203 27.6396 23.2405 27.4928 23.4241 27.3093C23.6443 27.089 23.7911 26.8688 23.9012 26.6486C24.0114 26.3916 24.0481 26.1347 24.0481 25.841V24.1158C24.0481 23.8222 24.0114 23.5652 23.9012 23.3083C23.7911 23.0513 23.6443 22.8311 23.4241 22.6109C23.2038 22.3906 22.9836 22.2438 22.7266 22.1337C22.4697 22.0236 22.2127 21.9869 21.9191 21.9869H18.5054C18.1017 21.9869 17.7713 21.8767 17.5511 21.6198C17.3308 21.3996 17.2207 21.0692 17.2207 20.6654L17.2941 20.5553Z" fill="#0A5BAC"/>
</g>
<defs>
<clipPath id="clip0">
<rect width="44" height="44" fill="white"/>
</clipPath>
</defs>
</svg>
