<svg width="44" height="44" viewBox="0 0 44 44" fill="none" xmlns="http://www.w3.org/2000/svg">
<g clip-path="url(#clip0)">
<path d="M30.0726 34.8223C29.6363 34.8223 29.2336 34.9901 28.9651 35.2922C28.6966 35.5607 28.4952 35.9635 28.4952 36.3998C28.4952 36.8361 28.663 37.2388 28.9651 37.5073C29.2336 37.7758 29.6363 37.9772 30.0726 37.9772C30.5089 37.9772 30.9117 37.8094 31.1802 37.5073C31.4487 37.2388 31.65 36.8361 31.65 36.3998C31.65 35.9635 31.4822 35.5607 31.1802 35.2922C30.9117 35.0237 30.5089 34.8223 30.0726 34.8223ZM27.1863 33.5134C27.9246 32.775 28.9651 32.3052 30.0726 32.3052C31.2137 32.3052 32.2206 32.775 32.959 33.5134C33.6973 34.2518 34.1672 35.2922 34.1672 36.3998C34.1672 37.5409 33.6973 38.5477 32.959 39.2861C32.2206 40.0245 31.1802 40.4943 30.0726 40.4943C28.9315 40.4943 27.9246 40.0245 27.1863 39.2861C26.4479 38.5477 25.978 37.5073 25.978 36.3998C25.978 35.2586 26.4479 34.2518 27.1863 33.5134Z" fill="#0A5BAC"/>
<path d="M14.3646 34.8223C13.9283 34.8223 13.5256 34.9901 13.2571 35.2922C12.9886 35.5607 12.7872 35.9635 12.7872 36.3998C12.7872 36.8361 12.955 37.2388 13.2571 37.5073C13.5256 37.7758 13.9283 37.9772 14.3646 37.9772C14.8009 37.9772 15.2037 37.8094 15.4722 37.5073C15.7407 37.2388 15.942 36.8361 15.942 36.3998C15.942 35.9635 15.7742 35.5607 15.4722 35.2922C15.2037 35.0237 14.8009 34.8223 14.3646 34.8223ZM11.4783 33.5134C12.2166 32.775 13.2571 32.3052 14.3646 32.3052C15.5057 32.3052 16.5126 32.775 17.251 33.5134C17.9893 34.2518 18.4592 35.2922 18.4592 36.3998C18.4592 37.5409 17.9893 38.5477 17.251 39.2861C16.5126 40.0245 15.4722 40.4943 14.3646 40.4943C13.2235 40.4943 12.2166 40.0245 11.4783 39.2861C10.7399 38.5477 10.27 37.5073 10.27 36.3998C10.27 35.2586 10.7399 34.2518 11.4783 33.5134Z" fill="#0A5BAC"/>
<path d="M6.88072 34.8223C6.44441 34.8223 6.04166 34.9901 5.77317 35.2922C5.50467 35.5607 5.3033 35.9635 5.3033 36.3998C5.3033 36.8361 5.47111 37.2388 5.77317 37.5073C6.04166 37.7758 6.44441 37.9772 6.88072 37.9772C7.31703 37.9772 7.71977 37.8094 7.98827 37.5073C8.25677 37.2388 8.45814 36.8361 8.45814 36.3998C8.45814 35.9635 8.29033 35.5607 7.98827 35.2922C7.71977 35.0237 7.31703 34.8223 6.88072 34.8223ZM3.99437 33.5134C4.73274 32.775 5.77317 32.3052 6.88072 32.3052C8.02183 32.3052 9.0287 32.775 9.76706 33.5134C10.5054 34.2518 10.9753 35.2922 10.9753 36.3998C10.9753 37.5409 10.5054 38.5477 9.76706 39.2861C9.0287 40.0245 7.98827 40.4943 6.88072 40.4943C5.7396 40.4943 4.73274 40.0245 3.99437 39.2861C3.256 38.5477 2.78613 37.5073 2.78613 36.3998C2.78613 35.2586 3.256 34.2518 3.99437 33.5134Z" fill="#0A5BAC"/>
<path d="M32.5222 34.3188H36.4826V27.4721L34.7373 20.8604L37.1538 20.2227L38.9326 26.9687C38.9326 27.0358 38.9662 27.103 38.9662 27.1701C38.9662 27.2708 38.9997 27.3379 38.9997 27.405V35.225C38.9997 35.6278 38.8319 36.0305 38.597 36.3326C38.2949 36.6682 37.8922 36.8696 37.4223 36.8696H32.5558V34.3524L32.5222 34.3188ZM32.1866 20.4577H31.3811H27.7228V35.0908C27.7228 35.4935 27.555 35.8963 27.3201 36.1983C27.018 36.5339 26.6153 36.7353 26.1454 36.7353H17.1172V34.2181H25.2392V19.585C25.2392 19.1823 25.407 18.7795 25.642 18.4775C25.944 18.1419 26.3468 17.9405 26.8167 17.9405H31.3811H32.1866V20.4577Z" fill="#0A5BAC"/>
<path d="M21.0765 20.8606L17.586 19.0483H7.85302L2.88582 20.9613V26.9018L7.55096 28.7142H17.7539L21.0765 26.9018V20.8271V20.8606ZM18.5593 16.7325L22.7211 18.8805C22.9896 19.0147 23.1909 19.2161 23.3587 19.4846C23.5266 19.7195 23.5937 20.0216 23.5937 20.3236V27.506C23.5937 27.808 23.5266 28.0765 23.3587 28.3114C23.2245 28.5464 23.0231 28.7478 22.7546 28.882L18.7607 31.0635C18.6265 31.1307 18.5258 31.1978 18.3915 31.1978C18.2573 31.2314 18.123 31.2314 17.9888 31.2314H7.38315C7.28246 31.2314 7.21534 31.2314 7.08109 31.1978H7.04752C6.94684 31.1642 6.87971 31.1642 6.77903 31.1307L1.37552 29.0162C1.07346 28.882 0.804961 28.6806 0.63715 28.4457C0.469339 28.1772 0.368652 27.8751 0.368652 27.5395V20.3236C0.368652 19.988 0.469339 19.686 0.63715 19.4175C0.804961 19.149 1.07346 18.9476 1.37552 18.8469L7.08109 16.6318C7.18177 16.5982 7.28246 16.5647 7.38315 16.5311C7.48383 16.4976 7.58452 16.4976 7.68521 16.4976H17.7874C17.8881 16.4976 18.0224 16.4976 18.1566 16.5311C18.2909 16.5647 18.4251 16.5982 18.5258 16.6654L18.5593 16.7325Z" fill="#0A5BAC"/>
<path d="M17.7545 17.7729V29.9896H15.2373V17.7729H17.7545Z" fill="#0A5BAC"/>
<path d="M9.46394 17.7729V29.9896H6.94678V17.7729H9.46394Z" fill="#0A5BAC"/>
<path d="M35.9451 5.45544C38.1602 5.45544 40.1739 6.36162 41.6506 7.8048C43.0938 9.24797 44 11.2617 44 13.5104C44 15.7255 43.0938 17.7392 41.6506 19.2159C40.2075 20.6591 38.1937 21.5653 35.9451 21.5653C33.73 21.5653 31.7162 20.6591 30.2395 19.2159C28.7963 17.7728 27.8901 15.759 27.8901 13.5104C27.8901 11.2953 28.7963 9.28153 30.2395 7.8048C31.7162 6.36162 33.73 5.45544 35.9451 5.45544ZM39.8718 9.58359C38.865 8.57673 37.4889 7.97261 35.9451 7.97261C34.4012 7.97261 33.0251 8.57673 32.0183 9.58359C31.0114 10.5905 30.4073 11.9665 30.4073 13.5104C30.4073 15.0542 31.0114 16.4303 32.0183 17.4371C33.0251 18.444 34.4012 19.0481 35.9451 19.0481C37.4889 19.0481 38.865 18.444 39.8718 17.4371C40.8787 16.4303 41.4828 15.0542 41.4828 13.5104C41.4828 11.9665 40.8787 10.5905 39.8718 9.58359Z" fill="#0A5BAC"/>
<path d="M36.5483 36.8364C35.8435 36.8364 35.2729 36.2658 35.2729 35.561C35.2729 34.8562 35.8435 34.2856 36.5483 34.2856H40.408C41.1128 34.2856 41.6833 34.8562 41.6833 35.561C41.6833 36.2658 41.1128 36.8364 40.408 36.8364H36.5483Z" fill="#0A5BAC"/>
<path d="M1.27536 36.8364C0.570557 36.8364 0 36.2658 0 35.561C0 34.8562 0.570557 34.2856 1.27536 34.2856H3.92677C4.63158 34.2856 5.20214 34.8562 5.20214 35.561C5.20214 36.2658 4.63158 36.8364 3.92677 36.8364H1.27536Z" fill="#0A5BAC"/>
<path d="M36.4829 14.5846C35.8788 14.8867 35.1068 14.6517 34.8048 14.0476C34.5027 13.4435 34.7377 12.6716 35.3418 12.3695L38.3959 10.8256C39 10.5236 39.772 10.7585 40.074 11.3626C40.3761 11.9668 40.1412 12.7387 39.537 13.0408L36.4829 14.5846Z" fill="#0A5BAC"/>
<path d="M36.9182 12.7387C37.321 13.3093 37.2203 14.0812 36.6497 14.484C36.0792 14.8867 35.3073 14.786 34.9045 14.2155L33.8976 12.873C33.4949 12.3024 33.5956 11.5305 34.1661 11.1278C34.7367 10.725 35.5086 10.8257 35.9114 11.3962L36.9182 12.7387Z" fill="#0A5BAC"/>
<path d="M42.4898 3.81114C43.094 4.14677 43.2953 4.9187 42.9597 5.52282C42.6241 6.12693 41.8522 6.32831 41.248 5.99269L39.6706 5.08651C39.0665 4.75089 38.8651 3.97896 39.2007 3.37484C39.5364 2.77072 40.3083 2.56934 40.9124 2.90497L42.4898 3.81114Z" fill="#0A5BAC"/>
<path d="M37.2206 6.69734C37.2206 7.40215 36.6501 7.97271 35.9453 7.97271C35.2405 7.97271 34.6699 7.40215 34.6699 6.69734V3.47537C34.6699 2.77057 35.2405 2.20001 35.9453 2.20001C36.6501 2.20001 37.2206 2.77057 37.2206 3.47537V6.69734Z" fill="#0A5BAC"/>
<path d="M31.8511 18.5447V25.3243H37.4225V27.8415H30.9114C30.5087 27.8415 30.1059 27.6736 29.8374 27.4051C29.5354 27.1031 29.334 26.7003 29.334 26.264V18.5112H31.8511V18.5447Z" fill="#0A5BAC"/>
</g>
<defs>
<clipPath id="clip0">
<rect width="44" height="44" fill="white"/>
</clipPath>
</defs>
</svg>
