<svg width="44" height="44" viewBox="0 0 44 44" fill="none" xmlns="http://www.w3.org/2000/svg">
<g clip-path="url(#clip0)">
<path d="M9.07709 10.9388V19.1422C9.07709 19.8482 8.74088 20.1845 8.03485 20.1845C7.73226 20.1845 7.46329 20.0836 7.26157 19.8819C7.05985 19.6801 6.95898 19.4448 6.95898 19.1086V9.82928C6.95898 9.49307 7.05985 9.25773 7.26157 9.056C7.46329 8.85428 7.69864 8.75342 8.03485 8.75342H12.1702C12.5064 8.75342 12.7417 8.85428 12.9435 9.056C13.1452 9.25773 13.2461 9.49307 13.2461 9.82928C13.2461 10.1319 13.1452 10.4008 12.9435 10.6026C12.7417 10.8043 12.5064 10.9051 12.1702 10.9051H9.11071L9.07709 10.9388ZM19.3314 16.587V12.4853C19.3314 12.25 19.2978 12.0819 19.2305 11.8801C19.1633 11.712 19.0624 11.5439 18.8943 11.4095C18.7598 11.275 18.5917 11.1405 18.4236 11.0732C18.2555 11.006 18.0538 10.9724 17.8185 10.9724C17.5831 10.9724 17.415 11.006 17.2133 11.0732C17.0452 11.1405 16.8771 11.2413 16.7426 11.4095C16.6081 11.5439 16.4736 11.712 16.4064 11.8801C16.3392 12.0482 16.3055 12.25 16.3055 12.4853V16.587C16.3055 16.8224 16.3392 16.9905 16.4064 17.1922C16.4736 17.3603 16.5745 17.5284 16.7426 17.6629C16.8771 17.7974 17.0452 17.9319 17.2133 17.9991C17.3814 18.0663 17.5831 18.1 17.8185 18.1C18.0538 18.1 18.2219 18.0663 18.4236 17.9991C18.5917 17.9319 18.7598 17.831 18.8943 17.6629C19.0288 17.5284 19.1633 17.3603 19.2305 17.1922C19.2978 17.0241 19.3314 16.8224 19.3314 16.587ZM21.4495 16.587C21.4495 17.0913 21.3486 17.562 21.1805 17.9655C21.0124 18.4026 20.7435 18.806 20.3736 19.1422C20.0374 19.4784 19.634 19.7474 19.1969 19.9491C18.7598 20.1172 18.2892 20.2181 17.8185 20.2181C17.3142 20.2181 16.8771 20.1172 16.44 19.9491C16.0029 19.781 15.6331 19.512 15.2633 19.1422C14.9271 18.806 14.6581 18.4026 14.4564 17.9655C14.2883 17.5284 14.1874 17.0577 14.1874 16.587V12.4517C14.1874 11.9474 14.2883 11.4767 14.4564 11.0732C14.6245 10.6362 14.8935 10.2327 15.2633 9.89652C15.5995 9.52669 16.0029 9.29135 16.44 9.08962C16.8771 8.92152 17.3478 8.82066 17.8185 8.82066C18.3228 8.82066 18.7935 8.92152 19.1969 9.08962C19.634 9.25773 20.0038 9.52669 20.3736 9.89652C20.7098 10.2327 20.9788 10.6362 21.1469 11.0732C21.315 11.5103 21.4159 11.981 21.4159 12.4517V16.587H21.4495ZM27.6021 8.82066C27.9383 8.82066 28.1736 8.92152 28.3754 9.12325C28.5771 9.32497 28.6779 9.56031 28.6779 9.89652C28.6779 10.1991 28.5771 10.4681 28.3754 10.6698C28.1736 10.8715 27.9383 10.9724 27.6021 10.9724H25.5512C25.3495 10.9724 25.1814 11.006 25.0469 11.1069C24.9124 11.1741 24.778 11.3086 24.6771 11.4767C24.6435 11.5439 24.6098 11.6448 24.5762 11.712C24.5426 11.7793 24.5426 11.8801 24.5426 11.981V17.125C24.5426 17.2595 24.5762 17.3939 24.6098 17.5284C24.6435 17.6293 24.7443 17.7638 24.8452 17.8646C24.9461 17.9655 25.0469 18.0327 25.1814 18.1C25.2823 18.1336 25.4167 18.1672 25.5848 18.1672H27.6357C27.9719 18.1672 28.2073 18.2681 28.409 18.4698C28.6107 18.6715 28.7116 18.9069 28.7116 19.2431C28.7116 19.5457 28.6107 19.8146 28.409 20.0163C28.2073 20.2181 27.9719 20.3189 27.6357 20.3189H25.5848C25.1478 20.3189 24.778 20.2517 24.3745 20.0836C24.0047 19.9155 23.6685 19.7138 23.3659 19.4112C23.0633 19.1086 22.8279 18.7724 22.6935 18.4026C22.5254 18.0327 22.4581 17.6293 22.4581 17.1922V12.0482C22.4581 11.6112 22.5254 11.2077 22.6935 10.8379C22.8616 10.4681 23.0633 10.1319 23.3659 9.82928C23.6685 9.52669 24.0047 9.29135 24.3745 9.15687C24.7443 8.98876 25.1478 8.92152 25.5848 8.92152H27.6357L27.6021 8.82066ZM29.653 9.8629C29.653 9.56031 29.7538 9.29135 29.9219 9.08962C30.1236 8.8879 30.359 8.78704 30.6952 8.78704H35.8392C36.1754 8.78704 36.4107 8.8879 36.6124 9.08962C36.8142 9.29135 36.8814 9.52669 36.8814 9.8629C36.8814 10.1655 36.7805 10.4345 36.6124 10.6362C36.4107 10.8379 36.1754 10.9388 35.8392 10.9388H34.3262V19.1422C34.3262 19.8482 33.99 20.1845 33.284 20.1845C32.9478 20.1845 32.7124 20.0836 32.5107 19.8819C32.309 19.6801 32.2081 19.4448 32.2081 19.1086V10.9051H30.6952C29.9892 10.9051 29.653 10.5689 29.653 9.8629ZM10.8926 26.7069H9.11071V26.7405C9.11071 27.0431 9.00985 27.312 8.84174 27.4801C8.64002 27.6819 8.40467 27.7827 8.10209 27.7827C7.76588 27.7827 7.53054 27.6819 7.32881 27.4801C7.12709 27.2784 7.02623 27.0431 7.02623 26.7069V25.631C7.02623 25.3284 7.12709 25.0595 7.32881 24.8577C7.53054 24.656 7.76588 24.5551 8.10209 24.5551H12.2374C12.54 24.5551 12.809 24.656 12.9771 24.8241C13.1788 25.0258 13.2797 25.2612 13.2797 25.5638C13.2797 25.5974 13.2797 25.631 13.2797 25.6646V25.6982V25.7655V25.7991L11.2288 35.0784C11.1616 35.3474 11.0607 35.5491 10.8926 35.6836C10.7245 35.8517 10.4892 35.9189 10.2202 35.9189C9.88398 35.9189 9.64864 35.8181 9.44692 35.65C9.24519 35.4482 9.14433 35.2129 9.14433 34.8767V34.8095C9.14433 34.7422 9.14433 34.7086 9.14433 34.675V34.6414L10.9262 26.6396L10.8926 26.7069ZM14.1874 32.8931C14.1874 32.8595 14.1874 32.8258 14.1874 32.7586C14.1874 32.6914 14.1874 32.6577 14.2211 32.6241L16.2719 25.4293C16.3392 25.1939 16.4736 24.9922 16.6417 24.8577C16.8098 24.7232 17.0452 24.656 17.2805 24.656C17.6167 24.656 17.8521 24.7569 18.0538 24.9586C18.2555 25.1603 18.3564 25.3957 18.3564 25.7319C18.3564 25.7655 18.3564 25.8327 18.3564 25.9C18.3564 25.9336 18.3564 26.0008 18.3228 26.0345L16.6417 31.8845H17.8185V30.8758C17.8185 30.1698 18.1547 29.8336 18.8607 29.8336C19.1633 29.8336 19.4323 29.9345 19.634 30.1026C19.8357 30.3043 19.9366 30.5396 19.9366 30.8758V31.8845H20.4409C21.1469 31.8845 21.4831 32.2207 21.4831 32.9267C21.4831 33.2629 21.3823 33.4982 21.1805 33.7C20.9788 33.9017 20.7435 34.0026 20.4073 34.0026H19.9029V35.0112C19.9029 35.3138 19.8021 35.5827 19.6004 35.7845C19.3986 35.9862 19.1633 36.087 18.8271 36.087C18.5245 36.087 18.2555 35.9862 18.0538 35.7845C17.8521 35.5827 17.7512 35.3474 17.7512 35.0112V34.0026H15.1961C14.49 34.0026 14.1538 33.6327 14.1538 32.9603L14.1874 32.8931ZM26.3245 26.7069H24.5426V26.7405C24.5426 27.0431 24.4417 27.312 24.2736 27.4801C24.0719 27.6819 23.8366 27.7827 23.534 27.7827C23.1978 27.7827 22.9624 27.6819 22.7607 27.4801C22.559 27.2784 22.4581 27.0431 22.4581 26.7069V25.631C22.4581 25.3284 22.559 25.0595 22.7607 24.8577C22.9624 24.656 23.1978 24.5551 23.534 24.5551H27.6693C27.9719 24.5551 28.2409 24.656 28.409 24.8241C28.6107 25.0258 28.7116 25.2612 28.7116 25.5638C28.7116 25.5974 28.7116 25.631 28.7116 25.6646V25.6982V25.7655V25.7991L26.6607 35.0784C26.5935 35.3474 26.4926 35.5155 26.3245 35.6836C26.1564 35.8181 25.9211 35.9189 25.6521 35.9189C25.3159 35.9189 25.0805 35.8181 24.8788 35.65C24.6771 35.4482 24.5762 35.2129 24.5762 34.8767V34.8095C24.5762 34.7422 24.5762 34.7086 24.5762 34.675V34.6414L26.3581 26.6396L26.3245 26.7069ZM32.7124 30.8758H31.6702C30.9642 30.8758 30.6279 30.5396 30.6279 29.8336C30.6279 29.531 30.7288 29.262 30.9305 29.0603C31.1323 28.8586 31.3676 28.7577 31.7038 28.7577H32.7461C32.8805 28.7577 33.015 28.7241 33.1495 28.6905C33.2504 28.6569 33.3848 28.556 33.4857 28.4551C33.5866 28.3543 33.6538 28.2534 33.7211 28.1189C33.7547 28.0181 33.7883 27.8836 33.7883 27.7155C33.7883 27.581 33.7547 27.4465 33.7211 27.312C33.6874 27.2112 33.5866 27.0767 33.4857 26.9758C33.3848 26.875 33.284 26.8077 33.1495 26.7405C33.0486 26.7069 32.9142 26.6732 32.7461 26.6732H30.6952C29.9892 26.6732 29.653 26.337 29.653 25.631C29.653 25.2948 29.7538 25.0595 29.9555 24.8577C30.1573 24.656 30.3926 24.5551 30.7288 24.5551H32.7797C33.2167 24.5551 33.6202 24.6224 33.99 24.7905C34.3598 24.9586 34.6961 25.1603 34.9986 25.4629C35.3012 25.7655 35.5366 26.1017 35.6711 26.4715C35.8392 26.8414 35.9064 27.2448 35.9064 27.6819C35.9064 28.1862 35.8055 28.6569 35.6038 29.0939C35.4693 29.3293 35.3348 29.5646 35.1331 29.7664C35.3348 29.9681 35.4693 30.2034 35.6038 30.4388C35.8055 30.8758 35.9064 31.3129 35.9064 31.8172V32.8595C35.9064 33.2965 35.8392 33.7 35.6711 34.0698C35.5029 34.4396 35.3012 34.7758 34.9986 35.0784C34.6961 35.381 34.3598 35.6164 33.99 35.7508C33.6202 35.9189 33.2167 35.9862 32.8133 35.9862H30.7624C30.0564 35.9862 29.7202 35.65 29.7202 34.9439C29.7202 34.6077 29.8211 34.3724 30.0228 34.1707C30.2245 33.9689 30.4598 33.8681 30.7961 33.8681H32.8469C32.9814 33.8681 33.1159 33.8345 33.2504 33.8008C33.3512 33.7672 33.4857 33.6664 33.5866 33.5991C33.6874 33.4982 33.7547 33.3974 33.8219 33.2965C33.8555 33.1957 33.8892 33.0612 33.8892 32.8931V31.8508C33.8892 31.7164 33.8555 31.5819 33.8219 31.481C33.7883 31.3801 33.6874 31.2457 33.5866 31.1448C33.4857 31.0439 33.3848 30.9767 33.2504 30.9095C33.1495 30.8758 33.015 30.8422 32.8469 30.8422L32.7124 30.8758Z" fill="#0A5BAC"/>
<path d="M1.61379 0.550049H41.2862C41.7233 0.550049 42.1267 0.718152 42.4293 1.02074C42.7319 1.32332 42.9 1.69315 42.9 2.16384V41.8363C42.9 42.2733 42.7319 42.6768 42.4293 42.9794C42.1267 43.2819 41.7569 43.45 41.2862 43.45H1.61379C1.17672 43.45 0.773276 43.2819 0.47069 42.9794C0.168103 42.6768 0 42.3069 0 41.8363V2.16384C0 1.72677 0.168103 1.32332 0.47069 1.02074C0.773276 0.718152 1.1431 0.550049 1.61379 0.550049ZM40.3448 3.0716H2.52155V40.8949H40.3448V3.0716Z" fill="#0A5BAC"/>
</g>
<defs>
<clipPath id="clip0">
<rect width="44" height="44" fill="white"/>
</clipPath>
</defs>
</svg>
