<svg width="41" height="44" viewBox="0 0 41 44" fill="none" xmlns="http://www.w3.org/2000/svg">
<path d="M14.3034 0C18.188 0 21.7226 1.57483 24.2773 4.12954C26.832 6.68426 28.4068 10.2189 28.4068 14.1034C28.4068 17.988 26.832 21.5226 24.2773 24.0773C21.7226 26.632 18.188 28.2069 14.3034 28.2069C10.4188 28.2069 6.88421 26.632 4.32949 24.0773C1.77478 21.5226 0.199951 17.988 0.199951 14.1034C0.199951 10.2189 1.77478 6.68426 4.32949 4.12954C6.88421 1.57483 10.4188 0 14.3034 0ZM22.4225 5.98433C20.3577 3.91956 17.488 2.62471 14.3034 2.62471C11.1187 2.62471 8.24906 3.91956 6.18429 5.98433C4.11952 8.04911 2.82466 10.9188 2.82466 14.1034C2.82466 17.2881 4.11952 20.1578 6.18429 22.2225C8.24906 24.2873 11.1187 25.5822 14.3034 25.5822C17.488 25.5822 20.3577 24.2873 22.4225 22.2225C24.4873 20.1578 25.7821 17.2881 25.7821 14.1034C25.7821 10.9188 24.4873 8.04911 22.4225 5.98433Z" fill="white"/>
<path d="M23.647 22.2576L27.7766 26.3521L25.9218 28.2069L21.7922 24.1124L23.647 22.2576Z" fill="white"/>
<path d="M28.5112 27.4721L27.0064 28.9769L35.6155 37.5859L37.1203 36.0811L28.5112 27.4721ZM24.4517 27.822L27.3214 24.9523C27.6363 24.6374 28.0563 24.4624 28.4763 24.4624C28.8962 24.4624 29.3162 24.6374 29.6661 24.9523L39.64 34.9262C39.955 35.2412 40.13 35.6612 40.13 36.1161C40.13 36.5361 39.955 36.956 39.64 37.306L36.7703 40.1757C36.4554 40.4906 36.0354 40.6656 35.5805 40.6656C35.1605 40.6656 34.7406 40.4906 34.3906 40.1757L24.4167 30.2018C24.1017 29.8868 23.9268 29.4668 23.9268 29.0119C23.9268 28.5919 24.1017 28.172 24.4167 27.857L24.4517 27.822Z" fill="white"/>
<path d="M4.88911 39.4408V42.0655H2.2644V39.4408H4.88911ZM11.4334 33.9115H14.0581V36.5362H11.4334V32.8616V33.9115ZM11.4334 40.2108H14.0581V42.8355H11.4334V39.1609V40.2108ZM10.1385 41.5406V44.1653H7.51382V41.5406H10.1385Z" fill="white"/>
<path d="M31.2063 6.19434V8.81904H28.5815V6.19434H31.2063ZM40.9002 6.19434H39.0804V8.81904H40.9002V6.19434ZM36.4557 6.19434V8.81904H33.831V6.19434H36.4557Z" fill="white"/>
<path d="M11.4338 10.7789H14.0585V23.9025H11.4338V10.7789ZM21.0578 5.84448H16.9982V8.46919H21.0578V5.84448Z" fill="white"/>
<path d="M18.0539 5.80957H14.0583V8.45352H18.0539V5.80957Z" fill="white"/>
</svg>
