<svg width="44" height="44" viewBox="0 0 44 44" fill="none" xmlns="http://www.w3.org/2000/svg">
<g clip-path="url(#clip0)">
<path d="M16.3036 0C20.1882 0 23.7228 1.57483 26.2775 4.12954C28.8322 6.68426 30.4071 10.2189 30.4071 14.1034C30.4071 17.988 28.8322 21.5226 26.2775 24.0773C23.7228 26.632 20.1882 28.2069 16.3036 28.2069C12.4191 28.2069 8.88445 26.632 6.32974 24.0773C3.77502 21.5226 2.2002 17.988 2.2002 14.1034C2.2002 10.2189 3.77502 6.68426 6.32974 4.12954C8.88445 1.57483 12.4191 0 16.3036 0ZM24.4227 5.98433C22.358 3.91956 19.4883 2.62471 16.3036 2.62471C13.119 2.62471 10.2493 3.91956 8.18453 5.98433C6.11976 8.04911 4.8249 10.9188 4.8249 14.1034C4.8249 17.2881 6.11976 20.1578 8.18453 22.2225C10.2493 24.2873 13.119 25.5822 16.3036 25.5822C19.4883 25.5822 22.358 24.2873 24.4227 22.2225C26.4875 20.1578 27.7824 17.2881 27.7824 14.1034C27.7824 10.9188 26.4875 8.04911 24.4227 5.98433Z" fill="#0A5BAC"/>
<path d="M25.6473 22.2576L29.7768 26.3521L27.922 28.2069L23.7925 24.1124L25.6473 22.2576Z" fill="#0A5BAC"/>
<path d="M30.5112 27.4719L29.0064 28.9768L37.6155 37.5858L39.1203 36.081L30.5112 27.4719ZM26.4517 27.8219L29.3214 24.9522C29.6363 24.6373 30.0563 24.4623 30.4763 24.4623C30.8962 24.4623 31.3162 24.6373 31.6661 24.9522L41.64 34.9261C41.955 35.2411 42.13 35.661 42.13 36.116C42.13 36.5359 41.955 36.9559 41.64 37.3059L38.7703 40.1755C38.4554 40.4905 38.0354 40.6655 37.5805 40.6655C37.1605 40.6655 36.7406 40.4905 36.3906 40.1755L26.4167 30.2016C26.1017 29.8867 25.9268 29.4667 25.9268 29.0118C25.9268 28.5918 26.1017 28.1719 26.4167 27.8569L26.4517 27.8219Z" fill="#0A5BAC"/>
<path d="M6.88936 39.4408V42.0655H4.26465V39.4408H6.88936ZM13.4336 33.9115H16.0583V36.5362H13.4336V32.8616V33.9115ZM13.4336 40.2108H16.0583V42.8355H13.4336V39.1609V40.2108ZM12.1388 41.5406V44.1653H9.51406V41.5406H12.1388Z" fill="#0A5BAC"/>
<path d="M33.2063 6.19434V8.81904H30.5815V6.19434H33.2063ZM42.9002 6.19434H41.0804V8.81904H42.9002V6.19434ZM38.4557 6.19434V8.81904H35.831V6.19434H38.4557Z" fill="#0A5BAC"/>
<path d="M13.4341 10.7789H16.0588V23.9025H13.4341V10.7789ZM23.058 5.84448H18.9985V8.46919H23.058V5.84448Z" fill="#0A5BAC"/>
<path d="M20.0541 5.80945H16.0586V8.4534H20.0541V5.80945Z" fill="#0A5BAC"/>
</g>
<defs>
<clipPath id="clip0">
<rect width="44" height="44" fill="white"/>
</clipPath>
</defs>
</svg>
