<svg width="45" height="46" viewBox="0 0 45 46" fill="none" xmlns="http://www.w3.org/2000/svg">
<g opacity="0.5">
<path fill-rule="evenodd" clip-rule="evenodd" d="M44.2681 0.706223C43.2921 -0.235408 41.7087 -0.235408 40.7328 0.706223L0.734051 39.1886C0.244684 39.6594 0 40.2737 0 40.8906C0 41.5048 0.244684 42.1217 0.734051 42.5898C1.70997 43.5288 3.29057 43.5288 4.26931 42.5898L44.2681 4.10746C45.244 3.16583 45.244 1.64515 44.2681 0.706223ZM33.7505 40.5883C31.4246 40.5883 29.5318 38.7673 29.5318 36.5296C29.5318 34.2919 31.4246 32.4708 33.7505 32.4708C36.0764 32.4708 37.9692 34.2919 37.9692 36.5296C37.9692 38.7673 36.0764 40.5883 33.7505 40.5883ZM33.7507 27.0592C28.3226 27.0592 23.9071 31.3073 23.9071 36.5296C23.9071 41.7518 28.3226 46 33.7507 46C39.1787 46 43.5943 41.7518 43.5943 36.5296C43.5943 31.3073 39.1787 27.0592 33.7507 27.0592ZM11.251 5.41248C13.5769 5.41248 15.4697 7.23351 15.4697 9.47123C15.4697 11.709 13.5769 13.53 11.251 13.53C8.92511 13.53 7.03233 11.709 7.03233 9.47123C7.03233 7.23351 8.92511 5.41248 11.251 5.41248ZM11.2512 18.9417C16.6792 18.9417 21.0948 14.6936 21.0948 9.47131C21.0948 4.24905 16.6792 0.000884145 11.2512 0.000884145C5.82314 0.000884145 1.40759 4.24905 1.40759 9.47131C1.40759 14.6936 5.82314 18.9417 11.2512 18.9417Z" fill="white"/>
</g>
</svg>
