<svg width="211" height="84" viewBox="0 0 211 84" fill="none" xmlns="http://www.w3.org/2000/svg">
<path d="M5.86829 6.09268V4.09268H3.86829V6.09268H5.86829ZM3.86829 6.09268V35.2829H7.86829V6.09268H3.86829ZM3.86829 35.2829C3.86829 35.4084 3.85191 35.4368 3.86361 35.4017C3.87853 35.3569 3.92357 35.2578 4.02481 35.1565C4.12605 35.0553 4.22521 35.0102 4.26998 34.9953C4.30507 34.9836 4.2767 35 4.15122 35V39C5.03187 39 6.0597 38.7785 6.85324 37.9849C7.64678 37.1914 7.86829 36.1636 7.86829 35.2829H3.86829ZM4.15122 35C4.02574 35 3.99736 34.9836 4.03246 34.9953C4.07723 35.0102 4.17639 35.0553 4.27763 35.1565C4.37886 35.2578 4.4239 35.3569 4.43883 35.4017C4.45053 35.4368 4.43415 35.4084 4.43415 35.2829H0.434146C0.434146 36.1636 0.655663 37.1914 1.4492 37.9849C2.24274 38.7785 3.27057 39 4.15122 39V35ZM4.43415 35.2829V4.37561H0.434146V35.2829H4.43415ZM4.43415 4.37561C4.43415 4.25013 4.45053 4.22175 4.43883 4.25685C4.4239 4.30162 4.37886 4.40078 4.27763 4.50202C4.17639 4.60326 4.07723 4.6483 4.03245 4.66322C3.99736 4.67492 4.02574 4.65854 4.15122 4.65854V0.658538C3.27057 0.658538 2.24274 0.880054 1.4492 1.67359C0.655663 2.46713 0.434146 3.49496 0.434146 4.37561H4.43415ZM4.15122 4.65854H17.8878V0.658538H4.15122V4.65854ZM17.8878 4.65854C18.0133 4.65854 18.0417 4.67492 18.0066 4.66322C17.9618 4.6483 17.8626 4.60326 17.7614 4.50202C17.6602 4.40078 17.6151 4.30162 17.6002 4.25685C17.5885 4.22175 17.6049 4.25013 17.6049 4.37561H21.6049C21.6049 3.49496 21.3834 2.46713 20.5898 1.67359C19.7963 0.880054 18.7685 0.658538 17.8878 0.658538V4.65854ZM17.6049 4.37561C17.6049 4.50109 17.5885 4.52947 17.6002 4.49437C17.6151 4.4496 17.6602 4.35044 17.7614 4.2492C17.8626 4.14797 17.9618 4.10293 18.0066 4.088C18.0417 4.0763 18.0133 4.09268 17.8878 4.09268V8.09268C18.7685 8.09268 19.7963 7.87117 20.5898 7.07763C21.3834 6.28409 21.6049 5.25626 21.6049 4.37561H17.6049ZM17.8878 4.09268H5.86829V8.09268H17.8878V4.09268ZM41.6485 8.09593L40.2251 9.50088L40.2343 9.51018L40.2436 9.51936L41.6485 8.09593ZM31.8924 8.09593L30.4782 6.68172L30.4782 6.68172L31.8924 8.09593ZM31.8924 31.5886L30.469 32.9936L30.4782 33.0029L30.4875 33.012L31.8924 31.5886ZM41.6485 31.5886L43.0627 33.0028L43.0627 33.0028L41.6485 31.5886ZM44.068 33.9821L42.6538 32.5679L42.6538 32.5679L44.068 33.9821ZM29.4989 33.9821L28.0847 35.3963L28.0847 35.3963L29.4989 33.9821ZM29.4989 5.67642L28.0847 4.26221L28.0847 4.26221L29.4989 5.67642ZM44.068 5.67642L42.6477 7.0845L42.6538 7.09065L42.6599 7.09674L44.068 5.67642ZM45.6518 26.6976V12.961H41.6518V26.6976H45.6518ZM45.6518 12.961C45.6518 10.5164 44.7806 8.37728 43.0534 6.67251L40.2436 9.51936C41.1874 10.4509 41.6518 11.5551 41.6518 12.961H45.6518ZM43.0719 6.69099C41.3672 4.9638 39.228 4.09268 36.7835 4.09268V8.09268C38.1893 8.09268 39.2935 8.55707 40.2251 9.50088L43.0719 6.69099ZM36.7835 4.09268C34.3393 4.09268 32.1968 4.96309 30.4782 6.68172L33.3066 9.51015C34.259 8.55778 35.3772 8.09268 36.7835 8.09268V4.09268ZM30.4782 6.68172C28.7715 8.38846 27.9152 10.5248 27.9152 12.961H31.9152C31.9152 11.5468 32.377 10.4397 33.3066 9.51015L30.4782 6.68172ZM27.9152 12.961V26.6976H31.9152V12.961H27.9152ZM27.9152 26.6976C27.9152 29.1334 28.7708 31.273 30.469 32.9936L33.3158 30.1837C32.3777 29.2332 31.9152 28.1121 31.9152 26.6976H27.9152ZM30.4875 33.012C32.208 34.7102 34.3476 35.5659 36.7835 35.5659V31.5659C35.3689 31.5659 34.2478 31.1033 33.2973 30.1652L30.4875 33.012ZM36.7835 35.5659C39.2197 35.5659 41.356 34.7096 43.0627 33.0028L40.2343 30.1744C39.3047 31.104 38.1976 31.5659 36.7835 31.5659V35.5659ZM43.0627 33.0028C44.7813 31.2842 45.6518 29.1417 45.6518 26.6976H41.6518C41.6518 28.1038 41.1867 29.222 40.2343 30.1744L43.0627 33.0028ZM45.0859 26.6976C45.0859 29.0114 44.2908 30.9309 42.6538 32.5679L45.4822 35.3963C47.8691 33.0095 49.0859 30.0726 49.0859 26.6976H45.0859ZM42.6538 32.5679C41.0168 34.2049 39.0973 35 36.7835 35V39C40.1585 39 43.0954 37.7832 45.4822 35.3963L42.6538 32.5679ZM36.7835 35C34.4696 35 32.5501 34.2049 30.9131 32.5679L28.0847 35.3963C30.4716 37.7832 33.4084 39 36.7835 39V35ZM30.9131 32.5679C29.2761 30.9309 28.481 29.0114 28.481 26.6976H24.481C24.481 30.0726 25.6978 33.0095 28.0847 35.3963L30.9131 32.5679ZM28.481 26.6976V12.961H24.481V26.6976H28.481ZM28.481 12.961C28.481 10.6471 29.2761 8.72761 30.9131 7.09064L28.0847 4.26221C25.6978 6.64908 24.481 9.58592 24.481 12.961H28.481ZM30.9131 7.09064C32.5501 5.45366 34.4696 4.65854 36.7835 4.65854V0.658538C33.4084 0.658538 30.4716 1.87534 28.0847 4.26221L30.9131 7.09064ZM36.7835 4.65854C39.1179 4.65854 41.0329 5.45571 42.6477 7.0845L45.4883 4.26834C43.1139 1.87329 40.1726 0.658538 36.7835 0.658538V4.65854ZM42.6599 7.09674C44.2887 8.7115 45.0859 10.6265 45.0859 12.961H49.0859C49.0859 9.57184 47.8711 6.63051 45.4761 4.2561L42.6599 7.09674ZM45.0859 12.961V26.6976H49.0859V12.961H45.0859ZM58.0864 8.64228L59.8112 9.65468L59.8152 9.64782L58.0864 8.64228ZM58.8929 32.0569L57.4786 33.4711L57.4786 33.4711L58.8929 32.0569ZM56.4473 34.5024L55.0258 35.9093L55.0331 35.9167L55.0405 35.924L56.4473 34.5024ZM56.4473 5.18211L55.0331 3.7679L55.0331 3.7679L56.4473 5.18211ZM69.4034 4.65854C69.5289 4.65854 69.5573 4.67492 69.5222 4.66322C69.4774 4.6483 69.3783 4.60326 69.277 4.50202C69.1758 4.40078 69.1307 4.30162 69.1158 4.25685C69.1041 4.22175 69.1205 4.25013 69.1205 4.37561H73.1205C73.1205 3.49496 72.899 2.46713 72.1054 1.67359C71.3119 0.880054 70.2841 0.658538 69.4034 0.658538V4.65854ZM69.1205 4.37561C69.1205 4.50109 69.1041 4.52947 69.1158 4.49437C69.1307 4.4496 69.1758 4.35044 69.277 4.2492C69.3783 4.14797 69.4774 4.10293 69.5222 4.088C69.5573 4.0763 69.5289 4.09268 69.4034 4.09268V8.09268C70.2841 8.09268 71.3119 7.87117 72.1054 7.07763C72.899 6.28409 73.1205 5.25626 73.1205 4.37561H69.1205ZM69.4034 4.09268H62.5351V8.09268H69.4034V4.09268ZM62.5351 4.09268C59.8506 4.09268 57.7067 5.3171 56.3575 7.63673L59.8152 9.64782C60.4433 8.568 61.2652 8.09268 62.5351 8.09268V4.09268ZM56.3615 7.62988C55.7107 8.73866 55.3839 9.95602 55.3839 11.2439H59.3839C59.3839 10.6586 59.5254 10.1416 59.8112 9.65468L56.3615 7.62988ZM55.3839 11.2439V28.4146H59.3839V11.2439H55.3839ZM55.3839 28.4146C55.3839 30.3675 56.0977 32.0902 57.4786 33.4711L60.3071 30.6427C59.6761 30.0117 59.3839 29.3062 59.3839 28.4146H55.3839ZM57.4786 33.4711C58.8596 34.852 60.5823 35.5659 62.5351 35.5659V31.5659C61.6435 31.5659 60.9381 31.2737 60.3071 30.6427L57.4786 33.4711ZM62.5351 35.5659H69.4034V31.5659H62.5351V35.5659ZM69.4034 35.5659C69.5289 35.5659 69.5573 35.5822 69.5222 35.5705C69.4774 35.5556 69.3783 35.5106 69.277 35.4093C69.1758 35.3081 69.1307 35.2089 69.1158 35.1642C69.1041 35.1291 69.1205 35.1574 69.1205 35.2829H73.1205C73.1205 34.4023 72.899 33.3744 72.1054 32.5809C71.3119 31.7874 70.2841 31.5659 69.4034 31.5659V35.5659ZM69.1205 35.2829C69.1205 35.4084 69.1041 35.4368 69.1158 35.4017C69.1307 35.3569 69.1758 35.2578 69.277 35.1565C69.3783 35.0553 69.4774 35.0102 69.5222 34.9953C69.5573 34.9836 69.5289 35 69.4034 35V39C70.2841 39 71.3119 38.7785 72.1054 37.9849C72.899 37.1914 73.1205 36.1636 73.1205 35.2829H69.1205ZM69.4034 35H62.5351V39H69.4034V35ZM62.5351 35C60.6835 35 59.1605 34.3738 57.8542 33.0809L55.0405 35.924C57.0989 37.9612 59.6344 39 62.5351 39V35ZM57.8689 33.0956C56.576 31.7893 55.9498 30.2662 55.9498 28.4146H51.9498C51.9498 31.3153 52.9886 33.8508 55.0258 35.9093L57.8689 33.0956ZM55.9498 28.4146V11.2439H51.9498V28.4146H55.9498ZM55.9498 11.2439C55.9498 9.39276 56.5754 7.88248 57.8615 6.59633L55.0331 3.7679C52.9892 5.81184 51.9498 8.34275 51.9498 11.2439H55.9498ZM57.8615 6.59633C59.1694 5.28847 60.6902 4.65854 62.5351 4.65854V0.658538C59.6278 0.658538 57.09 1.71099 55.0331 3.7679L57.8615 6.59633ZM62.5351 4.65854H69.4034V0.658538H62.5351V4.65854ZM90.0162 6.09268V4.09268H88.0162V6.09268H90.0162ZM86.582 6.09268H88.582V4.09268H86.582V6.09268ZM79.9966 4.37561C79.9966 4.25013 80.013 4.22175 80.0013 4.25685C79.9864 4.30162 79.9414 4.40078 79.8401 4.50202C79.7389 4.60326 79.6397 4.6483 79.595 4.66322C79.5599 4.67492 79.5882 4.65854 79.7137 4.65854V0.658538C78.8331 0.658538 77.8052 0.880054 77.0117 1.67359C76.2182 2.46713 75.9966 3.49496 75.9966 4.37561H79.9966ZM79.7137 4.65854H96.8845V0.658538H79.7137V4.65854ZM96.8845 4.65854C97.0099 4.65854 97.0383 4.67492 97.0032 4.66322C96.9584 4.6483 96.8593 4.60326 96.758 4.50202C96.6568 4.40078 96.6118 4.30162 96.5968 4.25685C96.5851 4.22175 96.6015 4.25013 96.6015 4.37561H100.602C100.602 3.49496 100.38 2.46713 99.5865 1.67359C98.7929 0.880054 97.7651 0.658538 96.8845 0.658538V4.65854ZM96.6015 4.37561C96.6015 4.50109 96.5851 4.52947 96.5968 4.49437C96.6118 4.4496 96.6568 4.35044 96.758 4.2492C96.8593 4.14797 96.9584 4.10293 97.0032 4.088C97.0383 4.0763 97.0099 4.09268 96.8845 4.09268V8.09268C97.7651 8.09268 98.7929 7.87117 99.5865 7.07763C100.38 6.28409 100.602 5.25626 100.602 4.37561H96.6015ZM96.8845 4.09268H90.0162V8.09268H96.8845V4.09268ZM88.0162 6.09268V35.2829H92.0162V6.09268H88.0162ZM88.0162 35.2829C88.0162 35.4084 87.9998 35.4368 88.0115 35.4017C88.0264 35.3569 88.0714 35.2578 88.1727 35.1565C88.2739 35.0553 88.3731 35.0102 88.4178 34.9953C88.4529 34.9836 88.4246 35 88.2991 35V39C89.1797 39 90.2076 38.7785 91.0011 37.9849C91.7946 37.1914 92.0162 36.1636 92.0162 35.2829H88.0162ZM88.2991 35C88.1736 35 88.1452 34.9836 88.1803 34.9953C88.2251 35.0102 88.3243 35.0553 88.4255 35.1565C88.5267 35.2578 88.5718 35.3569 88.5867 35.4017C88.5984 35.4368 88.582 35.4084 88.582 35.2829H84.582C84.582 36.1636 84.8035 37.1914 85.5971 37.9849C86.3906 38.7785 87.4184 39 88.2991 39V35ZM88.582 35.2829V6.09268H84.582V35.2829H88.582ZM86.582 4.09268H79.7137V8.09268H86.582V4.09268ZM79.7137 4.09268C79.5882 4.09268 79.5599 4.0763 79.595 4.088C79.6397 4.10293 79.7389 4.14797 79.8401 4.2492C79.9414 4.35044 79.9864 4.4496 80.0013 4.49437C80.013 4.52947 79.9966 4.50109 79.9966 4.37561H75.9966C75.9966 5.25626 76.2182 6.28409 77.0117 7.07763C77.8052 7.87117 78.8331 8.09268 79.7137 8.09268V4.09268ZM15.9106 51.0146L17.8629 51.4485L18.4038 49.0146H15.9106V51.0146ZM5.99837 51.0146V49.0146H3.99837V51.0146H5.99837ZM5.99837 52.9138L7.99814 52.9441L7.99837 52.929V52.9138H5.99837ZM4.33333 54.6309L4.30349 56.6307L4.31841 56.6309H4.33333V54.6309ZM2.59024 52.8878L0.590296 52.8733L0.590244 52.8806V52.8878H2.59024ZM2.61626 49.2976L4.61621 49.3121L4.61626 49.3048V49.2976H2.61626ZM19.787 49.2455H21.787V49.2299L21.7867 49.2143L19.787 49.2455ZM19.735 49.6618L21.6873 50.0956L21.6919 50.0749L21.6961 50.054L19.735 49.6618ZM12.8667 80.5691L14.8154 81.0188L14.8173 81.0109L14.819 81.003L12.8667 80.5691ZM9.51057 79.8146L7.55819 79.3808L7.55358 79.4015L7.54941 79.4224L9.51057 79.8146ZM15.9106 49.0146H5.99837V53.0146H15.9106V49.0146ZM3.99837 51.0146V52.9138H7.99837V51.0146H3.99837ZM3.9986 52.8835C3.99659 53.0166 3.97944 53.0558 3.98719 53.0326C3.99767 53.0011 4.03655 52.9091 4.13331 52.8093C4.23189 52.7077 4.33484 52.6555 4.39576 52.6343C4.4465 52.6167 4.43718 52.6309 4.33333 52.6309V56.6309C5.2147 56.6309 6.22803 56.3951 7.00491 55.5939C7.76566 54.8094 7.98511 53.8046 7.99814 52.9441L3.9986 52.8835ZM4.36318 52.6311C4.23106 52.6291 4.19422 52.6117 4.2201 52.6206C4.25492 52.6325 4.34531 52.673 4.44023 52.7679C4.53576 52.8634 4.57961 52.9579 4.59464 53.0025C4.60643 53.0375 4.59024 53.0103 4.59024 52.8878H0.590244C0.590244 53.7786 0.819031 54.8036 1.6118 55.5963C2.39924 56.3838 3.4193 56.6175 4.30349 56.6307L4.36318 52.6311ZM4.59019 52.9023L4.61621 49.3121L0.616313 49.2831L0.590296 52.8733L4.59019 52.9023ZM4.61626 49.2976C4.61626 49.1721 4.63264 49.1437 4.62094 49.1788C4.60602 49.2236 4.56098 49.3227 4.45974 49.424C4.3585 49.5252 4.25935 49.5702 4.21457 49.5852C4.17948 49.5969 4.20785 49.5805 4.33333 49.5805V45.5805C3.45269 45.5805 2.42485 45.802 1.63132 46.5955C0.837777 47.3891 0.61626 48.4169 0.61626 49.2976H4.61626ZM4.33333 49.5805H18.0699V45.5805H4.33333V49.5805ZM18.0699 49.5805C18.1934 49.5805 18.223 49.5963 18.1906 49.5858C18.1492 49.5723 18.053 49.5301 17.9524 49.4325C17.8512 49.3344 17.8026 49.2355 17.7847 49.1848C17.7701 49.1436 17.7855 49.163 17.7872 49.2768L21.7867 49.2143C21.7731 48.3407 21.5328 47.3326 20.737 46.5609C19.9467 45.7946 18.9368 45.5805 18.0699 45.5805V49.5805ZM17.787 49.2455C17.787 49.2169 17.7882 49.1969 17.7888 49.1876C17.7895 49.1779 17.79 49.1749 17.7894 49.1796C17.7889 49.184 17.7875 49.1938 17.7849 49.2094C17.7823 49.2249 17.7787 49.2449 17.7738 49.2696L21.6961 50.054C21.7414 49.8276 21.787 49.5411 21.787 49.2455H17.787ZM17.7826 49.2279L10.9143 80.1352L14.819 81.003L21.6873 50.0956L17.7826 49.2279ZM10.9179 80.1194C10.8823 80.2735 10.8703 80.1712 11.0277 80.0413C11.101 79.9808 11.1746 79.9462 11.2265 79.9299C11.2733 79.9151 11.2804 79.922 11.2276 79.922V83.922C12.0158 83.922 12.8604 83.7151 13.5739 83.1262C14.2777 82.5453 14.6429 81.7666 14.8154 81.0188L10.9179 80.1194ZM11.2276 79.922C11.0953 79.922 11.06 79.9049 11.089 79.9145C11.1273 79.927 11.2233 79.9688 11.3239 80.0679C11.4251 80.1676 11.4717 80.267 11.488 80.315C11.5008 80.353 11.4846 80.3277 11.4846 80.2049H7.48455C7.48455 81.0932 7.71239 82.1251 8.51678 82.9175C9.31563 83.7044 10.3458 83.922 11.2276 83.922V79.922ZM11.4846 80.2049C11.4846 80.1779 11.4849 80.1565 11.4854 80.14C11.4858 80.1234 11.4864 80.1138 11.4866 80.1103C11.4867 80.1086 11.4867 80.1091 11.4865 80.1116C11.4863 80.114 11.4858 80.1189 11.4849 80.1261C11.4841 80.1333 11.4827 80.1436 11.4807 80.1566C11.4787 80.1696 11.4758 80.1865 11.4717 80.2069L7.54941 79.4224C7.49209 79.709 7.48455 79.9998 7.48455 80.2049H11.4846ZM11.4629 80.2485L17.8629 51.4485L13.9582 50.5808L7.55819 79.3808L11.4629 80.2485ZM26.5331 72.9463L24.61 72.3969L24.61 72.3969L26.5331 72.9463ZM33.4013 48.9073L31.4813 48.3473L31.4783 48.3579L33.4013 48.9073ZM36.7054 49.8699L34.7898 49.2952L34.7861 49.3075L34.7825 49.3199L36.7054 49.8699ZM30.4615 71.6976L28.5386 71.1475L27.8092 73.6976H30.4615V71.6976ZM38.5005 71.6976V73.6976H40.5005V71.6976H38.5005ZM41.9347 71.6976H39.9347V73.6976H41.9347V71.6976ZM41.9347 75.1317V73.1317H39.9347V75.1317H41.9347ZM38.5005 75.1317H40.5005V73.1317H38.5005V75.1317ZM28.481 73.4146C28.481 73.378 28.4828 73.3665 28.4818 73.3753C28.4812 73.3804 28.4797 73.3931 28.476 73.4125C28.4724 73.4317 28.4663 73.4601 28.4561 73.4958L24.61 72.3969C24.5053 72.7632 24.481 73.1225 24.481 73.4146H28.481ZM28.4561 73.4958L35.3244 49.4568L31.4783 48.3579L24.61 72.3969L28.4561 73.4958ZM35.3213 49.4673C35.3376 49.4115 35.3457 49.4091 35.3274 49.4378C35.3068 49.4699 35.2655 49.5214 35.1997 49.5707C35.1339 49.6201 35.0729 49.6453 35.0363 49.6561C35.0037 49.6656 35.0082 49.6585 35.0664 49.6585V45.6585C34.3099 45.6585 33.502 45.844 32.7997 46.3707C32.0974 46.8975 31.6932 47.621 31.4813 48.3473L35.3213 49.4673ZM35.0664 49.6585C35.1919 49.6585 35.2202 49.6749 35.1852 49.6632C35.1404 49.6483 35.0412 49.6033 34.94 49.502C34.8387 49.4008 34.7937 49.3016 34.7788 49.2568C34.7671 49.2218 34.7835 49.2501 34.7835 49.3756H38.7835C38.7835 48.495 38.5619 47.4671 37.7684 46.6736C36.9749 45.8801 35.947 45.6585 35.0664 45.6585V49.6585ZM34.7835 49.3756C34.7835 49.3088 34.7946 49.2791 34.7898 49.2952L38.6211 50.4446C38.7203 50.1138 38.7835 49.7546 38.7835 49.3756H34.7835ZM34.7825 49.3199L28.5386 71.1475L32.3844 72.2476L38.6283 50.42L34.7825 49.3199ZM30.4615 73.6976H38.5005V69.6976H30.4615V73.6976ZM40.5005 71.6976V66.5463H36.5005V71.6976H40.5005ZM40.5005 66.5463C40.5005 66.4209 40.5169 66.3925 40.5052 66.4276C40.4903 66.4724 40.4453 66.5715 40.344 66.6728C40.2428 66.774 40.1436 66.819 40.0988 66.834C40.0638 66.8456 40.0921 66.8293 40.2176 66.8293V62.8293C39.337 62.8293 38.3091 63.0508 37.5156 63.8443C36.722 64.6379 36.5005 65.6657 36.5005 66.5463H40.5005ZM40.2176 66.8293C40.3431 66.8293 40.3715 66.8456 40.3364 66.834C40.2916 66.819 40.1924 66.774 40.0912 66.6728C39.99 66.5715 39.9449 66.4724 39.93 66.4276C39.9183 66.3925 39.9347 66.4209 39.9347 66.5463H43.9347C43.9347 65.6657 43.7132 64.6379 42.9196 63.8443C42.1261 63.0508 41.0983 62.8293 40.2176 62.8293V66.8293ZM39.9347 66.5463V71.6976H43.9347V66.5463H39.9347ZM41.9347 73.6976H45.3688V69.6976H41.9347V73.6976ZM45.3688 73.6976C45.4943 73.6976 45.5227 73.7139 45.4876 73.7022C45.4428 73.6873 45.3437 73.6423 45.2424 73.541C45.1412 73.4398 45.0961 73.3406 45.0812 73.2959C45.0695 73.2608 45.0859 73.2892 45.0859 73.4146H49.0859C49.0859 72.534 48.8644 71.5062 48.0708 70.7126C47.2773 69.9191 46.2495 69.6976 45.3688 69.6976V73.6976ZM45.0859 73.4146C45.0859 73.5401 45.0695 73.5685 45.0812 73.5334C45.0961 73.4886 45.1412 73.3895 45.2424 73.2882C45.3437 73.187 45.4428 73.1419 45.4876 73.127C45.5227 73.1153 45.4943 73.1317 45.3688 73.1317V77.1317C46.2495 77.1317 47.2773 76.9102 48.0708 76.1167C48.8644 75.3231 49.0859 74.2953 49.0859 73.4146H45.0859ZM45.3688 73.1317H41.9347V77.1317H45.3688V73.1317ZM39.9347 75.1317V80.2829H43.9347V75.1317H39.9347ZM39.9347 80.2829C39.9347 80.4084 39.9183 80.4368 39.93 80.4017C39.9449 80.3569 39.99 80.2578 40.0912 80.1565C40.1924 80.0553 40.2916 80.0102 40.3364 79.9953C40.3715 79.9836 40.3431 80 40.2176 80V84C41.0983 84 42.1261 83.7785 42.9196 82.9849C43.7132 82.1914 43.9347 81.1636 43.9347 80.2829H39.9347ZM40.2176 80C40.0921 80 40.0638 79.9836 40.0988 79.9953C40.1436 80.0102 40.2428 80.0553 40.344 80.1565C40.4453 80.2578 40.4903 80.3569 40.5052 80.4017C40.5169 80.4368 40.5005 80.4084 40.5005 80.2829H36.5005C36.5005 81.1636 36.722 82.1914 37.5156 82.9849C38.3091 83.7785 39.337 84 40.2176 84V80ZM40.5005 80.2829V75.1317H36.5005V80.2829H40.5005ZM38.5005 73.1317H28.1981V77.1317H38.5005V73.1317ZM28.1981 73.1317C28.0726 73.1317 28.0442 73.1153 28.0793 73.127C28.1241 73.1419 28.2233 73.187 28.3245 73.2882C28.4257 73.3895 28.4708 73.4886 28.4857 73.5334C28.4974 73.5685 28.481 73.5401 28.481 73.4146H24.481C24.481 74.2953 24.7025 75.3231 25.4961 76.1167C26.2896 76.9102 27.3174 77.1317 28.1981 77.1317V73.1317ZM67.4262 51.0146L69.3786 51.4485L69.9194 49.0146H67.4262V51.0146ZM57.514 51.0146V49.0146H55.514V51.0146H57.514ZM57.514 52.9138L59.5138 52.9441L59.514 52.929V52.9138H57.514ZM55.849 54.6309L55.8191 56.6307L55.834 56.6309H55.849V54.6309ZM54.1059 52.8878L52.1059 52.8733L52.1059 52.8806V52.8878H54.1059ZM54.1319 49.2976L56.1318 49.3121L56.1319 49.3048V49.2976H54.1319ZM71.3026 49.2455H73.3026V49.2299L73.3024 49.2143L71.3026 49.2455ZM71.2506 49.6618L73.203 50.0956L73.2076 50.0749L73.2117 50.054L71.2506 49.6618ZM64.3823 80.5691L66.3311 81.0188L66.3329 81.0109L66.3347 81.003L64.3823 80.5691ZM61.0262 79.8146L59.0738 79.3808L59.0692 79.4015L59.065 79.4224L61.0262 79.8146ZM67.4262 49.0146H57.514V53.0146H67.4262V49.0146ZM55.514 51.0146V52.9138H59.514V51.0146H55.514ZM55.5142 52.8835C55.5122 53.0166 55.4951 53.0558 55.5028 53.0326C55.5133 53.0011 55.5522 52.9091 55.6489 52.8093C55.7475 52.7077 55.8505 52.6555 55.9114 52.6343C55.9621 52.6167 55.9528 52.6309 55.849 52.6309V56.6309C56.7303 56.6309 57.7437 56.3951 58.5205 55.5939C59.2813 54.8094 59.5007 53.8046 59.5138 52.9441L55.5142 52.8835ZM55.8788 52.6311C55.7467 52.6291 55.7098 52.6117 55.7357 52.6206C55.7705 52.6325 55.8609 52.673 55.9559 52.7679C56.0514 52.8634 56.0952 52.9579 56.1103 53.0025C56.1221 53.0375 56.1059 53.0103 56.1059 52.8878H52.1059C52.1059 53.7786 52.3347 54.8036 53.1274 55.5963C53.9149 56.3838 54.9349 56.6175 55.8191 56.6307L55.8788 52.6311ZM56.1058 52.9023L56.1318 49.3121L52.1319 49.2831L52.1059 52.8733L56.1058 52.9023ZM56.1319 49.2976C56.1319 49.1721 56.1483 49.1437 56.1366 49.1788C56.1216 49.2236 56.0766 49.3227 55.9754 49.424C55.8741 49.5252 55.775 49.5702 55.7302 49.5852C55.6951 49.5969 55.7235 49.5805 55.849 49.5805V45.5805C54.9683 45.5805 53.9405 45.802 53.1469 46.5955C52.3534 47.3891 52.1319 48.4169 52.1319 49.2976H56.1319ZM55.849 49.5805H69.5855V45.5805H55.849V49.5805ZM69.5855 49.5805C69.709 49.5805 69.7386 49.5963 69.7062 49.5858C69.6648 49.5723 69.5686 49.5301 69.468 49.4325C69.3669 49.3344 69.3183 49.2355 69.3003 49.1848C69.2857 49.1436 69.3011 49.163 69.3029 49.2768L73.3024 49.2143C73.2887 48.3407 73.0484 47.3326 72.2526 46.5609C71.4623 45.7946 70.4524 45.5805 69.5855 45.5805V49.5805ZM69.3026 49.2455C69.3026 49.2169 69.3038 49.1969 69.3044 49.1876C69.3051 49.1779 69.3056 49.1749 69.3051 49.1796C69.3045 49.184 69.3032 49.1938 69.3006 49.2094C69.298 49.2249 69.2944 49.2449 69.2894 49.2696L73.2117 50.054C73.257 49.8276 73.3026 49.5411 73.3026 49.2455H69.3026ZM69.2982 49.2279L62.4299 80.1352L66.3347 81.003L73.203 50.0956L69.2982 49.2279ZM62.4335 80.1194C62.398 80.2735 62.3859 80.1712 62.5433 80.0413C62.6167 79.9808 62.6902 79.9462 62.7421 79.9299C62.789 79.9151 62.796 79.922 62.7433 79.922V83.922C63.5314 83.922 64.3761 83.7151 65.0896 83.1262C65.7933 82.5453 66.1585 81.7666 66.3311 81.0188L62.4335 80.1194ZM62.7433 79.922C62.6109 79.922 62.5757 79.9049 62.6046 79.9145C62.6429 79.927 62.7389 79.9688 62.8395 80.0679C62.9407 80.1676 62.9874 80.267 63.0036 80.315C63.0165 80.353 63.0002 80.3277 63.0002 80.2049H59.0002C59.0002 81.0932 59.228 82.1251 60.0324 82.9175C60.8313 83.7044 61.8614 83.922 62.7433 83.922V79.922ZM63.0002 80.2049C63.0002 80.1779 63.0005 80.1565 63.001 80.14C63.0015 80.1234 63.002 80.1138 63.0023 80.1103C63.0024 80.1086 63.0023 80.1091 63.0021 80.1116C63.0019 80.114 63.0014 80.1189 63.0006 80.1261C62.9997 80.1333 62.9984 80.1436 62.9963 80.1566C62.9943 80.1696 62.9914 80.1865 62.9874 80.2069L59.065 79.4224C59.0077 79.709 59.0002 79.9998 59.0002 80.2049H63.0002ZM62.9786 80.2485L69.3786 51.4485L65.4738 50.5808L59.0738 79.3808L62.9786 80.2485ZM90.2243 59.9122L91.6385 61.3264L91.6385 61.3264L90.2243 59.9122ZM90.2243 52.6016L91.6385 51.1874L91.6385 51.1874L90.2243 52.6016ZM92.6438 50.1821L91.2223 51.589L91.2296 51.5963L92.6438 50.1821ZM91.7332 63.1122L90.5255 61.518L88.4212 63.1122L90.5255 64.7064L91.7332 63.1122ZM92.6438 79.5024L94.0507 80.924L94.058 80.9167L92.6438 79.5024ZM90.2243 77.0829L91.6385 78.4971L91.6385 78.4971L90.2243 77.0829ZM90.2243 66.3382L91.6385 64.924L91.6385 64.924L90.2243 66.3382ZM86.582 62.8293H83.1479V66.8293H86.582V62.8293ZM83.1479 62.8293C83.0224 62.8293 82.994 62.8129 83.0291 62.8246C83.0739 62.8395 83.173 62.8846 83.2743 62.9858C83.3755 63.087 83.4206 63.1862 83.4355 63.231C83.4472 63.2661 83.4308 63.2377 83.4308 63.1122H79.4308C79.4308 63.9928 79.6523 65.0207 80.4458 65.8142C81.2394 66.6078 82.2672 66.8293 83.1479 66.8293V62.8293ZM83.4308 63.1122C83.4308 62.9867 83.4472 62.9583 83.4355 62.9934C83.4206 63.0382 83.3755 63.1374 83.2743 63.2386C83.173 63.3398 83.0739 63.3849 83.0291 63.3998C82.994 63.4115 83.0224 63.3951 83.1479 63.3951V59.3951C82.2672 59.3951 81.2394 59.6166 80.4458 60.4102C79.6523 61.2037 79.4308 62.2315 79.4308 63.1122H83.4308ZM83.1479 63.3951H86.582V59.3951H83.1479V63.3951ZM86.582 63.3951C88.5344 63.3951 90.2626 62.7024 91.6385 61.3264L88.8101 58.498C88.2088 59.0993 87.5087 59.3951 86.582 59.3951V63.3951ZM91.6385 61.3264C93.0245 59.9404 93.7332 58.2068 93.7332 56.2439H89.7332C89.7332 57.1601 89.436 57.8721 88.8101 58.498L91.6385 61.3264ZM93.7332 56.2439C93.7332 54.2911 93.0194 52.5683 91.6385 51.1874L88.8101 54.0158C89.4411 54.6469 89.7332 55.3523 89.7332 56.2439H93.7332ZM91.6385 51.1874C90.2576 49.8065 88.5348 49.0927 86.582 49.0927V53.0927C87.4736 53.0927 88.1791 53.3848 88.8101 54.0158L91.6385 51.1874ZM86.582 49.0927H79.7137V53.0927H86.582V49.0927ZM79.7137 49.0927C79.5882 49.0927 79.5599 49.0763 79.595 49.088C79.6397 49.1029 79.7389 49.148 79.8401 49.2492C79.9414 49.3504 79.9864 49.4496 80.0013 49.4944C80.013 49.5295 79.9966 49.5011 79.9966 49.3756H75.9966C75.9966 50.2563 76.2182 51.2841 77.0117 52.0776C77.8052 52.8712 78.8331 53.0927 79.7137 53.0927V49.0927ZM79.9966 49.3756C79.9966 49.2501 80.013 49.2218 80.0013 49.2568C79.9864 49.3016 79.9414 49.4008 79.8401 49.502C79.7389 49.6033 79.6397 49.6483 79.595 49.6632C79.5599 49.6749 79.5882 49.6585 79.7137 49.6585V45.6585C78.8331 45.6585 77.8052 45.8801 77.0117 46.6736C76.2182 47.4671 75.9966 48.495 75.9966 49.3756H79.9966ZM79.7137 49.6585H86.582V45.6585H79.7137V49.6585ZM86.582 49.6585C88.4265 49.6585 89.9345 50.2878 91.2223 51.589L94.0653 48.7752C92.023 46.7117 89.4899 45.6585 86.582 45.6585V49.6585ZM91.2296 51.5963C92.5406 52.9073 93.1674 54.4207 93.1674 56.2439H97.1674C97.1674 53.3495 96.1118 50.8217 94.058 48.7679L91.2296 51.5963ZM93.1674 56.2439C93.1674 58.4551 92.3216 60.1573 90.5255 61.518L92.9409 64.7064C95.7237 62.5982 97.1674 59.7216 97.1674 56.2439H93.1674ZM90.5255 64.7064C92.3216 66.0671 93.1674 67.7693 93.1674 69.9805H97.1674C97.1674 66.5028 95.7237 63.6262 92.9409 61.518L90.5255 64.7064ZM93.1674 69.9805V73.4146H97.1674V69.9805H93.1674ZM93.1674 73.4146C93.1674 75.2596 92.5374 76.7804 91.2296 78.0882L94.058 80.9167C96.1149 78.8597 97.1674 76.322 97.1674 73.4146H93.1674ZM91.2369 78.0809C89.9275 79.3768 88.4119 80 86.582 80V84C89.4697 84 91.9953 82.9582 94.0507 80.924L91.2369 78.0809ZM86.582 80H79.7137V84H86.582V80ZM79.7137 80C79.5882 80 79.5599 79.9836 79.595 79.9953C79.6397 80.0102 79.7389 80.0553 79.8401 80.1565C79.9414 80.2578 79.9864 80.3569 80.0013 80.4017C80.013 80.4368 79.9966 80.4084 79.9966 80.2829H75.9966C75.9966 81.1636 76.2182 82.1914 77.0117 82.9849C77.8052 83.7785 78.8331 84 79.7137 84V80ZM79.9966 80.2829C79.9966 80.1574 80.013 80.1291 80.0013 80.1642C79.9864 80.2089 79.9414 80.3081 79.8401 80.4093C79.7389 80.5106 79.6397 80.5556 79.595 80.5705C79.5599 80.5822 79.5882 80.5659 79.7137 80.5659V76.5659C78.8331 76.5659 77.8052 76.7874 77.0117 77.5809C76.2182 78.3744 75.9966 79.4023 75.9966 80.2829H79.9966ZM79.7137 80.5659H86.582V76.5659H79.7137V80.5659ZM86.582 80.5659C88.5344 80.5659 90.2626 79.8731 91.6385 78.4971L88.8101 75.6687C88.2088 76.27 87.5087 76.5659 86.582 76.5659V80.5659ZM91.6385 78.4971C93.0245 77.1111 93.7332 75.3775 93.7332 73.4146H89.7332C89.7332 74.3309 89.436 75.0428 88.8101 75.6687L91.6385 78.4971ZM93.7332 73.4146V69.9805H89.7332V73.4146H93.7332ZM93.7332 69.9805C93.7332 68.0277 93.0194 66.3049 91.6385 64.924L88.8101 67.7524C89.4411 68.3834 89.7332 69.0889 89.7332 69.9805H93.7332ZM91.6385 64.924C90.2576 63.5431 88.5348 62.8293 86.582 62.8293V66.8293C87.4736 66.8293 88.1791 67.1214 88.8101 67.7524L91.6385 64.924ZM117.497 71.4146H103.761V75.4146H117.497V71.4146ZM103.761 71.4146C103.635 71.4146 103.607 71.3983 103.642 71.41C103.687 71.4249 103.786 71.4699 103.887 71.5712C103.988 71.6724 104.033 71.7715 104.048 71.8163C104.06 71.8514 104.044 71.823 104.044 71.6976H100.044C100.044 72.5782 100.265 73.606 101.059 74.3996C101.852 75.1931 102.88 75.4146 103.761 75.4146V71.4146ZM104.044 71.6976C104.044 71.5721 104.06 71.5437 104.048 71.5788C104.033 71.6236 103.988 71.7227 103.887 71.824C103.786 71.9252 103.687 71.9702 103.642 71.9852C103.607 71.9969 103.635 71.9805 103.761 71.9805V67.9805C102.88 67.9805 101.852 68.202 101.059 68.9955C100.265 69.7891 100.044 70.8169 100.044 71.6976H104.044ZM103.761 71.9805H117.497V67.9805H103.761V71.9805ZM117.497 71.9805C117.623 71.9805 117.651 71.9969 117.616 71.9852C117.571 71.9702 117.472 71.9252 117.371 71.824C117.27 71.7227 117.224 71.6236 117.21 71.5788C117.198 71.5437 117.214 71.5721 117.214 71.6976H121.214C121.214 70.8169 120.993 69.7891 120.199 68.9955C119.406 68.202 118.378 67.9805 117.497 67.9805V71.9805ZM117.214 71.6976C117.214 71.823 117.198 71.8514 117.21 71.8163C117.224 71.7715 117.27 71.6724 117.371 71.5712C117.472 71.4699 117.571 71.4249 117.616 71.41C117.651 71.3983 117.623 71.4146 117.497 71.4146V75.4146C118.378 75.4146 119.406 75.1931 120.199 74.3996C120.993 73.606 121.214 72.5782 121.214 71.6976H117.214ZM140.738 50.1821L139.316 51.589L139.323 51.5963L139.331 51.6036L140.738 50.1821ZM141.7 61.187L140.004 60.127L140.002 60.1297L141.7 61.187ZM130.877 78.5659L129.18 77.5086L127.276 80.5659H130.877V78.5659ZM126.377 79.2943L124.679 78.2369L124.674 78.2441L124.67 78.2514L126.377 79.2943ZM138.968 59.0797L140.666 60.1371L140.666 60.1368L138.968 59.0797ZM138.318 52.6016L139.732 51.1874L139.732 51.1874L138.318 52.6016ZM129.29 55.4114L127.555 54.418L127.551 54.4244L127.547 54.4309L129.29 55.4114ZM126.246 53.8244L124.471 52.9031L124.464 52.9165L124.458 52.93L126.246 53.8244ZM134.676 49.6585C136.52 49.6585 138.028 50.2878 139.316 51.589L142.159 48.7752C140.117 46.7117 137.584 45.6585 134.676 45.6585V49.6585ZM139.331 51.6036C140.632 52.8914 141.261 54.3995 141.261 56.2439H145.261C145.261 53.3361 144.208 50.8029 142.144 48.7606L139.331 51.6036ZM141.261 56.2439C141.261 57.4291 140.887 58.7144 140.004 60.127L143.396 62.247C144.595 60.3295 145.261 58.3194 145.261 56.2439H141.261ZM140.002 60.1297L129.18 77.5086L132.575 79.6231L143.398 62.2442L140.002 60.1297ZM130.877 80.5659H141.544V76.5659H130.877V80.5659ZM141.544 80.5659C141.67 80.5659 141.698 80.5822 141.663 80.5705C141.618 80.5556 141.519 80.5106 141.418 80.4093C141.316 80.3081 141.271 80.2089 141.256 80.1642C141.245 80.1291 141.261 80.1574 141.261 80.2829H145.261C145.261 79.4023 145.04 78.3744 144.246 77.5809C143.453 76.7874 142.425 76.5659 141.544 76.5659V80.5659ZM141.261 80.2829C141.261 80.4084 141.245 80.4368 141.256 80.4017C141.271 80.3569 141.316 80.2578 141.418 80.1565C141.519 80.0553 141.618 80.0102 141.663 79.9953C141.698 79.9836 141.67 80 141.544 80V84C142.425 84 143.453 83.7785 144.246 82.9849C145.04 82.1914 145.261 81.1636 145.261 80.2829H141.261ZM141.544 80H127.807V84H141.544V80ZM127.807 80C127.682 80 127.654 79.9836 127.689 79.9953C127.733 80.0102 127.833 80.0553 127.934 80.1565C128.035 80.2578 128.08 80.3569 128.095 80.4017C128.107 80.4368 128.09 80.4084 128.09 80.2829H124.09C124.09 81.1636 124.312 82.1914 125.105 82.9849C125.899 83.7785 126.927 84 127.807 84V80ZM128.09 80.2829C128.09 80.2882 128.09 80.2959 128.089 80.3053C128.087 80.3147 128.085 80.3238 128.083 80.3317C128.078 80.349 128.074 80.3514 128.083 80.3372L124.67 78.2514C124.298 78.8597 124.09 79.5475 124.09 80.2829H128.09ZM128.074 80.3518L140.666 60.1371L137.271 58.0222L124.679 78.2369L128.074 80.3518ZM140.666 60.1368C141.413 58.9379 141.827 57.6308 141.827 56.2439H137.827C137.827 56.7996 137.669 57.383 137.271 58.0226L140.666 60.1368ZM141.827 56.2439C141.827 54.2911 141.113 52.5683 139.732 51.1874L136.904 54.0158C137.535 54.6469 137.827 55.3523 137.827 56.2439H141.827ZM139.732 51.1874C138.351 49.8065 136.629 49.0927 134.676 49.0927V53.0927C135.567 53.0927 136.273 53.3848 136.904 54.0158L139.732 51.1874ZM134.676 49.0927C131.614 49.0927 129.299 51.3693 127.555 54.418L131.026 56.4048C132.577 53.6952 133.852 53.0927 134.676 53.0927V49.0927ZM127.547 54.4309C127.545 54.4346 127.556 54.4147 127.586 54.384C127.616 54.3523 127.658 54.3193 127.706 54.2918C127.811 54.233 127.869 54.2439 127.807 54.2439V58.2439C129.151 58.2439 130.341 57.6235 131.034 56.3919L127.547 54.4309ZM127.807 54.2439C127.682 54.2439 127.654 54.2275 127.689 54.2392C127.733 54.2541 127.833 54.2992 127.934 54.4004C128.035 54.5017 128.08 54.6008 128.095 54.6456C128.107 54.6807 128.09 54.6523 128.09 54.5268H124.09C124.09 55.4075 124.312 56.4353 125.105 57.2288C125.899 58.0224 126.927 58.2439 127.807 58.2439V54.2439ZM128.09 54.5268C128.09 54.5305 128.09 54.5531 128.082 54.59C128.073 54.6276 128.059 54.6722 128.035 54.7188L124.458 52.93C124.199 53.4471 124.09 53.9932 124.09 54.5268H128.09ZM128.022 54.7457C129.942 51.0447 132.184 49.6585 134.676 49.6585V45.6585C130.195 45.6585 126.817 48.383 124.471 52.9031L128.022 54.7457ZM162.963 56.7902L164.907 56.321L164.907 56.3198L162.963 56.7902ZM154.508 56.8163L156.451 57.289L156.452 57.2847L154.508 56.8163ZM154.482 72.8683L152.537 73.3345L152.538 73.3387L154.482 72.8683ZM162.963 72.8683L164.907 73.3387L164.908 73.3345L162.963 72.8683ZM165.799 75.4439L167.694 76.0831L167.694 76.083L165.799 75.4439ZM151.646 75.4699L149.751 76.109L149.752 76.1114L151.646 75.4699ZM151.646 54.1886L149.752 53.5471L149.751 53.5496L151.646 54.1886ZM165.799 54.2146L167.694 53.5756L167.694 53.5754L165.799 54.2146ZM165.874 64.8293C165.874 61.8422 165.555 59.0039 164.907 56.321L161.019 57.2595C161.586 59.6064 161.874 62.1274 161.874 64.8293H165.874ZM164.907 56.3198C164.42 54.3075 163.757 52.5842 162.818 51.3229C161.835 50.0023 160.461 49.0927 158.723 49.0927V53.0927C158.892 53.0927 159.179 53.1327 159.609 53.7112C160.084 54.3491 160.587 55.4746 161.019 57.2607L164.907 56.3198ZM158.723 49.0927C156.982 49.0927 155.614 50.016 154.641 51.3377C153.71 52.6018 153.05 54.329 152.564 56.3478L156.452 57.2847C156.885 55.4878 157.388 54.3532 157.862 53.7095C158.293 53.1233 158.573 53.0927 158.723 53.0927V49.0927ZM152.565 56.3436C151.901 59.0728 151.571 61.903 151.571 64.8293H155.571C155.571 62.2054 155.866 59.6935 156.451 57.289L152.565 56.3436ZM151.571 64.8293C151.571 67.8001 151.89 70.6372 152.537 73.3345L156.427 72.4021C155.859 70.0349 155.571 67.5126 155.571 64.8293H151.571ZM152.538 73.3387C153.025 75.351 153.688 77.0743 154.627 78.3356C155.61 79.6562 156.984 80.5659 158.723 80.5659V76.5659C158.553 76.5659 158.267 76.5259 157.836 75.9473C157.361 75.3094 156.858 74.1839 156.426 72.3979L152.538 73.3387ZM158.723 80.5659C160.461 80.5659 161.835 79.6562 162.818 78.3356C163.757 77.0743 164.42 75.351 164.907 73.3387L161.019 72.3979C160.587 74.1839 160.084 75.3094 159.609 75.9473C159.179 76.5259 158.892 76.5659 158.723 76.5659V80.5659ZM164.908 73.3345C165.555 70.6372 165.874 67.8001 165.874 64.8293H161.874C161.874 67.5126 161.586 70.0349 161.018 72.4021L164.908 73.3345ZM165.308 64.8293C165.308 68.7668 164.823 72.0788 163.904 74.8048L167.694 76.083C168.787 72.8426 169.308 69.0782 169.308 64.8293H165.308ZM163.904 74.8047C163.23 76.8025 162.416 78.1053 161.565 78.8939C160.759 79.6407 159.845 80 158.723 80V84C160.844 84 162.731 83.2666 164.284 81.8281C165.791 80.4312 166.894 78.4561 167.694 76.0831L163.904 74.8047ZM158.723 80C157.598 80 156.683 79.6412 155.877 78.8977C155.027 78.113 154.214 76.8167 153.541 74.8284L149.752 76.1114C150.553 78.4765 151.656 80.4453 153.165 81.8373C154.718 83.2705 156.604 84 158.723 84V80ZM153.541 74.8309C152.622 72.1056 152.137 68.7852 152.137 64.8293H148.137C148.137 69.0945 148.658 72.8679 149.751 76.109L153.541 74.8309ZM152.137 64.8293C152.137 60.8733 152.622 57.553 153.541 54.8277L149.751 53.5496C148.658 56.7907 148.137 60.5641 148.137 64.8293H152.137ZM153.541 54.8301C154.214 52.8419 155.027 51.5455 155.877 50.7609C156.683 50.0174 157.598 49.6585 158.723 49.6585V45.6585C156.604 45.6585 154.718 46.388 153.165 47.8212C151.656 49.2133 150.553 51.182 149.752 53.5471L153.541 54.8301ZM158.723 49.6585C159.845 49.6585 160.759 50.0178 161.565 50.7647C162.416 51.5532 163.23 52.8561 163.904 54.8539L167.694 53.5754C166.894 51.2025 165.791 49.2273 164.284 47.8304C162.731 46.3919 160.844 45.6585 158.723 45.6585V49.6585ZM163.904 54.8537C164.823 57.5798 165.308 60.8917 165.308 64.8293H169.308C169.308 60.5804 168.787 56.8159 167.694 53.5756L163.904 54.8537ZM181.052 53.5122H183.052V48.6838L179.638 52.098L181.052 53.5122ZM177.098 57.4667L178.512 58.8809L178.512 58.8809L177.098 57.4667ZM174.678 55.0472L176.093 56.4614L176.093 56.4614L174.678 55.0472ZM181.391 48.335L182.805 49.7492L182.805 49.7492L181.391 48.335ZM179.638 52.098L175.684 56.0525L178.512 58.8809L182.467 54.9264L179.638 52.098ZM175.684 56.0525C175.69 56.046 175.725 56.0148 175.788 55.9889C175.851 55.963 175.896 55.961 175.901 55.961V59.961C176.897 59.961 177.806 59.5875 178.512 58.8809L175.684 56.0525ZM175.901 55.961C175.776 55.961 175.747 55.9446 175.782 55.9563C175.827 55.9712 175.926 56.0163 176.028 56.1175C176.129 56.2187 176.174 56.3179 176.189 56.3627C176.201 56.3978 176.184 56.3694 176.184 56.2439H172.184C172.184 57.1246 172.406 58.1524 173.199 58.9459C173.993 59.7395 175.021 59.961 175.901 59.961V55.961ZM176.184 56.2439C176.184 56.2493 176.182 56.2944 176.156 56.357C176.13 56.4198 176.099 56.4549 176.093 56.4614L173.264 53.6329C172.558 54.3396 172.184 55.2481 172.184 56.2439H176.184ZM176.093 56.4614L182.805 49.7492L179.976 46.9207L173.264 53.6329L176.093 56.4614ZM182.805 49.7492C182.911 49.6427 182.964 49.6186 182.954 49.6232C182.948 49.6263 182.927 49.6358 182.892 49.6443C182.857 49.6529 182.815 49.6585 182.77 49.6585V45.6585C181.602 45.6585 180.663 46.2339 179.976 46.9207L182.805 49.7492ZM182.77 49.6585C182.895 49.6585 182.923 49.6749 182.888 49.6632C182.843 49.6483 182.744 49.6033 182.643 49.502C182.542 49.4008 182.497 49.3016 182.482 49.2568C182.47 49.2218 182.487 49.2501 182.487 49.3756H186.487C186.487 48.495 186.265 47.4671 185.472 46.6736C184.678 45.8801 183.65 45.6585 182.77 45.6585V49.6585ZM182.487 49.3756V80.2829H186.487V49.3756H182.487ZM182.487 80.2829C182.487 80.4084 182.47 80.4368 182.482 80.4017C182.497 80.3569 182.542 80.2578 182.643 80.1565C182.744 80.0553 182.843 80.0102 182.888 79.9953C182.923 79.9836 182.895 80 182.77 80V84C183.65 84 184.678 83.7785 185.472 82.9849C186.265 82.1914 186.487 81.1636 186.487 80.2829H182.487ZM182.77 80C182.644 80 182.616 79.9836 182.651 79.9953C182.696 80.0102 182.795 80.0553 182.896 80.1565C182.997 80.2578 183.042 80.3569 183.057 80.4017C183.069 80.4368 183.052 80.4084 183.052 80.2829H179.052C179.052 81.1636 179.274 82.1914 180.067 82.9849C180.861 83.7785 181.889 84 182.77 84V80ZM183.052 80.2829V53.5122H179.052V80.2829H183.052ZM204.166 56.7902L206.111 56.321L206.11 56.3198L204.166 56.7902ZM195.711 56.8163L197.654 57.289L197.656 57.2847L195.711 56.8163ZM195.685 72.8683L193.74 73.3345L193.741 73.3387L195.685 72.8683ZM204.166 72.8683L206.11 73.3387L206.111 73.3345L204.166 72.8683ZM207.002 75.4439L208.897 76.0831L208.897 76.083L207.002 75.4439ZM192.849 75.4699L190.954 76.109L190.955 76.1114L192.849 75.4699ZM192.849 54.1886L190.955 53.5471L190.954 53.5496L192.849 54.1886ZM207.002 54.2146L208.897 53.5756L208.897 53.5754L207.002 54.2146ZM207.077 64.8293C207.077 61.8422 206.758 59.0039 206.111 56.321L202.222 57.2595C202.789 59.6064 203.077 62.1274 203.077 64.8293H207.077ZM206.11 56.3198C205.623 54.3075 204.96 52.5842 204.021 51.3229C203.038 50.0023 201.664 49.0927 199.926 49.0927V53.0927C200.095 53.0927 200.382 53.1327 200.812 53.7112C201.287 54.3491 201.79 55.4746 202.223 57.2607L206.11 56.3198ZM199.926 49.0927C198.185 49.0927 196.817 50.016 195.844 51.3377C194.913 52.6018 194.253 54.329 193.767 56.3478L197.656 57.2847C198.088 55.4878 198.591 54.3532 199.065 53.7095C199.496 53.1233 199.776 53.0927 199.926 53.0927V49.0927ZM193.768 56.3436C193.104 59.0728 192.775 61.903 192.775 64.8293H196.775C196.775 62.2054 197.07 59.6935 197.654 57.289L193.768 56.3436ZM192.775 64.8293C192.775 67.8001 193.094 70.6372 193.74 73.3345L197.63 72.4021C197.063 70.0349 196.775 67.5126 196.775 64.8293H192.775ZM193.741 73.3387C194.228 75.351 194.892 77.0743 195.83 78.3356C196.813 79.6562 198.187 80.5659 199.926 80.5659V76.5659C199.756 76.5659 199.47 76.5259 199.039 75.9473C198.564 75.3094 198.061 74.1839 197.629 72.3979L193.741 73.3387ZM199.926 80.5659C201.664 80.5659 203.038 79.6562 204.021 78.3356C204.96 77.0743 205.623 75.351 206.11 73.3387L202.223 72.3979C201.79 74.1839 201.287 75.3094 200.812 75.9473C200.382 76.5259 200.095 76.5659 199.926 76.5659V80.5659ZM206.111 73.3345C206.758 70.6372 207.077 67.8001 207.077 64.8293H203.077C203.077 67.5126 202.789 70.0349 202.222 72.4021L206.111 73.3345ZM206.511 64.8293C206.511 68.7668 206.026 72.0788 205.107 74.8048L208.897 76.083C209.99 72.8426 210.511 69.0782 210.511 64.8293H206.511ZM205.107 74.8047C204.433 76.8025 203.619 78.1053 202.768 78.8939C201.962 79.6407 201.048 80 199.926 80V84C202.047 84 203.934 83.2666 205.487 81.8281C206.994 80.4312 208.097 78.4561 208.897 76.0831L205.107 74.8047ZM199.926 80C198.801 80 197.886 79.6412 197.08 78.8977C196.23 78.113 195.417 76.8167 194.744 74.8284L190.955 76.1114C191.756 78.4765 192.859 80.4453 194.368 81.8373C195.921 83.2705 197.807 84 199.926 84V80ZM194.744 74.8309C193.825 72.1056 193.34 68.7852 193.34 64.8293H189.34C189.34 69.0945 189.861 72.8679 190.954 76.109L194.744 74.8309ZM193.34 64.8293C193.34 60.8733 193.825 57.553 194.744 54.8277L190.954 53.5496C189.861 56.7907 189.34 60.5641 189.34 64.8293H193.34ZM194.744 54.8301C195.417 52.8419 196.23 51.5455 197.08 50.7609C197.886 50.0174 198.801 49.6585 199.926 49.6585V45.6585C197.807 45.6585 195.921 46.388 194.368 47.8212C192.859 49.2133 191.756 51.182 190.955 53.5471L194.744 54.8301ZM199.926 49.6585C201.048 49.6585 201.962 50.0178 202.768 50.7647C203.619 51.5532 204.433 52.8561 205.107 54.8539L208.897 53.5754C208.097 51.2025 206.994 49.2273 205.487 47.8304C203.934 46.3919 202.047 45.6585 199.926 45.6585V49.6585ZM205.107 54.8537C206.026 57.5798 206.511 60.8917 206.511 64.8293H210.511C210.511 60.5804 209.99 56.8159 208.897 53.5756L205.107 54.8537Z" fill="#C4C4C4"/>
</svg>
