<svg width="168" height="171" viewBox="0 0 168 171" fill="none" xmlns="http://www.w3.org/2000/svg">
<path d="M119.924 123.371L122.045 125.493V125.493L119.924 123.371ZM120.049 146.558L117.927 148.68L120.049 146.558ZM143.236 146.683L145.357 148.804H145.357L143.236 146.683ZM154.954 111.653L152.833 113.774L154.954 111.653ZM154.954 158.276L152.833 156.155L154.954 158.276ZM108.331 158.276L110.452 156.155L108.331 158.276ZM108.331 111.653L110.452 113.774L108.331 111.653ZM37.6477 24.6396L35.5264 22.5182L37.6477 24.6396ZM37.7724 47.8266L35.651 49.9479L35.651 49.9479L37.7724 47.8266ZM60.9593 47.9512L58.838 45.8299L58.838 45.8299L60.9593 47.9512ZM61.084 24.5149L58.9627 26.6362L61.084 24.5149ZM72.6775 12.9214L70.5562 15.0427V15.0427L72.6775 12.9214ZM72.6775 59.5447L74.7988 61.666L72.6775 59.5447ZM26.0542 59.5447L23.9329 61.666L26.0542 59.5447ZM26.0542 12.9214L28.1755 15.0427V15.0427L26.0542 12.9214ZM18.5745 154.287L20.8103 156.288L20.8169 156.28L18.5745 154.287ZM150.092 6.31437L152.334 8.30735L152.345 8.29518L152.356 8.2829L150.092 6.31437ZM162.06 5.94039L159.885 8.00663L159.938 8.06241L159.993 8.11539L162.06 5.94039ZM162.434 17.1599L160.198 15.1595L160.191 15.1669L162.434 17.1599ZM30.916 165.133L28.6737 163.14L28.6628 163.152L28.6522 163.164L30.916 165.133ZM18.8238 165.507L16.6488 167.573L16.6753 167.601L16.7025 167.628L18.8238 165.507ZM131.642 115.509C126.273 115.509 121.605 117.448 117.803 121.25L122.045 125.493C124.726 122.812 127.87 121.509 131.642 121.509V115.509ZM117.803 121.25C114.067 124.985 112.187 129.619 112.187 134.965H118.187C118.187 131.169 119.465 128.073 122.045 125.493L117.803 121.25ZM112.187 134.965C112.187 140.267 114.137 144.889 117.927 148.68L122.17 144.437C119.478 141.745 118.187 138.638 118.187 134.965H112.187ZM117.927 148.68C121.718 152.47 126.34 154.42 131.642 154.42V148.42C127.969 148.42 124.862 147.129 122.17 144.437L117.927 148.68ZM131.642 154.42C136.988 154.42 141.622 152.54 145.357 148.804L141.114 144.562C138.534 147.142 135.438 148.42 131.642 148.42V154.42ZM145.357 148.804C149.159 145.002 151.098 140.334 151.098 134.965H145.098C145.098 138.738 143.795 141.881 141.114 144.562L145.357 148.804ZM151.098 134.965C151.098 129.552 149.228 124.872 145.482 121.125L141.239 125.368C143.809 127.938 145.098 131.069 145.098 134.965H151.098ZM145.482 121.125C141.735 117.379 137.055 115.509 131.642 115.509V121.509C135.538 121.509 138.669 122.798 141.239 125.368L145.482 121.125ZM131.642 105.054C139.998 105.054 147.002 107.944 152.833 113.774L157.075 109.532C150.107 102.564 141.571 99.0542 131.642 99.0542V105.054ZM152.833 113.774C158.663 119.605 161.553 126.61 161.553 134.965H167.553C167.553 125.036 164.044 116.5 157.075 109.532L152.833 113.774ZM161.553 134.965C161.553 143.32 158.663 150.325 152.833 156.155L157.075 160.398C164.044 153.429 167.553 144.893 167.553 134.965H161.553ZM152.833 156.155C147.002 161.985 139.998 164.875 131.642 164.875V170.875C141.571 170.875 150.107 167.366 157.075 160.398L152.833 156.155ZM131.642 164.875C123.287 164.875 116.282 161.985 110.452 156.155L106.209 160.398C113.178 167.366 121.714 170.875 131.642 170.875V164.875ZM110.452 156.155C104.622 150.325 101.732 143.32 101.732 134.965H95.7317C95.7317 144.893 99.241 153.429 106.209 160.398L110.452 156.155ZM101.732 134.965C101.732 126.61 104.622 119.605 110.452 113.774L106.209 109.532C99.241 116.5 95.7317 125.036 95.7317 134.965H101.732ZM110.452 113.774C116.282 107.944 123.287 105.054 131.642 105.054V99.0542C121.714 99.0542 113.178 102.564 106.209 109.532L110.452 113.774ZM49.3659 16.7778C43.9968 16.7778 39.3284 18.7162 35.5264 22.5182L39.769 26.7609C42.4494 24.0805 45.5931 22.7778 49.3659 22.7778V16.7778ZM35.5264 22.5182C31.7911 26.2536 29.9106 30.8874 29.9106 36.2331H35.9106C35.9106 32.4369 37.1881 29.3418 39.769 26.7609L35.5264 22.5182ZM29.9106 36.2331C29.9106 41.5354 31.8607 46.1576 35.651 49.9479L39.8937 45.7052C37.2016 43.0132 35.9106 39.9064 35.9106 36.2331H29.9106ZM35.651 49.9479C39.4414 53.7382 44.0635 55.6884 49.3659 55.6884V49.6884C45.6926 49.6884 42.5857 48.3973 39.8937 45.7052L35.651 49.9479ZM49.3659 55.6884C54.7115 55.6884 59.3454 53.8078 63.0807 50.0725L58.838 45.8299C56.2572 48.4108 53.162 49.6884 49.3659 49.6884V55.6884ZM63.0807 50.0725C66.8827 46.2705 68.8211 41.6021 68.8211 36.2331H62.8211C62.8211 40.0058 61.5184 43.1495 58.838 45.8299L63.0807 50.0725ZM68.8211 36.2331C68.8211 30.8207 66.9519 26.1401 63.2053 22.3936L58.9627 26.6362C61.5323 29.2059 62.8211 32.3374 62.8211 36.2331H68.8211ZM63.2053 22.3936C59.4588 18.6471 54.7782 16.7778 49.3659 16.7778V22.7778C53.2615 22.7778 56.3931 24.0666 58.9627 26.6362L63.2053 22.3936ZM49.3659 6.32249C57.7211 6.32249 64.7259 9.21245 70.5562 15.0427L74.7988 10.8001C67.8306 3.83181 59.2942 0.32249 49.3659 0.32249V6.32249ZM70.5562 15.0427C76.3865 20.873 79.2764 27.8778 79.2764 36.2331H85.2764C85.2764 26.3047 81.7671 17.7684 74.7988 10.8001L70.5562 15.0427ZM79.2764 36.2331C79.2764 44.5883 76.3865 51.5931 70.5562 57.4234L74.7988 61.666C81.7671 54.6978 85.2764 46.1615 85.2764 36.2331H79.2764ZM70.5562 57.4234C64.7259 63.2537 57.7211 66.1436 49.3659 66.1436V72.1436C59.2942 72.1436 67.8306 68.6343 74.7988 61.666L70.5562 57.4234ZM49.3659 66.1436C41.0106 66.1436 34.0058 63.2537 28.1755 57.4234L23.9329 61.666C30.9012 68.6343 39.4375 72.1436 49.3659 72.1436V66.1436ZM28.1755 57.4234C22.3452 51.5931 19.4553 44.5883 19.4553 36.2331H13.4553C13.4553 46.1615 16.9646 54.6978 23.9329 61.666L28.1755 57.4234ZM19.4553 36.2331C19.4553 27.8778 22.3452 20.873 28.1755 15.0427L23.9329 10.8001C16.9646 17.7684 13.4553 26.3047 13.4553 36.2331H19.4553ZM28.1755 15.0427C34.0058 9.21245 41.0106 6.32249 49.3659 6.32249V0.32249C39.4375 0.32249 30.9012 3.83181 23.9329 10.8001L28.1755 15.0427ZM19.4553 159.772C19.4553 158.449 19.8788 157.329 20.8102 156.288L16.3388 152.287C14.4446 154.404 13.4553 156.941 13.4553 159.772H19.4553ZM20.8169 156.28L152.334 8.30735L147.85 4.3214L16.3322 152.294L20.8169 156.28ZM152.356 8.2829C153.459 7.01464 154.716 6.44716 156.325 6.44716V0.447161C152.948 0.447161 150.05 1.79115 147.828 4.34584L152.356 8.2829ZM156.325 6.44716C157.727 6.44716 158.858 6.92605 159.885 8.00663L164.235 3.87414C162.103 1.63043 159.411 0.447161 156.325 0.447161V6.44716ZM159.993 8.11539C161.074 9.14194 161.553 10.2732 161.553 11.6748H167.553C167.553 8.5886 166.37 5.89691 164.126 3.76539L159.993 8.11539ZM161.553 11.6748C161.553 12.9984 161.129 14.1185 160.198 15.1595L164.669 19.1603C166.564 17.0432 167.553 14.5066 167.553 11.6748H161.553ZM160.191 15.1669L28.6737 163.14L33.1583 167.126L164.676 19.1529L160.191 15.1669ZM28.6522 163.164C27.5493 164.433 26.292 165 24.6829 165V171C28.0603 171 30.9583 169.656 33.1798 167.101L28.6522 163.164ZM24.6829 165C23.2758 165 22.0745 164.515 20.9452 163.385L16.7025 167.628C18.8975 169.823 21.6022 171 24.6829 171V165ZM20.9988 163.441C19.9139 162.298 19.4553 161.114 19.4553 159.772H13.4553C13.4553 162.752 14.5757 165.391 16.6488 167.573L20.9988 163.441Z" fill="#C4C4C4"/>
</svg>
