<svg width="44" height="39" viewBox="0 0 44 39" fill="none" xmlns="http://www.w3.org/2000/svg">
<path d="M30.0724 32.8223C29.6361 32.8223 29.2333 32.9901 28.9648 33.2922C28.6963 33.5607 28.4949 33.9635 28.4949 34.3998C28.4949 34.8361 28.6628 35.2388 28.9648 35.5073C29.2333 35.7758 29.6361 35.9772 30.0724 35.9772C30.5087 35.9772 30.9114 35.8094 31.1799 35.5073C31.4484 35.2388 31.6498 34.8361 31.6498 34.3998C31.6498 33.9635 31.482 33.5607 31.1799 33.2922C30.9114 33.0237 30.5087 32.8223 30.0724 32.8223ZM27.186 31.5134C27.9244 30.775 28.9648 30.3052 30.0724 30.3052C31.2135 30.3052 32.2203 30.775 32.9587 31.5134C33.6971 32.2518 34.167 33.2922 34.167 34.3998C34.167 35.5409 33.6971 36.5477 32.9587 37.2861C32.2203 38.0245 31.1799 38.4943 30.0724 38.4943C28.9313 38.4943 27.9244 38.0245 27.186 37.2861C26.4477 36.5477 25.9778 35.5073 25.9778 34.3998C25.9778 33.2586 26.4477 32.2518 27.186 31.5134Z" fill="white"/>
<path d="M14.3648 32.8223C13.9285 32.8223 13.5258 32.9901 13.2573 33.2922C12.9888 33.5607 12.7874 33.9635 12.7874 34.3998C12.7874 34.8361 12.9552 35.2388 13.2573 35.5073C13.5258 35.7758 13.9285 35.9772 14.3648 35.9772C14.8012 35.9772 15.2039 35.8094 15.4724 35.5073C15.7409 35.2388 15.9423 34.8361 15.9423 34.3998C15.9423 33.9635 15.7745 33.5607 15.4724 33.2922C15.2039 33.0237 14.8012 32.8223 14.3648 32.8223ZM11.4785 31.5134C12.2169 30.775 13.2573 30.3052 14.3648 30.3052C15.506 30.3052 16.5128 30.775 17.2512 31.5134C17.9896 32.2518 18.4594 33.2922 18.4594 34.3998C18.4594 35.5409 17.9896 36.5477 17.2512 37.2861C16.5128 38.0245 15.4724 38.4943 14.3648 38.4943C13.2237 38.4943 12.2169 38.0245 11.4785 37.2861C10.7401 36.5477 10.2703 35.5073 10.2703 34.3998C10.2703 33.2586 10.7401 32.2518 11.4785 31.5134Z" fill="white"/>
<path d="M6.88047 32.8223C6.44416 32.8223 6.04142 32.9901 5.77292 33.2922C5.50442 33.5607 5.30305 33.9635 5.30305 34.3998C5.30305 34.8361 5.47086 35.2388 5.77292 35.5073C6.04142 35.7758 6.44416 35.9772 6.88047 35.9772C7.31678 35.9772 7.71953 35.8094 7.98802 35.5073C8.25652 35.2388 8.4579 34.8361 8.4579 34.3998C8.4579 33.9635 8.29008 33.5607 7.98802 33.2922C7.71953 33.0237 7.31678 32.8223 6.88047 32.8223ZM3.99413 31.5134C4.73249 30.775 5.77292 30.3052 6.88047 30.3052C8.02159 30.3052 9.02845 30.775 9.76682 31.5134C10.5052 32.2518 10.9751 33.2922 10.9751 34.3998C10.9751 35.5409 10.5052 36.5477 9.76682 37.2861C9.02845 38.0245 7.98802 38.4943 6.88047 38.4943C5.73936 38.4943 4.73249 38.0245 3.99413 37.2861C3.25576 36.5477 2.78589 35.5073 2.78589 34.3998C2.78589 33.2586 3.25576 32.2518 3.99413 31.5134Z" fill="white"/>
<path d="M32.522 32.3188H36.4823V25.4721L34.7371 18.8603L37.1536 18.2227L38.9324 24.9687C38.9324 25.0358 38.9659 25.1029 38.9659 25.17C38.9659 25.2707 38.9995 25.3378 38.9995 25.405V33.2249C38.9995 33.6277 38.8317 34.0304 38.5967 34.3325C38.2947 34.6681 37.8919 34.8695 37.4221 34.8695H32.5555V32.3523L32.522 32.3188ZM32.1864 18.4576H31.3809H27.7226V33.0907C27.7226 33.4934 27.5548 33.8962 27.3198 34.1982C27.0178 34.5339 26.615 34.7352 26.1452 34.7352H17.1169V32.2181H25.239V17.585C25.239 17.1822 25.4068 16.7795 25.6417 16.4774C25.9438 16.1418 26.3465 15.9404 26.8164 15.9404H31.3809H32.1864V18.4576Z" fill="white"/>
<path d="M21.0765 18.8606L17.586 17.0483H7.85302L2.88582 18.9613V24.9018L7.55096 26.7142H17.7539L21.0765 24.9018V18.8271V18.8606ZM18.5593 14.7325L22.7211 16.8805C22.9896 17.0147 23.1909 17.2161 23.3587 17.4846C23.5266 17.7195 23.5937 18.0216 23.5937 18.3236V25.506C23.5937 25.808 23.5266 26.0765 23.3587 26.3114C23.2245 26.5464 23.0231 26.7478 22.7546 26.882L18.7607 29.0635C18.6265 29.1307 18.5258 29.1978 18.3915 29.1978C18.2573 29.2314 18.123 29.2314 17.9888 29.2314H7.38315C7.28246 29.2314 7.21534 29.2314 7.08109 29.1978H7.04752C6.94684 29.1642 6.87971 29.1642 6.77903 29.1307L1.37552 27.0162C1.07346 26.882 0.804961 26.6806 0.63715 26.4457C0.469339 26.1772 0.368652 25.8751 0.368652 25.5395V18.3236C0.368652 17.988 0.469339 17.686 0.63715 17.4175C0.804961 17.149 1.07346 16.9476 1.37552 16.8469L7.08109 14.6318C7.18177 14.5982 7.28246 14.5647 7.38315 14.5311C7.48383 14.4976 7.58452 14.4976 7.68521 14.4976H17.7874C17.8881 14.4976 18.0224 14.4976 18.1566 14.5311C18.2909 14.5647 18.4251 14.5982 18.5258 14.6654L18.5593 14.7325Z" fill="white"/>
<path d="M17.7545 15.7729V27.9896H15.2373V15.7729H17.7545Z" fill="white"/>
<path d="M9.46394 15.7729V27.9896H6.94678V15.7729H9.46394Z" fill="white"/>
<path d="M35.9453 3.45532C38.1604 3.45532 40.1741 4.3615 41.6509 5.80467C43.094 7.24785 44.0002 9.26158 44.0002 11.5102C44.0002 13.7253 43.094 15.7391 41.6509 17.2158C40.2077 18.659 38.194 19.5652 35.9453 19.5652C33.7302 19.5652 31.7165 18.659 30.2397 17.2158C28.7966 15.7726 27.8904 13.7589 27.8904 11.5102C27.8904 9.29514 28.7966 7.28141 30.2397 5.80467C31.7165 4.3615 33.7302 3.45532 35.9453 3.45532ZM39.8721 7.58347C38.8652 6.5766 37.4892 5.97248 35.9453 5.97248C34.4014 5.97248 33.0254 6.5766 32.0185 7.58347C31.0117 8.59033 30.4075 9.96638 30.4075 11.5102C30.4075 13.0541 31.0117 14.4302 32.0185 15.437C33.0254 16.4439 34.4014 17.048 35.9453 17.048C37.4892 17.048 38.8652 16.4439 39.8721 15.437C40.8789 14.4302 41.4831 13.0541 41.4831 11.5102C41.4831 9.96638 40.8789 8.59033 39.8721 7.58347Z" fill="white"/>
<path d="M36.5483 34.8364C35.8435 34.8364 35.2729 34.2658 35.2729 33.561C35.2729 32.8562 35.8435 32.2856 36.5483 32.2856H40.408C41.1128 32.2856 41.6833 32.8562 41.6833 33.561C41.6833 34.2658 41.1128 34.8364 40.408 34.8364H36.5483Z" fill="white"/>
<path d="M1.27536 34.8364C0.570557 34.8364 0 34.2658 0 33.561C0 32.8562 0.570557 32.2856 1.27536 32.2856H3.92677C4.63158 32.2856 5.20214 32.8562 5.20214 33.561C5.20214 34.2658 4.63158 34.8364 3.92677 34.8364H1.27536Z" fill="white"/>
<path d="M36.4829 12.5845C35.8788 12.8865 35.1068 12.6516 34.8048 12.0475C34.5027 11.4434 34.7377 10.6714 35.3418 10.3694L38.3959 8.82553C39 8.52347 39.772 8.7584 40.074 9.36252C40.3761 9.96664 40.1412 10.7386 39.537 11.0406L36.4829 12.5845Z" fill="white"/>
<path d="M36.9185 10.7386C37.3212 11.3092 37.2206 12.0811 36.65 12.4838C36.0794 12.8866 35.3075 12.7859 34.9048 12.2153L33.8979 10.8729C33.4951 10.3023 33.5958 9.53038 34.1664 9.12763C34.7369 8.72488 35.5089 8.82557 35.9116 9.39613L36.9185 10.7386Z" fill="white"/>
<path d="M42.4898 1.81102C43.094 2.14664 43.2953 2.91857 42.9597 3.52269C42.6241 4.12681 41.8522 4.32819 41.248 3.99256L39.6706 3.08639C39.0665 2.75076 38.8651 1.97883 39.2007 1.37471C39.5364 0.770596 40.3083 0.569223 40.9124 0.904844L42.4898 1.81102Z" fill="white"/>
<path d="M37.2206 4.69728C37.2206 5.40209 36.6501 5.97264 35.9453 5.97264C35.2405 5.97264 34.6699 5.40209 34.6699 4.69728V1.47531C34.6699 0.770508 35.2405 0.199951 35.9453 0.199951C36.6501 0.199951 37.2206 0.770508 37.2206 1.47531V4.69728Z" fill="white"/>
<path d="M31.8514 16.5448V23.3244H37.4227V25.8415H30.9117C30.5089 25.8415 30.1062 25.6737 29.8377 25.4052C29.5356 25.1031 29.3342 24.7004 29.3342 24.2641V16.5112H31.8514V16.5448Z" fill="white"/>
</svg>
