<svg width="18" height="18" viewBox="0 0 18 18" fill="none" xmlns="http://www.w3.org/2000/svg">
<path fill-rule="evenodd" clip-rule="evenodd" d="M1 0.25C1.41421 0.25 1.75 0.585786 1.75 1V7.90688L8.18718 1.46969C8.2073 1.44957 8.22828 1.43084 8.25 1.41348V1C8.25 0.585786 8.58579 0.25 9 0.25C9.41421 0.25 9.75 0.585786 9.75 1V8.25L16.25 8.25V7.5C16.25 7.08579 16.5858 6.75 17 6.75C17.4142 6.75 17.75 7.08579 17.75 7.5V9V17C17.75 17.4142 17.4142 17.75 17 17.75L9.00242 17.75L9 17.75L8.99758 17.75L1.00342 17.75L1 17.75C0.741117 17.75 0.512869 17.6188 0.378088 17.4193C0.29722 17.2996 0.25 17.1553 0.25 17V9V1C0.25 0.585786 0.585786 0.25 1 0.25ZM1.75 9.75V15.9069L7.90688 9.75H1.75ZM8.25 8.25L3.5282 8.25L8.25 3.5282V8.25ZM9.75 9.75V16.25L16.25 16.25V9.75H9.75ZM8.25 11.5282V16.25L3.52821 16.25L8.25 11.5282Z" fill="#767676"/>
</svg>
