<svg width="18" height="18" viewBox="0 0 18 18" fill="none" xmlns="http://www.w3.org/2000/svg">
<path fill-rule="evenodd" clip-rule="evenodd" d="M16 1.5H2C1.72386 1.5 1.5 1.72386 1.5 2V16C1.5 16.2761 1.72386 16.5 2 16.5H16C16.2761 16.5 16.5 16.2761 16.5 16V2C16.5 1.72386 16.2761 1.5 16 1.5ZM2 0C0.895431 0 0 0.89543 0 2V16C0 17.1046 0.89543 18 2 18H16C17.1046 18 18 17.1046 18 16V2C18 0.895431 17.1046 0 16 0H2Z" fill="#767676"/>
<path d="M9.00488 8.70732H8.14634C7.86016 8.70732 7.71707 8.56423 7.71707 8.27805C7.71707 7.99187 7.86016 7.84878 8.14634 7.84878H9.00488C9.36477 7.84878 9.66829 7.7252 9.91545 7.47805C10.1669 7.22656 10.2927 6.92087 10.2927 6.56098C10.2927 6.20542 10.1669 5.9019 9.91545 5.65041C9.66396 5.39892 9.36043 5.27317 9.00488 5.27317H7.2878C7.00163 5.27317 6.85854 5.13008 6.85854 4.8439C6.85854 4.55772 7.00163 4.41463 7.2878 4.41463H9.00488C9.59892 4.41463 10.1041 4.62493 10.5203 5.04553C10.9409 5.46612 11.1512 5.97127 11.1512 6.56098C11.1512 7.27209 10.865 7.84444 10.2927 8.27805C10.865 8.71165 11.1512 9.28401 11.1512 9.99512V10.8537C11.1512 11.4477 10.9409 11.955 10.5203 12.3756C10.0997 12.7919 9.59458 13 9.00488 13H7.2878C7.00163 13 6.85854 12.8569 6.85854 12.5707C6.85854 12.2846 7.00163 12.1415 7.2878 12.1415H9.00488C9.36477 12.1415 9.66829 12.0179 9.91545 11.7707C10.1669 11.5192 10.2927 11.2136 10.2927 10.8537V9.99512C10.2927 9.63957 10.1669 9.33604 9.91545 9.08455C9.66396 8.83306 9.36043 8.70732 9.00488 8.70732Z" fill="#767676"/>
<path d="M9.91545 7.47805L10.1983 7.76089L10.1983 7.76089L9.91545 7.47805ZM9.91545 5.65041L10.1983 5.36756L10.1983 5.36756L9.91545 5.65041ZM10.5203 5.04553L10.236 5.32691L10.2375 5.32837L10.5203 5.04553ZM10.2927 8.27805L10.0511 7.95921L9.63028 8.27805L10.0511 8.59689L10.2927 8.27805ZM10.5203 12.3756L10.8017 12.6599L10.8032 12.6585L10.5203 12.3756ZM9.91545 11.7707L10.1983 12.0536L10.1983 12.0536L9.91545 11.7707ZM9.91545 9.08455L10.1983 8.80171L10.1983 8.80171L9.91545 9.08455ZM9.00488 8.30732H8.14634V9.10732H9.00488V8.30732ZM8.14634 8.30732C8.10694 8.30732 8.08874 8.30225 8.08503 8.30101C8.08357 8.30053 8.08588 8.30115 8.09055 8.30395C8.09537 8.30685 8.10129 8.31121 8.10723 8.31716C8.11318 8.3231 8.11754 8.32902 8.12044 8.33384C8.12324 8.33851 8.12386 8.34082 8.12338 8.33936C8.12214 8.33565 8.11707 8.31745 8.11707 8.27805H7.31707C7.31707 8.4828 7.36853 8.70983 7.54155 8.88284C7.71456 9.05586 7.94159 9.10732 8.14634 9.10732V8.30732ZM8.11707 8.27805C8.11707 8.23864 8.12214 8.22045 8.12338 8.21674C8.12386 8.21528 8.12324 8.21758 8.12044 8.22226C8.11754 8.22708 8.11318 8.233 8.10723 8.23894C8.10129 8.24488 8.09537 8.24925 8.09055 8.25214C8.08588 8.25495 8.08357 8.25557 8.08503 8.25508C8.08874 8.25385 8.10694 8.24878 8.14634 8.24878V7.44878C7.94159 7.44878 7.71456 7.50024 7.54155 7.67326C7.36853 7.84627 7.31707 8.0733 7.31707 8.27805H8.11707ZM8.14634 8.24878H9.00488V7.44878H8.14634V8.24878ZM9.00488 8.24878C9.46734 8.24878 9.87367 8.08551 10.1983 7.76089L9.6326 7.19521C9.46292 7.36489 9.2622 7.44878 9.00488 7.44878V8.24878ZM10.1983 7.76089C10.5258 7.43339 10.6927 7.02554 10.6927 6.56098H9.89268C9.89268 6.8162 9.80808 7.01973 9.6326 7.19521L10.1983 7.76089ZM10.6927 6.56098C10.6927 6.0993 10.5248 5.69404 10.1983 5.36756L9.6326 5.93325C9.80911 6.10975 9.89268 6.31154 9.89268 6.56098H10.6927ZM10.1983 5.36756C9.87181 5.04108 9.46656 4.87317 9.00488 4.87317V5.67317C9.25431 5.67317 9.4561 5.75675 9.6326 5.93325L10.1983 5.36756ZM9.00488 4.87317H7.2878V5.67317H9.00488V4.87317ZM7.2878 4.87317C7.2484 4.87317 7.2302 4.86811 7.22649 4.86687C7.22503 4.86638 7.22734 4.867 7.23202 4.86981C7.23684 4.8727 7.24275 4.87707 7.2487 4.88301C7.25464 4.88895 7.25901 4.89487 7.2619 4.89969C7.26471 4.90437 7.26532 4.90667 7.26484 4.90522C7.2636 4.9015 7.25854 4.88331 7.25854 4.8439H6.45854C6.45854 5.04865 6.50999 5.27568 6.68301 5.4487C6.85603 5.62171 7.08306 5.67317 7.2878 5.67317V4.87317ZM7.25854 4.8439C7.25854 4.8045 7.2636 4.7863 7.26484 4.78259C7.26532 4.78113 7.26471 4.78344 7.2619 4.78812C7.25901 4.79294 7.25464 4.79885 7.2487 4.80479C7.24275 4.81074 7.23684 4.81511 7.23202 4.818C7.22734 4.8208 7.22503 4.82142 7.22649 4.82094C7.2302 4.8197 7.2484 4.81463 7.2878 4.81463V4.01463C7.08306 4.01463 6.85603 4.06609 6.68301 4.23911C6.50999 4.41213 6.45854 4.63916 6.45854 4.8439H7.25854ZM7.2878 4.81463H9.00488V4.01463H7.2878V4.81463ZM9.00488 4.81463C9.49258 4.81463 9.89522 4.98255 10.236 5.3269L10.8046 4.76416C10.3129 4.26732 9.70526 4.01463 9.00488 4.01463V4.81463ZM10.2375 5.32837C10.5838 5.67468 10.7512 6.07839 10.7512 6.56098H11.5512C11.5512 5.86416 11.298 5.25757 10.8032 4.76269L10.2375 5.32837ZM10.7512 6.56098C10.7512 7.14543 10.5248 7.60035 10.0511 7.95921L10.5342 8.59689C11.2052 8.08854 11.5512 7.39875 11.5512 6.56098H10.7512ZM10.0511 8.59689C10.5248 8.95574 10.7512 9.41067 10.7512 9.99512H11.5512C11.5512 9.15735 11.2052 8.46756 10.5342 7.95921L10.0511 8.59689ZM10.7512 9.99512V10.8537H11.5512V9.99512H10.7512ZM10.7512 10.8537C10.7512 11.3415 10.5832 11.7471 10.2375 12.0928L10.8032 12.6585C11.2987 12.163 11.5512 11.5539 11.5512 10.8537H10.7512ZM10.239 12.0913C9.89295 12.4337 9.4888 12.6 9.00488 12.6V13.4C9.70036 13.4 10.3065 13.15 10.8017 12.6599L10.239 12.0913ZM9.00488 12.6H7.2878V13.4H9.00488V12.6ZM7.2878 12.6C7.2484 12.6 7.2302 12.5949 7.22649 12.5937C7.22503 12.5932 7.22734 12.5938 7.23202 12.5966C7.23684 12.5995 7.24275 12.6039 7.2487 12.6098C7.25464 12.6158 7.25901 12.6217 7.2619 12.6265C7.26471 12.6312 7.26532 12.6335 7.26484 12.632C7.2636 12.6283 7.25854 12.6101 7.25854 12.5707H6.45854C6.45854 12.7755 6.50999 13.0025 6.68301 13.1755C6.85603 13.3485 7.08306 13.4 7.2878 13.4V12.6ZM7.25854 12.5707C7.25854 12.5313 7.2636 12.5131 7.26484 12.5094C7.26532 12.508 7.26471 12.5103 7.2619 12.5149C7.25901 12.5198 7.25464 12.5257 7.2487 12.5316C7.24275 12.5376 7.23684 12.5419 7.23202 12.5448C7.22734 12.5476 7.22503 12.5483 7.22649 12.5478C7.2302 12.5465 7.2484 12.5415 7.2878 12.5415V11.7415C7.08306 11.7415 6.85603 11.7929 6.68301 11.9659C6.50999 12.139 6.45854 12.366 6.45854 12.5707H7.25854ZM7.2878 12.5415H9.00488V11.7415H7.2878V12.5415ZM9.00488 12.5415C9.46734 12.5415 9.87367 12.3782 10.1983 12.0536L9.6326 11.4879C9.46292 11.6576 9.2622 11.7415 9.00488 11.7415V12.5415ZM10.1983 12.0536C10.5258 11.7261 10.6927 11.3182 10.6927 10.8537H9.89268C9.89268 11.1089 9.80808 11.3124 9.6326 11.4879L10.1983 12.0536ZM10.6927 10.8537V9.99512H9.89268V10.8537H10.6927ZM10.6927 9.99512C10.6927 9.53344 10.5248 9.12819 10.1983 8.80171L9.6326 9.3674C9.80911 9.5439 9.89268 9.74569 9.89268 9.99512H10.6927ZM10.1983 8.80171C9.87181 8.47523 9.46656 8.30732 9.00488 8.30732V9.10732C9.25431 9.10732 9.4561 9.19089 9.6326 9.3674L10.1983 8.80171Z" fill="#767676"/>
</svg>
