<svg width="18" height="18" viewBox="0 0 18 18" fill="none" xmlns="http://www.w3.org/2000/svg">
<path fill-rule="evenodd" clip-rule="evenodd" d="M4.75 1C4.75 0.585786 4.41421 0.25 4 0.25C3.58579 0.25 3.25 0.585786 3.25 1V3.24999L1 3.24999C0.585787 3.24999 0.25 3.58578 0.25 3.99999C0.25 4.4142 0.585786 4.74999 1 4.74999L3.25 4.74999V7.24999L1 7.24999C0.585787 7.24999 0.25 7.58578 0.25 7.99999C0.25 8.4142 0.585786 8.74999 1 8.74999L3.25 8.74999V10.4814L1.14655 10.1698C0.542504 10.0803 0 10.5484 0 11.159V17C0 17.5522 0.447715 18 1 18H17C17.5523 18 18 17.5522 18 17V13.5294C18 13.0337 17.6369 12.6128 17.1465 12.5402L14.75 12.1851V8.75L17 8.75C17.4142 8.75 17.75 8.41421 17.75 8C17.75 7.58579 17.4142 7.25 17 7.25L14.75 7.25V4.75L17 4.75C17.4142 4.75 17.75 4.41421 17.75 4C17.75 3.58579 17.4142 3.25 17 3.25L14.75 3.25V1C14.75 0.585786 14.4142 0.25 14 0.25C13.5858 0.25 13.25 0.585786 13.25 1V3.25L9.75 3.25V1C9.75 0.585786 9.41421 0.25 9 0.25C8.58579 0.25 8.25 0.585786 8.25 1V3.24999L4.75 3.24999V1ZM13.25 4.75L9.75 4.75V7.25L13.25 7.25V4.75ZM13.25 8.75L9.75 8.75V11.4444L13.25 11.9629V8.75ZM4.75 10.7037V8.74999L8.25 8.75V11.2222L4.75 10.7037ZM4.75 7.24999L8.25 7.24999V4.74999L4.75 4.74999V7.24999ZM1.5 16.5V11.7385L16.5 13.9608V16.5H1.5Z" fill="#767676"/>
</svg>
