<svg width="18" height="18" viewBox="0 0 18 18" fill="none" xmlns="http://www.w3.org/2000/svg">
<path fill-rule="evenodd" clip-rule="evenodd" d="M1.5 6.98851V11.0115L6.86394 8.99999L1.5 6.98851ZM2.39802 12.2767L5.72324 15.6019L7.71837 10.2816L2.39802 12.2767ZM6.98846 16.5H11.0115L9 11.1359L6.98846 16.5ZM12.2768 15.6019L15.602 12.2767L10.2816 10.2816L12.2768 15.6019ZM16.5 11.0115V6.98846L11.136 8.99996L16.5 11.0115ZM15.6019 5.72324L12.2768 2.39808L10.2817 7.71834L15.6019 5.72324ZM11.0115 1.5H6.98846L9 6.8641L11.0115 1.5ZM5.72324 2.39808L2.39805 5.72328L7.71836 7.71839L5.72324 2.39808ZM0 6L6 0H12L18 6V12L12 18H6L0 12V6Z" fill="#767676"/>
</svg>
