<svg width="18" height="18" viewBox="0 0 18 18" fill="none" xmlns="http://www.w3.org/2000/svg">
<g clip-path="url(#clip0)">
<path fill-rule="evenodd" clip-rule="evenodd" d="M4.98633 0.0065918L13.8511 8.87141L8.98629 13.7363C7.52182 15.2007 5.14746 15.2007 3.68299 13.7363L1.5522 11.6055C0.0877502 10.141 0.0876651 7.76671 1.55215 6.30222L5.35639 2.49798L3.92567 1.06725L4.98633 0.0065918ZM6.41705 3.55864L2.61281 7.36288C1.73414 8.24155 1.73416 9.66612 2.61286 10.5448L4.74365 12.6756C5.62233 13.5543 7.04695 13.5543 7.92563 12.6756L11.7298 8.87141L6.41705 3.55864Z" fill="#767676"/>
<path fill-rule="evenodd" clip-rule="evenodd" d="M14.5002 13.4571L13.7999 15.642C13.7921 15.6663 13.7896 15.6833 13.7888 15.6925C13.9425 16.0776 14.2157 16.2323 14.42 16.2484C14.5959 16.2623 14.9134 16.1855 15.1894 15.6575C15.1898 15.6558 15.1903 15.6523 15.1905 15.6468C15.1912 15.6318 15.1891 15.6063 15.1785 15.5733L14.5002 13.4571ZM13.5003 11.6624C13.8121 10.6897 15.1883 10.6897 15.5001 11.6624L16.6069 15.1154C16.7227 15.4768 16.7392 15.9293 16.521 16.348C16.0275 17.2952 15.1995 17.8146 14.302 17.7438C13.4351 17.6754 12.7112 17.068 12.3833 16.2169C12.2384 15.8408 12.2804 15.4682 12.3715 15.1842L13.5003 11.6624Z" fill="#767676"/>
</g>
<defs>
<clipPath id="clip0">
<rect width="18" height="18" fill="white"/>
</clipPath>
</defs>
</svg>
