<svg width="37" height="33" viewBox="0 0 37 33" fill="none" xmlns="http://www.w3.org/2000/svg">
<g opacity="0.5">
<path d="M12.9566 0H16.2277C17.3181 0 18.2802 0.48105 18.9857 1.25073C19.6592 1.98834 20.0761 2.98251 20.0761 4.07289V20.0758C20.0761 21.1662 19.6592 22.1604 18.9857 22.898C18.2802 23.6676 17.3181 24.1487 16.2277 24.1487H12.9566C11.8662 24.1487 10.9041 23.6676 10.1985 22.898C9.52506 22.1604 9.10815 21.1662 9.10815 20.0758V4.07289C9.10815 2.98251 9.52506 1.98834 10.1985 1.25073C10.9041 0.48105 11.8662 0 12.9566 0ZM16.2277 3.04665H12.9566C12.7641 3.04665 12.5717 3.14286 12.4434 3.30321C12.2831 3.49563 12.1548 3.78426 12.1548 4.10496V20.1079C12.1548 20.4286 12.251 20.7172 12.4434 20.9096C12.5717 21.07 12.7641 21.1662 12.9566 21.1662H16.2277C16.4201 21.1662 16.6125 21.07 16.7408 20.9096C16.9012 20.7172 17.0294 20.4286 17.0294 20.1079V4.10496C17.0294 3.78426 16.9332 3.49563 16.7408 3.30321C16.6125 3.14286 16.4201 3.04665 16.2277 3.04665Z" fill="white"/>
<path d="M10.6475 4.77838H18.5687V7.82503H10.6475V4.77838Z" fill="white"/>
<path d="M10.6475 16.8688H18.5687V19.9155H10.6475V16.8688Z" fill="white"/>
<path d="M13.6299 22.4811V31.4927H10.5833V22.4811H13.6299Z" fill="white"/>
<path d="M18.6008 22.4811V31.4927H15.5542V22.4811H18.6008Z" fill="white"/>
<path d="M1.53936 32.9999C0.705539 32.9999 0 32.3264 0 31.4605C0 30.6267 0.673469 29.9211 1.53936 29.9211H34.5394C35.3732 29.9211 36.0787 30.5946 36.0787 31.4605C36.0787 32.2943 35.4053 32.9999 34.5394 32.9999H1.53936Z" fill="white"/>
<path d="M26.811 0H30.0822C31.1726 0 32.1347 0.48105 32.8402 1.25073C33.5137 1.98834 33.9306 2.98251 33.9306 4.07289V20.0758C33.9306 21.1662 33.5137 22.1604 32.8402 22.898C32.1347 23.6676 31.1726 24.1487 30.0822 24.1487H26.811C25.7207 24.1487 24.7586 23.6676 24.053 22.898C23.3796 22.1604 22.9626 21.1662 22.9626 20.0758V4.07289C22.9626 2.98251 23.3796 1.98834 24.053 1.25073C24.7586 0.48105 25.7207 0 26.811 0ZM30.0822 3.04665H26.811C26.6186 3.04665 26.4262 3.14286 26.2979 3.30321C26.1376 3.49563 26.0093 3.78426 26.0093 4.10496V20.1079C26.0093 20.4286 26.1055 20.7172 26.2979 20.9096C26.4262 21.07 26.6186 21.1662 26.811 21.1662H30.0822C30.2746 21.1662 30.467 21.07 30.5953 20.9096C30.7557 20.7172 30.8839 20.4286 30.8839 20.1079V4.10496C30.8839 3.78426 30.7877 3.49563 30.5953 3.30321C30.467 3.14286 30.2746 3.04665 30.0822 3.04665Z" fill="white"/>
<path d="M24.502 4.77838H32.4232V7.82503H24.502V4.77838Z" fill="white"/>
<path d="M24.502 16.8688H32.4232V19.9155H24.502V16.8688Z" fill="white"/>
<path d="M27.4844 22.4811V31.4927H24.4377V22.4811H27.4844Z" fill="white"/>
<path d="M32.4234 22.4811V31.4927H29.3767V22.4811H32.4234Z" fill="white"/>
<path d="M9.81327 18.3439C10.5188 17.895 11.4488 18.0874 11.9299 18.7929C12.3789 19.4985 12.1864 20.4285 11.4809 20.9095L2.37304 26.7783C1.6675 27.2273 0.737467 27.0349 0.256418 26.3294C-0.192562 25.6238 -0.000142118 24.6938 0.705397 24.2127L9.81327 18.3439Z" fill="white"/>
<path d="M7.69667 23.2828V31.4928H4.65002V23.2828H7.69667Z" fill="white"/>
</g>
</svg>
