<svg width="18" height="18" viewBox="0 0 18 18" fill="none" xmlns="http://www.w3.org/2000/svg">
<g opacity="0.5">
<path fill-rule="evenodd" clip-rule="evenodd" d="M9.2 8.09956C8.4557 8.09956 7.85 7.49386 7.85 6.74956C7.85 6.00526 8.4557 5.39956 9.2 5.39956C9.9443 5.39956 10.55 6.00526 10.55 6.74956C10.55 7.49386 9.9443 8.09956 9.2 8.09956ZM9.2 3.59956C7.463 3.59956 6.05 5.01256 6.05 6.74956C6.05 8.48656 7.463 9.89956 9.2 9.89956C10.937 9.89956 12.35 8.48656 12.35 6.74956C12.35 5.01256 10.937 3.59956 9.2 3.59956ZM9.2 15.8814C7.6925 14.4558 3.8 10.4535 3.8 7.1298C3.8 4.1913 6.2219 1.8 9.2 1.8C12.1781 1.8 14.6 4.1913 14.6 7.1298C14.6 10.4535 10.7075 14.4558 9.2 15.8814ZM9.2 0C5.2301 0 2 3.1977 2 7.1298C2 12.0573 8.3441 17.5509 8.6141 17.7822C8.7833 17.9271 8.9912 18 9.2 18C9.4088 18 9.6167 17.9271 9.7859 17.7822C10.0559 17.5509 16.4 12.0573 16.4 7.1298C16.4 3.1977 13.1699 0 9.2 0Z" fill="#C4C4C4"/>
</g>
</svg>
