<svg width="18" height="18" viewBox="0 0 18 18" fill="none" xmlns="http://www.w3.org/2000/svg">
<path fill-rule="evenodd" clip-rule="evenodd" d="M3.76772 1.7488C2.92201 1.94579 1.98018 2.47732 1.00355 3.61473L0 2.44595C1.15224 1.10402 2.33927 0.395887 3.48938 0.127997C4.63425 -0.138673 5.69295 0.0422167 6.58056 0.386797C7.46523 0.730233 8.19387 1.24123 8.6979 1.66052C8.95131 1.87132 9.1517 2.06209 9.29073 2.20242C9.36034 2.27268 9.41483 2.33056 9.45317 2.37233C9.47235 2.39322 9.48751 2.41011 9.49852 2.42253L9.51192 2.43776L9.51626 2.44276L9.51784 2.44458L9.51848 2.44532C9.51876 2.44565 9.51902 2.44595 9.01724 3.03034L9.51902 2.44596C10.1585 3.1907 11.2122 4.04042 12.5001 4.28041C13.7515 4.5136 15.3171 4.19003 17.0654 2.40838L18 3.65231C15.9637 5.72744 13.9811 6.23032 12.2758 5.91255C10.6077 5.6017 9.29635 4.52381 8.51645 3.61588L8.51602 3.61538L8.51591 3.61525L8.5159 3.61524L8.51128 3.61001C8.50592 3.60397 8.49665 3.59361 8.48361 3.5794C8.4575 3.55096 8.41636 3.50715 8.36123 3.4515C8.25078 3.34002 8.08527 3.18214 7.87299 3.00554C7.44564 2.65004 6.84374 2.23128 6.13176 1.95488C5.42272 1.67962 4.61866 1.5506 3.76772 1.7488ZM3.76772 7.7488C2.92201 7.94579 1.98018 8.47732 1.00355 9.61473L0 8.44595C1.15224 7.10402 2.33927 6.39589 3.48938 6.128C4.63425 5.86133 5.69295 6.04222 6.58056 6.3868C7.46523 6.73023 8.19387 7.24123 8.6979 7.66052C8.95131 7.87132 9.1517 8.06209 9.29073 8.20242C9.36034 8.27268 9.41483 8.33056 9.45317 8.37233C9.47235 8.39322 9.48751 8.41011 9.49852 8.42253L9.51192 8.43776L9.51626 8.44276L9.51784 8.44458L9.51848 8.44532C9.51876 8.44565 9.51902 8.44595 9.01724 9.03034L9.51902 8.44596C10.1585 9.1907 11.2122 10.0404 12.5001 10.2804C13.7515 10.5136 15.3171 10.19 17.0654 8.40838L18 9.65231C15.9637 11.7274 13.9811 12.2303 12.2758 11.9126C10.6077 11.6017 9.29635 10.5238 8.51645 9.61588L8.51602 9.61538L8.51591 9.61525L8.5159 9.61524L8.51128 9.61001C8.50592 9.60397 8.49665 9.59361 8.48361 9.5794C8.4575 9.55095 8.41636 9.50715 8.36123 9.4515C8.25078 9.34002 8.08527 9.18214 7.87299 9.00554C7.44564 8.65004 6.84374 8.23128 6.13176 7.95488C5.42272 7.67962 4.61866 7.5506 3.76772 7.7488ZM1.00355 15.6147C1.98018 14.4773 2.92201 13.9458 3.76772 13.7488C4.61866 13.5506 5.42272 13.6796 6.13176 13.9549C6.84374 14.2313 7.44564 14.65 7.87299 15.0055C8.08527 15.1821 8.25078 15.34 8.36123 15.4515C8.41636 15.5071 8.4575 15.551 8.48361 15.5794C8.49665 15.5936 8.50592 15.604 8.51128 15.61L8.5159 15.6152L8.51591 15.6152L8.51602 15.6154L8.51645 15.6159C9.29635 16.5238 10.6077 17.6017 12.2758 17.9126C13.9811 18.2303 15.9637 17.7274 18 15.6523L17.0654 14.4084C15.3171 16.19 13.7515 16.5136 12.5001 16.2804C11.2122 16.0404 10.1585 15.1907 9.51902 14.446L9.01724 15.0303C9.51902 14.446 9.51876 14.4456 9.51848 14.4453L9.51784 14.4446L9.51626 14.4428L9.51192 14.4378L9.49852 14.4225C9.48751 14.4101 9.47235 14.3932 9.45317 14.3723C9.41483 14.3306 9.36034 14.2727 9.29073 14.2024C9.1517 14.0621 8.95131 13.8713 8.6979 13.6605C8.19387 13.2412 7.46523 12.7302 6.58056 12.3868C5.69295 12.0422 4.63425 11.8613 3.48938 12.128C2.33927 12.3959 1.15224 13.104 0 14.446L1.00355 15.6147Z" fill="#767676"/>
</svg>
