<svg width="18" height="18" viewBox="0 0 18 18" fill="none" xmlns="http://www.w3.org/2000/svg">
<path fill-rule="evenodd" clip-rule="evenodd" d="M16 1.5H2C1.72386 1.5 1.5 1.72386 1.5 2V16C1.5 16.2761 1.72386 16.5 2 16.5H16C16.2761 16.5 16.5 16.2761 16.5 16V2C16.5 1.72386 16.2761 1.5 16 1.5ZM2 0C0.895431 0 0 0.89543 0 2V16C0 17.1046 0.89543 18 2 18H16C17.1046 18 18 17.1046 18 16V2C18 0.895431 17.1046 0 16 0H2Z" fill="#767676"/>
<path d="M6.85854 10.8537C6.85854 10.806 6.86287 10.7669 6.87154 10.7366L8.58862 4.72683C8.64932 4.5187 8.78808 4.41463 9.00488 4.41463C9.29106 4.41463 9.43415 4.55772 9.43415 4.8439C9.43415 4.88293 9.42764 4.92412 9.41463 4.96748L7.85366 10.4244H9.86341V9.13659C9.86341 8.85041 10.0065 8.70732 10.2927 8.70732C10.5789 8.70732 10.722 8.85041 10.722 9.13659V10.4244H11.5805C11.8667 10.4244 12.0098 10.5675 12.0098 10.8537C12.0098 11.1398 11.8667 11.2829 11.5805 11.2829H10.722V12.5707C10.722 12.8569 10.5789 13 10.2927 13C10.0065 13 9.86341 12.8569 9.86341 12.5707V11.2829H7.2878C7.00163 11.2829 6.85854 11.1398 6.85854 10.8537Z" fill="#767676"/>
<path d="M6.87154 10.7366L6.48694 10.6267L6.48693 10.6267L6.87154 10.7366ZM8.58862 4.72683L8.20461 4.61483L8.20401 4.61694L8.58862 4.72683ZM9.41463 4.96748L9.03147 4.85253L9.03006 4.85747L9.41463 4.96748ZM7.85366 10.4244L7.46908 10.3144L7.32319 10.8244H7.85366V10.4244ZM9.86341 10.4244V10.8244H10.2634V10.4244H9.86341ZM10.722 10.4244H10.322V10.8244H10.722V10.4244ZM10.722 11.2829V10.8829H10.322V11.2829H10.722ZM9.86341 11.2829H10.2634V10.8829H9.86341V11.2829ZM7.25854 10.8537C7.25854 10.8416 7.25911 10.8349 7.25934 10.8328C7.25961 10.8304 7.25923 10.8357 7.25615 10.8465L6.48693 10.6267C6.46427 10.706 6.45854 10.7857 6.45854 10.8537H7.25854ZM7.25615 10.8465L8.97323 4.83672L8.20401 4.61694L6.48694 10.6267L7.25615 10.8465ZM8.97262 4.83883C8.97891 4.81726 8.98454 4.80767 8.98586 4.8056C8.98674 4.80423 8.98444 4.80801 8.97821 4.81268C8.97198 4.81735 8.96771 4.8185 8.96927 4.81804C8.97163 4.81735 8.9824 4.81463 9.00488 4.81463V4.01463C8.83189 4.01463 8.65255 4.05693 8.49821 4.17268C8.34387 4.28844 8.25305 4.44876 8.20462 4.61483L8.97262 4.83883ZM9.00488 4.81463C9.04428 4.81463 9.06248 4.8197 9.06619 4.82094C9.06765 4.82142 9.06534 4.8208 9.06067 4.818C9.05585 4.81511 9.04993 4.81074 9.04399 4.80479C9.03804 4.79885 9.03368 4.79294 9.03078 4.78812C9.02798 4.78344 9.02736 4.78113 9.02784 4.78259C9.02908 4.7863 9.03415 4.8045 9.03415 4.8439H9.83415C9.83415 4.63916 9.78269 4.41213 9.60967 4.23911C9.43666 4.06609 9.20963 4.01463 9.00488 4.01463V4.81463ZM9.03415 4.8439C9.03415 4.83835 9.03507 4.84065 9.0315 4.85254L9.79776 5.08242C9.82021 5.00759 9.83415 4.9275 9.83415 4.8439H9.03415ZM9.03006 4.85747L7.46908 10.3144L8.23823 10.5344L9.79921 5.07749L9.03006 4.85747ZM7.85366 10.8244H9.86341V10.0244H7.85366V10.8244ZM10.2634 10.4244V9.13659H9.46341V10.4244H10.2634ZM10.2634 9.13659C10.2634 9.09718 10.2685 9.07899 10.2697 9.07527C10.2702 9.07381 10.2696 9.07612 10.2668 9.0808C10.2639 9.08562 10.2595 9.09153 10.2536 9.09748C10.2476 9.10342 10.2417 9.10779 10.2369 9.11068C10.2322 9.11349 10.2299 9.11411 10.2314 9.11362C10.2351 9.11238 10.2533 9.10732 10.2927 9.10732V8.30732C10.0879 8.30732 9.86091 8.35877 9.68789 8.53179C9.51487 8.70481 9.46341 8.93184 9.46341 9.13659H10.2634ZM10.2927 9.10732C10.3321 9.10732 10.3503 9.11238 10.354 9.11362C10.3555 9.11411 10.3531 9.11349 10.3485 9.11068C10.3436 9.10779 10.3377 9.10342 10.3318 9.09748C10.3258 9.09153 10.3215 9.08562 10.3186 9.0808C10.3158 9.07612 10.3152 9.07381 10.3156 9.07527C10.3169 9.07899 10.322 9.09718 10.322 9.13659H11.122C11.122 8.93184 11.0705 8.70481 10.8975 8.53179C10.7245 8.35877 10.4974 8.30732 10.2927 8.30732V9.10732ZM10.322 9.13659V10.4244H11.122V9.13659H10.322ZM10.722 10.8244H11.5805V10.0244H10.722V10.8244ZM11.5805 10.8244C11.6199 10.8244 11.6381 10.8295 11.6418 10.8307C11.6433 10.8312 11.641 10.8306 11.6363 10.8278C11.6315 10.8249 11.6255 10.8205 11.6196 10.8146C11.6137 10.8086 11.6093 10.8027 11.6064 10.7979C11.6036 10.7932 11.603 10.7909 11.6035 10.7923C11.6047 10.7961 11.6098 10.8143 11.6098 10.8537H12.4098C12.4098 10.6489 12.3583 10.4219 12.1853 10.2489C12.0123 10.0758 11.7852 10.0244 11.5805 10.0244V10.8244ZM11.6098 10.8537C11.6098 10.8931 11.6047 10.9113 11.6035 10.915C11.603 10.9164 11.6036 10.9141 11.6064 10.9094C11.6093 10.9046 11.6137 10.8987 11.6196 10.8928C11.6255 10.8868 11.6315 10.8825 11.6363 10.8796C11.641 10.8768 11.6433 10.8761 11.6418 10.8766C11.6381 10.8779 11.6199 10.8829 11.5805 10.8829V11.6829C11.7852 11.6829 12.0123 11.6315 12.1853 11.4585C12.3583 11.2854 12.4098 11.0584 12.4098 10.8537H11.6098ZM11.5805 10.8829H10.722V11.6829H11.5805V10.8829ZM10.322 11.2829V12.5707H11.122V11.2829H10.322ZM10.322 12.5707C10.322 12.6101 10.3169 12.6283 10.3156 12.632C10.3152 12.6335 10.3158 12.6312 10.3186 12.6265C10.3215 12.6217 10.3258 12.6158 10.3318 12.6098C10.3377 12.6039 10.3436 12.5995 10.3485 12.5966C10.3531 12.5938 10.3555 12.5932 10.354 12.5937C10.3503 12.5949 10.3321 12.6 10.2927 12.6V13.4C10.4974 13.4 10.7245 13.3485 10.8975 13.1755C11.0705 13.0025 11.122 12.7755 11.122 12.5707H10.322ZM10.2927 12.6C10.2533 12.6 10.2351 12.5949 10.2314 12.5937C10.2299 12.5932 10.2322 12.5938 10.2369 12.5966C10.2417 12.5995 10.2476 12.6039 10.2536 12.6098C10.2595 12.6158 10.2639 12.6217 10.2668 12.6265C10.2696 12.6312 10.2702 12.6335 10.2697 12.632C10.2685 12.6283 10.2634 12.6101 10.2634 12.5707H9.46341C9.46341 12.7755 9.51487 13.0025 9.68789 13.1755C9.86091 13.3485 10.0879 13.4 10.2927 13.4V12.6ZM10.2634 12.5707V11.2829H9.46341V12.5707H10.2634ZM9.86341 10.8829H7.2878V11.6829H9.86341V10.8829ZM7.2878 10.8829C7.2484 10.8829 7.2302 10.8779 7.22649 10.8766C7.22503 10.8761 7.22734 10.8768 7.23202 10.8796C7.23684 10.8825 7.24275 10.8868 7.2487 10.8928C7.25464 10.8987 7.25901 10.9046 7.2619 10.9094C7.26471 10.9141 7.26532 10.9164 7.26484 10.915C7.2636 10.9113 7.25854 10.8931 7.25854 10.8537H6.45854C6.45854 11.0584 6.50999 11.2854 6.68301 11.4585C6.85603 11.6315 7.08306 11.6829 7.2878 11.6829V10.8829Z" fill="#767676"/>
</svg>
