<svg width="18" height="18" viewBox="0 0 18 18" fill="none" xmlns="http://www.w3.org/2000/svg">
<path fill-rule="evenodd" clip-rule="evenodd" d="M15.6977 1.92718L4.88038 4.33551C4.49536 4.42123 4.35656 4.89819 4.63549 5.17712L13.0444 13.5861C13.3262 13.8678 13.8005 13.7252 13.8854 13.3441L16.2944 2.52369C16.3739 2.16655 16.0553 1.84756 15.6977 1.92718ZM4.5544 2.87136L15.3717 0.46303C16.8012 0.144761 18.0768 1.42012 17.7586 2.84967L15.3495 13.6701C15.0066 15.2102 13.0995 15.7624 11.9838 14.6467L8.44878 11.1117L6.93959 12.6209L7.93685 13.6089L4.21794 17.3278C3.33926 18.2065 1.91464 18.2065 1.03596 17.3278C0.157283 16.4491 0.157283 15.0245 1.03596 14.1458L4.73999 10.4418L5.87397 11.5652L7.38812 10.0511L3.57483 6.23778C2.45914 5.12209 3.01429 3.21425 4.5544 2.87136ZM2.09662 16.2671C2.38952 16.56 2.86439 16.56 3.15728 16.2671L5.81056 13.6139L4.74494 12.5582L2.09662 15.2065C1.80373 15.4994 1.80373 15.9743 2.09662 16.2671Z" fill="#767676"/>
</svg>
