<svg width="24" height="24" viewBox="0 0 24 24" fill="none" xmlns="http://www.w3.org/2000/svg">
<path d="M6.69048 16.8401C6.77093 16.9472 6.87208 17.037 6.98793 17.1043C7.10377 17.1716 7.23194 17.2148 7.36484 17.2316C7.49774 17.2484 7.63265 17.2383 7.76156 17.2019C7.89048 17.1655 8.01077 17.1036 8.11531 17.0199C8.21984 16.9361 8.30648 16.8322 8.37008 16.7143C8.43368 16.5964 8.47295 16.467 8.48556 16.3336C8.49817 16.2002 8.48386 16.0657 8.44347 15.938C8.40309 15.8103 8.33746 15.692 8.25048 15.5901L6.33048 13.1801H17.6705L15.7505 15.5901C15.6635 15.692 15.5979 15.8103 15.5575 15.938C15.5171 16.0657 15.5028 16.2002 15.5154 16.3336C15.528 16.467 15.5673 16.5964 15.6309 16.7143C15.6945 16.8322 15.7811 16.9361 15.8856 17.0199C15.9902 17.1036 16.1105 17.1655 16.2394 17.2019C16.3683 17.2383 16.5032 17.2484 16.6361 17.2316C16.769 17.2148 16.8972 17.1716 17.013 17.1043C17.1289 17.037 17.23 16.9472 17.3105 16.8401L20.5805 12.7501C20.7509 12.5373 20.8437 12.2728 20.8437 12.0001C20.8437 11.7275 20.7509 11.4629 20.5805 11.2501L17.3105 7.16011C17.23 7.05301 17.1289 6.96317 17.013 6.89592C16.8972 6.82867 16.769 6.78537 16.6361 6.76861C16.5032 6.75184 16.3683 6.76195 16.2394 6.79832C16.1105 6.8347 15.9902 6.8966 15.8856 6.98036C15.7811 7.06412 15.6945 7.16803 15.6309 7.28592C15.5673 7.4038 15.528 7.53327 15.5154 7.66662C15.5028 7.79998 15.5171 7.93451 15.5575 8.06222C15.5979 8.18994 15.6635 8.30824 15.7505 8.41011L18.0005 11.1801H6.00048L8.25048 8.41011C8.33746 8.30824 8.40309 8.18994 8.44347 8.06222C8.48386 7.93451 8.49817 7.79998 8.48556 7.66662C8.47295 7.53327 8.43368 7.4038 8.37008 7.28592C8.30648 7.16803 8.21984 7.06412 8.11531 6.98036C8.01077 6.8966 7.89048 6.8347 7.76156 6.79832C7.63265 6.76195 7.49774 6.75184 7.36484 6.76861C7.23194 6.78537 7.10377 6.82867 6.98793 6.89592C6.87208 6.96317 6.77093 7.05301 6.69048 7.16011L3.42048 11.2501C3.25007 11.4629 3.15723 11.7275 3.15723 12.0001C3.15723 12.2728 3.25007 12.5373 3.42048 12.7501L6.69048 16.8401Z" fill="#0A5BAC"/>
</svg>
