<svg width="18" height="18" viewBox="0 0 18 18" fill="none" xmlns="http://www.w3.org/2000/svg">
<path fill-rule="evenodd" clip-rule="evenodd" d="M16 1.5H2C1.72386 1.5 1.5 1.72386 1.5 2V16C1.5 16.2761 1.72386 16.5 2 16.5H16C16.2761 16.5 16.5 16.2761 16.5 16V2C16.5 1.72386 16.2761 1.5 16 1.5ZM2 0C0.895431 0 0 0.89543 0 2V16C0 17.1046 0.89543 18 2 18H16C17.1046 18 18 17.1046 18 16V2C18 0.895431 17.1046 0 16 0H2Z" fill="#767676"/>
<path d="M9.00488 4.41463C9.59892 4.41463 10.1041 4.62493 10.5203 5.04553C10.9409 5.46179 11.1512 5.96694 11.1512 6.56098C11.1512 6.96856 11.0211 7.38049 10.761 7.79675L8.05528 12.1415H10.722C11.0081 12.1415 11.1512 12.2846 11.1512 12.5707C11.1512 12.8569 11.0081 13 10.722 13H7.2878C7.00163 13 6.85854 12.8569 6.85854 12.5707C6.85854 12.484 6.88238 12.4016 6.93008 12.3236L10.078 7.26992C10.2211 7.04011 10.2927 6.80379 10.2927 6.56098C10.2927 6.20542 10.1669 5.9019 9.91545 5.65041C9.66396 5.39892 9.36043 5.27317 9.00488 5.27317C8.51924 5.27317 8.07046 5.63306 7.65854 6.35285C7.58049 6.4916 7.45691 6.56098 7.2878 6.56098C7.00163 6.56098 6.85854 6.41789 6.85854 6.13171C6.85854 6.06667 6.87154 6.00813 6.89756 5.9561C7.43089 4.92846 8.13333 4.41463 9.00488 4.41463Z" fill="#767676"/>
<path d="M10.5203 5.04553L10.236 5.32692L10.239 5.32983L10.5203 5.04553ZM10.761 7.79675L10.4218 7.58475L10.4214 7.5853L10.761 7.79675ZM8.05528 12.1415L7.71574 11.93L7.33496 12.5415H8.05528V12.1415ZM6.93008 12.3236L6.59055 12.1121L6.58877 12.115L6.93008 12.3236ZM10.078 7.26992L10.4176 7.48141L10.4176 7.48134L10.078 7.26992ZM9.91545 5.65041L10.1983 5.36756L10.1983 5.36756L9.91545 5.65041ZM7.65854 6.35285L7.31136 6.15416L7.30991 6.15674L7.65854 6.35285ZM6.89756 5.9561L6.54249 5.77182L6.53979 5.77721L6.89756 5.9561ZM9.00488 4.81463C9.49258 4.81463 9.89522 4.98255 10.236 5.3269L10.8046 4.76416C10.3129 4.26732 9.70526 4.01463 9.00488 4.01463V4.81463ZM10.239 5.32983C10.5833 5.67064 10.7512 6.07328 10.7512 6.56098H11.5512C11.5512 5.8606 11.2985 5.25294 10.8017 4.76122L10.239 5.32983ZM10.7512 6.56098C10.7512 6.87953 10.6504 7.21898 10.4218 7.58475L11.1002 8.00875C11.3919 7.542 11.5512 7.05759 11.5512 6.56098H10.7512ZM10.4214 7.5853L7.71574 11.93L8.39483 12.3529L11.1005 8.0082L10.4214 7.5853ZM8.05528 12.5415H10.722V11.7415H8.05528V12.5415ZM10.722 12.5415C10.7614 12.5415 10.7796 12.5465 10.7833 12.5478C10.7847 12.5483 10.7824 12.5476 10.7777 12.5448C10.7729 12.5419 10.767 12.5376 10.7611 12.5316C10.7551 12.5257 10.7507 12.5198 10.7479 12.5149C10.745 12.5103 10.7444 12.508 10.7449 12.5094C10.7462 12.5131 10.7512 12.5313 10.7512 12.5707H11.5512C11.5512 12.366 11.4998 12.139 11.3267 11.9659C11.1537 11.7929 10.9267 11.7415 10.722 11.7415V12.5415ZM10.7512 12.5707C10.7512 12.6101 10.7462 12.6283 10.7449 12.632C10.7444 12.6335 10.745 12.6312 10.7479 12.6265C10.7507 12.6217 10.7551 12.6158 10.7611 12.6098C10.767 12.6039 10.7729 12.5995 10.7777 12.5966C10.7824 12.5938 10.7847 12.5932 10.7833 12.5937C10.7796 12.5949 10.7614 12.6 10.722 12.6V13.4C10.9267 13.4 11.1537 13.3485 11.3267 13.1755C11.4998 13.0025 11.5512 12.7755 11.5512 12.5707H10.7512ZM10.722 12.6H7.2878V13.4H10.722V12.6ZM7.2878 12.6C7.2484 12.6 7.2302 12.5949 7.22649 12.5937C7.22503 12.5932 7.22734 12.5938 7.23202 12.5966C7.23684 12.5995 7.24275 12.6039 7.2487 12.6098C7.25464 12.6158 7.25901 12.6217 7.2619 12.6265C7.26471 12.6312 7.26532 12.6335 7.26484 12.632C7.2636 12.6283 7.25854 12.6101 7.25854 12.5707H6.45854C6.45854 12.7755 6.50999 13.0025 6.68301 13.1755C6.85603 13.3485 7.08306 13.4 7.2878 13.4V12.6ZM7.25854 12.5707C7.25854 12.5617 7.25988 12.551 7.27139 12.5322L6.58877 12.115C6.50489 12.2523 6.45854 12.4063 6.45854 12.5707H7.25854ZM7.2696 12.5351L10.4176 7.48141L9.73853 7.05843L6.59056 12.1121L7.2696 12.5351ZM10.4176 7.48134C10.5955 7.1956 10.6927 6.88691 10.6927 6.56098H9.89268C9.89268 6.72068 9.84675 6.88462 9.73849 7.0585L10.4176 7.48134ZM10.6927 6.56098C10.6927 6.0993 10.5248 5.69404 10.1983 5.36756L9.6326 5.93325C9.80911 6.10975 9.89268 6.31154 9.89268 6.56098H10.6927ZM10.1983 5.36756C9.87181 5.04108 9.46656 4.87317 9.00488 4.87317V5.67317C9.25431 5.67317 9.4561 5.75675 9.6326 5.93325L10.1983 5.36756ZM9.00488 4.87317C8.29541 4.87317 7.74269 5.40048 7.31137 6.15417L8.00571 6.55153C8.39823 5.86564 8.74307 5.67317 9.00488 5.67317V4.87317ZM7.30991 6.15674C7.30558 6.16443 7.30326 6.16652 7.30417 6.16558C7.30528 6.16444 7.3079 6.16217 7.3115 6.16015C7.31501 6.15818 7.31641 6.15814 7.31384 6.15875C7.31096 6.15944 7.3028 6.16098 7.2878 6.16098V6.96098C7.59035 6.96098 7.85301 6.82301 8.00717 6.54895L7.30991 6.15674ZM7.2878 6.16098C7.2484 6.16098 7.2302 6.15591 7.22649 6.15467C7.22503 6.15419 7.22734 6.15481 7.23202 6.15761C7.23684 6.16051 7.24275 6.16487 7.2487 6.17082C7.25464 6.17676 7.25901 6.18267 7.2619 6.18749C7.26471 6.19217 7.26532 6.19448 7.26484 6.19302C7.2636 6.18931 7.25854 6.17111 7.25854 6.13171H6.45854C6.45854 6.33645 6.50999 6.56348 6.68301 6.7365C6.85603 6.90952 7.08306 6.96098 7.2878 6.96098V6.16098ZM7.25854 6.13171C7.25854 6.12593 7.2591 6.12429 7.25877 6.1258C7.2584 6.12747 7.25739 6.13086 7.25533 6.13498L6.53979 5.77721C6.48287 5.89105 6.45854 6.01198 6.45854 6.13171H7.25854ZM7.25259 6.14036C7.74342 5.19463 8.33222 4.81463 9.00488 4.81463V4.01463C7.93445 4.01463 7.11837 4.66228 6.54253 5.77184L7.25259 6.14036Z" fill="#767676"/>
</svg>
