<svg width="18" height="18" viewBox="0 0 18 18" fill="none" xmlns="http://www.w3.org/2000/svg">
<path fill-rule="evenodd" clip-rule="evenodd" d="M16 1.5H2C1.72386 1.5 1.5 1.72386 1.5 2V16C1.5 16.2761 1.72386 16.5 2 16.5H16C16.2761 16.5 16.5 16.2761 16.5 16V2C16.5 1.72386 16.2761 1.5 16 1.5ZM2 0C0.895431 0 0 0.89543 0 2V16C0 17.1046 0.89543 18 2 18H16C17.1046 18 18 17.1046 18 16V2C18 0.895431 17.1046 0 16 0H2Z" fill="#767676"/>
<path d="M6.85854 8.27805V4.8439C6.85854 4.55772 7.00163 4.41463 7.2878 4.41463H10.2927C10.5789 4.41463 10.722 4.55772 10.722 4.8439C10.722 5.13008 10.5789 5.27317 10.2927 5.27317H7.71707V7.84878H9.00488C9.59892 7.84878 10.1041 8.05908 10.5203 8.47967C10.9409 8.90027 11.1512 9.40542 11.1512 9.99512V10.8537C11.1512 11.4477 10.9409 11.955 10.5203 12.3756C10.0997 12.7919 9.59458 13 9.00488 13H7.2878C7.00163 13 6.85854 12.8569 6.85854 12.5707C6.85854 12.2846 7.00163 12.1415 7.2878 12.1415H9.00488C9.36477 12.1415 9.66829 12.0179 9.91545 11.7707C10.1669 11.5192 10.2927 11.2136 10.2927 10.8537V9.99512C10.2927 9.63957 10.1669 9.33604 9.91545 9.08455C9.66396 8.83306 9.36043 8.70732 9.00488 8.70732H7.2878C7.00163 8.70732 6.85854 8.56423 6.85854 8.27805Z" fill="#767676"/>
<path d="M7.71707 5.27317V4.87317H7.31707V5.27317H7.71707ZM7.71707 7.84878H7.31707V8.24878H7.71707V7.84878ZM10.5203 8.47967L10.236 8.76105L10.2375 8.76252L10.5203 8.47967ZM10.5203 12.3756L10.8017 12.6599L10.8032 12.6585L10.5203 12.3756ZM9.91545 11.7707L10.1983 12.0536L10.1983 12.0536L9.91545 11.7707ZM9.91545 9.08455L10.1983 8.80171L10.1983 8.80171L9.91545 9.08455ZM7.25854 8.27805V4.8439H6.45854V8.27805H7.25854ZM7.25854 4.8439C7.25854 4.8045 7.2636 4.7863 7.26484 4.78259C7.26532 4.78113 7.26471 4.78344 7.2619 4.78812C7.25901 4.79294 7.25464 4.79885 7.2487 4.80479C7.24275 4.81074 7.23684 4.81511 7.23202 4.818C7.22734 4.8208 7.22503 4.82142 7.22649 4.82094C7.2302 4.8197 7.2484 4.81463 7.2878 4.81463V4.01463C7.08306 4.01463 6.85603 4.06609 6.68301 4.23911C6.50999 4.41213 6.45854 4.63916 6.45854 4.8439H7.25854ZM7.2878 4.81463H10.2927V4.01463H7.2878V4.81463ZM10.2927 4.81463C10.3321 4.81463 10.3503 4.8197 10.354 4.82094C10.3555 4.82142 10.3531 4.8208 10.3485 4.818C10.3436 4.81511 10.3377 4.81074 10.3318 4.80479C10.3258 4.79885 10.3215 4.79294 10.3186 4.78812C10.3158 4.78344 10.3152 4.78113 10.3156 4.78259C10.3169 4.7863 10.322 4.8045 10.322 4.8439H11.122C11.122 4.63916 11.0705 4.41213 10.8975 4.23911C10.7245 4.06609 10.4974 4.01463 10.2927 4.01463V4.81463ZM10.322 4.8439C10.322 4.88331 10.3169 4.9015 10.3156 4.90522C10.3152 4.90667 10.3158 4.90437 10.3186 4.89969C10.3215 4.89487 10.3258 4.88895 10.3318 4.88301C10.3377 4.87707 10.3436 4.8727 10.3485 4.86981C10.3531 4.867 10.3555 4.86638 10.354 4.86687C10.3503 4.86811 10.3321 4.87317 10.2927 4.87317V5.67317C10.4974 5.67317 10.7245 5.62171 10.8975 5.4487C11.0705 5.27568 11.122 5.04865 11.122 4.8439H10.322ZM10.2927 4.87317H7.71707V5.67317H10.2927V4.87317ZM7.31707 5.27317V7.84878H8.11707V5.27317H7.31707ZM7.71707 8.24878H9.00488V7.44878H7.71707V8.24878ZM9.00488 8.24878C9.49258 8.24878 9.89522 8.41669 10.236 8.76105L10.8046 8.1983C10.3129 7.70146 9.70526 7.44878 9.00488 7.44878V8.24878ZM10.2375 8.76252C10.5838 9.10883 10.7512 9.51254 10.7512 9.99512H11.5512C11.5512 9.2983 11.298 8.69171 10.8032 8.19683L10.2375 8.76252ZM10.7512 9.99512V10.8537H11.5512V9.99512H10.7512ZM10.7512 10.8537C10.7512 11.3415 10.5832 11.7471 10.2375 12.0928L10.8032 12.6585C11.2987 12.163 11.5512 11.5539 11.5512 10.8537H10.7512ZM10.239 12.0913C9.89295 12.4337 9.4888 12.6 9.00488 12.6V13.4C9.70036 13.4 10.3065 13.15 10.8017 12.6599L10.239 12.0913ZM9.00488 12.6H7.2878V13.4H9.00488V12.6ZM7.2878 12.6C7.2484 12.6 7.2302 12.5949 7.22649 12.5937C7.22503 12.5932 7.22734 12.5938 7.23202 12.5966C7.23684 12.5995 7.24275 12.6039 7.2487 12.6098C7.25464 12.6158 7.25901 12.6217 7.2619 12.6265C7.26471 12.6312 7.26532 12.6335 7.26484 12.632C7.2636 12.6283 7.25854 12.6101 7.25854 12.5707H6.45854C6.45854 12.7755 6.50999 13.0025 6.68301 13.1755C6.85603 13.3485 7.08306 13.4 7.2878 13.4V12.6ZM7.25854 12.5707C7.25854 12.5313 7.2636 12.5131 7.26484 12.5094C7.26532 12.508 7.26471 12.5103 7.2619 12.5149C7.25901 12.5198 7.25464 12.5257 7.2487 12.5316C7.24275 12.5376 7.23684 12.5419 7.23202 12.5448C7.22734 12.5476 7.22503 12.5483 7.22649 12.5478C7.2302 12.5465 7.2484 12.5415 7.2878 12.5415V11.7415C7.08306 11.7415 6.85603 11.7929 6.68301 11.9659C6.50999 12.139 6.45854 12.366 6.45854 12.5707H7.25854ZM7.2878 12.5415H9.00488V11.7415H7.2878V12.5415ZM9.00488 12.5415C9.46734 12.5415 9.87367 12.3782 10.1983 12.0536L9.6326 11.4879C9.46292 11.6576 9.2622 11.7415 9.00488 11.7415V12.5415ZM10.1983 12.0536C10.5258 11.7261 10.6927 11.3182 10.6927 10.8537H9.89268C9.89268 11.1089 9.80808 11.3124 9.6326 11.4879L10.1983 12.0536ZM10.6927 10.8537V9.99512H9.89268V10.8537H10.6927ZM10.6927 9.99512C10.6927 9.53344 10.5248 9.12819 10.1983 8.80171L9.6326 9.3674C9.80911 9.5439 9.89268 9.74569 9.89268 9.99512H10.6927ZM10.1983 8.80171C9.87181 8.47523 9.46656 8.30732 9.00488 8.30732V9.10732C9.25431 9.10732 9.4561 9.19089 9.6326 9.3674L10.1983 8.80171ZM9.00488 8.30732H7.2878V9.10732H9.00488V8.30732ZM7.2878 8.30732C7.2484 8.30732 7.2302 8.30225 7.22649 8.30101C7.22503 8.30053 7.22734 8.30115 7.23202 8.30395C7.23684 8.30685 7.24275 8.31121 7.2487 8.31716C7.25464 8.3231 7.25901 8.32902 7.2619 8.33384C7.26471 8.33851 7.26532 8.34082 7.26484 8.33936C7.2636 8.33565 7.25854 8.31745 7.25854 8.27805H6.45854C6.45854 8.4828 6.50999 8.70983 6.68301 8.88284C6.85603 9.05586 7.08306 9.10732 7.2878 9.10732V8.30732Z" fill="#767676"/>
</svg>
