<svg width="16" height="18" viewBox="0 0 16 18" fill="none" xmlns="http://www.w3.org/2000/svg">
<path fill-rule="evenodd" clip-rule="evenodd" d="M0.265036 7.47C0.669604 7.947 1.3896 8.01225 1.87416 7.614L6.85697 3.52688V16.875C6.85697 17.496 7.36896 18 7.99981 18C8.63066 18 9.14266 17.496 9.14266 16.875V3.52688L14.1255 7.614C14.6112 8.01225 15.3312 7.947 15.7346 7.47C16.1392 6.993 16.074 6.28312 15.5883 5.886L8.73124 0.261C8.67752 0.216 8.61352 0.194625 8.55409 0.160875C8.50724 0.133875 8.46609 0.102375 8.41467 0.082125C8.28095 0.030375 8.14153 0 7.99981 0C7.8581 0 7.71867 0.030375 7.58496 0.082125C7.53353 0.102375 7.49239 0.133875 7.44553 0.160875C7.38611 0.194625 7.32211 0.216 7.26839 0.261L0.41132 5.886C-0.073246 6.28312 -0.139531 6.993 0.265036 7.47Z" fill="#767676"/>
</svg>
